%TF.GenerationSoftware,KiCad,Pcbnew,8.0.6-8.0.6-0~ubuntu24.04.1*%
%TF.CreationDate,2024-10-31T11:29:06+09:00*%
%TF.ProjectId,zatopos-ear-mic,7a61746f-706f-4732-9d65-61722d6d6963,rev?*%
%TF.SameCoordinates,Original*%
%TF.FileFunction,Drillmap*%
%TF.FilePolarity,Positive*%
%FSLAX45Y45*%
G04 Gerber Fmt 4.5, Leading zero omitted, Abs format (unit mm)*
G04 Created by KiCad (PCBNEW 8.0.6-8.0.6-0~ubuntu24.04.1) date 2024-10-31 11:29:06*
%MOMM*%
%LPD*%
G01*
G04 APERTURE LIST*
%ADD10C,0.050000*%
%ADD11C,0.200000*%
%ADD12C,0.220000*%
G04 APERTURE END LIST*
D10*
X18600000Y-8000000D02*
G75*
G02*
X19000000Y-8400000I0J-400000D01*
G01*
X11000000Y-8400000D02*
G75*
G02*
X11400000Y-8000000I400000J0D01*
G01*
X11400000Y-12000000D02*
G75*
G02*
X11000000Y-11600000I0J400000D01*
G01*
X19000000Y-11600000D02*
G75*
G02*
X18600000Y-12000000I-400000J0D01*
G01*
X11400000Y-8000000D02*
X18600000Y-8000000D01*
X18600000Y-12000000D02*
X11400000Y-12000000D01*
X11000000Y-8400000D02*
X11000000Y-11600000D01*
X19000000Y-8400000D02*
X19000000Y-11600000D01*
D11*
D12*
X11390000Y-8390000D02*
X11610000Y-8610000D01*
X11610000Y-8390000D02*
X11390000Y-8610000D01*
X11390000Y-11390000D02*
X11610000Y-11610000D01*
X11610000Y-11390000D02*
X11390000Y-11610000D01*
X18390000Y-8390000D02*
X18610000Y-8610000D01*
X18610000Y-8390000D02*
X18390000Y-8610000D01*
X18390000Y-11390000D02*
X18610000Y-11610000D01*
X18610000Y-11390000D02*
X18390000Y-11610000D01*
D11*
X11258277Y-12313984D02*
X11258277Y-12113984D01*
X11258277Y-12113984D02*
X11305896Y-12113984D01*
X11305896Y-12113984D02*
X11334467Y-12123508D01*
X11334467Y-12123508D02*
X11353515Y-12142555D01*
X11353515Y-12142555D02*
X11363039Y-12161603D01*
X11363039Y-12161603D02*
X11372562Y-12199698D01*
X11372562Y-12199698D02*
X11372562Y-12228269D01*
X11372562Y-12228269D02*
X11363039Y-12266365D01*
X11363039Y-12266365D02*
X11353515Y-12285412D01*
X11353515Y-12285412D02*
X11334467Y-12304460D01*
X11334467Y-12304460D02*
X11305896Y-12313984D01*
X11305896Y-12313984D02*
X11258277Y-12313984D01*
X11458277Y-12313984D02*
X11458277Y-12180650D01*
X11458277Y-12218746D02*
X11467801Y-12199698D01*
X11467801Y-12199698D02*
X11477324Y-12190174D01*
X11477324Y-12190174D02*
X11496372Y-12180650D01*
X11496372Y-12180650D02*
X11515420Y-12180650D01*
X11582086Y-12313984D02*
X11582086Y-12180650D01*
X11582086Y-12113984D02*
X11572562Y-12123508D01*
X11572562Y-12123508D02*
X11582086Y-12133031D01*
X11582086Y-12133031D02*
X11591610Y-12123508D01*
X11591610Y-12123508D02*
X11582086Y-12113984D01*
X11582086Y-12113984D02*
X11582086Y-12133031D01*
X11705896Y-12313984D02*
X11686848Y-12304460D01*
X11686848Y-12304460D02*
X11677324Y-12285412D01*
X11677324Y-12285412D02*
X11677324Y-12113984D01*
X11810658Y-12313984D02*
X11791610Y-12304460D01*
X11791610Y-12304460D02*
X11782086Y-12285412D01*
X11782086Y-12285412D02*
X11782086Y-12113984D01*
X12039229Y-12313984D02*
X12039229Y-12113984D01*
X12039229Y-12113984D02*
X12105896Y-12256841D01*
X12105896Y-12256841D02*
X12172562Y-12113984D01*
X12172562Y-12113984D02*
X12172562Y-12313984D01*
X12353515Y-12313984D02*
X12353515Y-12209222D01*
X12353515Y-12209222D02*
X12343991Y-12190174D01*
X12343991Y-12190174D02*
X12324943Y-12180650D01*
X12324943Y-12180650D02*
X12286848Y-12180650D01*
X12286848Y-12180650D02*
X12267801Y-12190174D01*
X12353515Y-12304460D02*
X12334467Y-12313984D01*
X12334467Y-12313984D02*
X12286848Y-12313984D01*
X12286848Y-12313984D02*
X12267801Y-12304460D01*
X12267801Y-12304460D02*
X12258277Y-12285412D01*
X12258277Y-12285412D02*
X12258277Y-12266365D01*
X12258277Y-12266365D02*
X12267801Y-12247317D01*
X12267801Y-12247317D02*
X12286848Y-12237793D01*
X12286848Y-12237793D02*
X12334467Y-12237793D01*
X12334467Y-12237793D02*
X12353515Y-12228269D01*
X12448753Y-12180650D02*
X12448753Y-12380650D01*
X12448753Y-12190174D02*
X12467801Y-12180650D01*
X12467801Y-12180650D02*
X12505896Y-12180650D01*
X12505896Y-12180650D02*
X12524943Y-12190174D01*
X12524943Y-12190174D02*
X12534467Y-12199698D01*
X12534467Y-12199698D02*
X12543991Y-12218746D01*
X12543991Y-12218746D02*
X12543991Y-12275888D01*
X12543991Y-12275888D02*
X12534467Y-12294936D01*
X12534467Y-12294936D02*
X12524943Y-12304460D01*
X12524943Y-12304460D02*
X12505896Y-12313984D01*
X12505896Y-12313984D02*
X12467801Y-12313984D01*
X12467801Y-12313984D02*
X12448753Y-12304460D01*
X12629705Y-12294936D02*
X12639229Y-12304460D01*
X12639229Y-12304460D02*
X12629705Y-12313984D01*
X12629705Y-12313984D02*
X12620182Y-12304460D01*
X12620182Y-12304460D02*
X12629705Y-12294936D01*
X12629705Y-12294936D02*
X12629705Y-12313984D01*
X12629705Y-12190174D02*
X12639229Y-12199698D01*
X12639229Y-12199698D02*
X12629705Y-12209222D01*
X12629705Y-12209222D02*
X12620182Y-12199698D01*
X12620182Y-12199698D02*
X12629705Y-12190174D01*
X12629705Y-12190174D02*
X12629705Y-12209222D01*
X10797500Y-12542500D02*
X10997500Y-12742500D01*
X10997500Y-12542500D02*
X10797500Y-12742500D01*
X11248753Y-12553031D02*
X11258277Y-12543508D01*
X11258277Y-12543508D02*
X11277324Y-12533984D01*
X11277324Y-12533984D02*
X11324943Y-12533984D01*
X11324943Y-12533984D02*
X11343991Y-12543508D01*
X11343991Y-12543508D02*
X11353515Y-12553031D01*
X11353515Y-12553031D02*
X11363039Y-12572079D01*
X11363039Y-12572079D02*
X11363039Y-12591127D01*
X11363039Y-12591127D02*
X11353515Y-12619698D01*
X11353515Y-12619698D02*
X11239229Y-12733984D01*
X11239229Y-12733984D02*
X11363039Y-12733984D01*
X11448753Y-12714936D02*
X11458277Y-12724460D01*
X11458277Y-12724460D02*
X11448753Y-12733984D01*
X11448753Y-12733984D02*
X11439229Y-12724460D01*
X11439229Y-12724460D02*
X11448753Y-12714936D01*
X11448753Y-12714936D02*
X11448753Y-12733984D01*
X11534467Y-12553031D02*
X11543991Y-12543508D01*
X11543991Y-12543508D02*
X11563039Y-12533984D01*
X11563039Y-12533984D02*
X11610658Y-12533984D01*
X11610658Y-12533984D02*
X11629705Y-12543508D01*
X11629705Y-12543508D02*
X11639229Y-12553031D01*
X11639229Y-12553031D02*
X11648753Y-12572079D01*
X11648753Y-12572079D02*
X11648753Y-12591127D01*
X11648753Y-12591127D02*
X11639229Y-12619698D01*
X11639229Y-12619698D02*
X11524943Y-12733984D01*
X11524943Y-12733984D02*
X11648753Y-12733984D01*
X11772562Y-12533984D02*
X11791610Y-12533984D01*
X11791610Y-12533984D02*
X11810658Y-12543508D01*
X11810658Y-12543508D02*
X11820182Y-12553031D01*
X11820182Y-12553031D02*
X11829705Y-12572079D01*
X11829705Y-12572079D02*
X11839229Y-12610174D01*
X11839229Y-12610174D02*
X11839229Y-12657793D01*
X11839229Y-12657793D02*
X11829705Y-12695888D01*
X11829705Y-12695888D02*
X11820182Y-12714936D01*
X11820182Y-12714936D02*
X11810658Y-12724460D01*
X11810658Y-12724460D02*
X11791610Y-12733984D01*
X11791610Y-12733984D02*
X11772562Y-12733984D01*
X11772562Y-12733984D02*
X11753515Y-12724460D01*
X11753515Y-12724460D02*
X11743991Y-12714936D01*
X11743991Y-12714936D02*
X11734467Y-12695888D01*
X11734467Y-12695888D02*
X11724943Y-12657793D01*
X11724943Y-12657793D02*
X11724943Y-12610174D01*
X11724943Y-12610174D02*
X11734467Y-12572079D01*
X11734467Y-12572079D02*
X11743991Y-12553031D01*
X11743991Y-12553031D02*
X11753515Y-12543508D01*
X11753515Y-12543508D02*
X11772562Y-12533984D01*
X11963039Y-12533984D02*
X11982086Y-12533984D01*
X11982086Y-12533984D02*
X12001134Y-12543508D01*
X12001134Y-12543508D02*
X12010658Y-12553031D01*
X12010658Y-12553031D02*
X12020182Y-12572079D01*
X12020182Y-12572079D02*
X12029705Y-12610174D01*
X12029705Y-12610174D02*
X12029705Y-12657793D01*
X12029705Y-12657793D02*
X12020182Y-12695888D01*
X12020182Y-12695888D02*
X12010658Y-12714936D01*
X12010658Y-12714936D02*
X12001134Y-12724460D01*
X12001134Y-12724460D02*
X11982086Y-12733984D01*
X11982086Y-12733984D02*
X11963039Y-12733984D01*
X11963039Y-12733984D02*
X11943991Y-12724460D01*
X11943991Y-12724460D02*
X11934467Y-12714936D01*
X11934467Y-12714936D02*
X11924943Y-12695888D01*
X11924943Y-12695888D02*
X11915420Y-12657793D01*
X11915420Y-12657793D02*
X11915420Y-12610174D01*
X11915420Y-12610174D02*
X11924943Y-12572079D01*
X11924943Y-12572079D02*
X11934467Y-12553031D01*
X11934467Y-12553031D02*
X11943991Y-12543508D01*
X11943991Y-12543508D02*
X11963039Y-12533984D01*
X12115420Y-12733984D02*
X12115420Y-12600650D01*
X12115420Y-12619698D02*
X12124943Y-12610174D01*
X12124943Y-12610174D02*
X12143991Y-12600650D01*
X12143991Y-12600650D02*
X12172563Y-12600650D01*
X12172563Y-12600650D02*
X12191610Y-12610174D01*
X12191610Y-12610174D02*
X12201134Y-12629222D01*
X12201134Y-12629222D02*
X12201134Y-12733984D01*
X12201134Y-12629222D02*
X12210658Y-12610174D01*
X12210658Y-12610174D02*
X12229705Y-12600650D01*
X12229705Y-12600650D02*
X12258277Y-12600650D01*
X12258277Y-12600650D02*
X12277324Y-12610174D01*
X12277324Y-12610174D02*
X12286848Y-12629222D01*
X12286848Y-12629222D02*
X12286848Y-12733984D01*
X12382086Y-12733984D02*
X12382086Y-12600650D01*
X12382086Y-12619698D02*
X12391610Y-12610174D01*
X12391610Y-12610174D02*
X12410658Y-12600650D01*
X12410658Y-12600650D02*
X12439229Y-12600650D01*
X12439229Y-12600650D02*
X12458277Y-12610174D01*
X12458277Y-12610174D02*
X12467801Y-12629222D01*
X12467801Y-12629222D02*
X12467801Y-12733984D01*
X12467801Y-12629222D02*
X12477324Y-12610174D01*
X12477324Y-12610174D02*
X12496372Y-12600650D01*
X12496372Y-12600650D02*
X12524943Y-12600650D01*
X12524943Y-12600650D02*
X12543991Y-12610174D01*
X12543991Y-12610174D02*
X12553515Y-12629222D01*
X12553515Y-12629222D02*
X12553515Y-12733984D01*
X12943991Y-12524460D02*
X12772563Y-12781603D01*
X13201134Y-12533984D02*
X13220182Y-12533984D01*
X13220182Y-12533984D02*
X13239229Y-12543508D01*
X13239229Y-12543508D02*
X13248753Y-12553031D01*
X13248753Y-12553031D02*
X13258277Y-12572079D01*
X13258277Y-12572079D02*
X13267801Y-12610174D01*
X13267801Y-12610174D02*
X13267801Y-12657793D01*
X13267801Y-12657793D02*
X13258277Y-12695888D01*
X13258277Y-12695888D02*
X13248753Y-12714936D01*
X13248753Y-12714936D02*
X13239229Y-12724460D01*
X13239229Y-12724460D02*
X13220182Y-12733984D01*
X13220182Y-12733984D02*
X13201134Y-12733984D01*
X13201134Y-12733984D02*
X13182086Y-12724460D01*
X13182086Y-12724460D02*
X13172563Y-12714936D01*
X13172563Y-12714936D02*
X13163039Y-12695888D01*
X13163039Y-12695888D02*
X13153515Y-12657793D01*
X13153515Y-12657793D02*
X13153515Y-12610174D01*
X13153515Y-12610174D02*
X13163039Y-12572079D01*
X13163039Y-12572079D02*
X13172563Y-12553031D01*
X13172563Y-12553031D02*
X13182086Y-12543508D01*
X13182086Y-12543508D02*
X13201134Y-12533984D01*
X13353515Y-12714936D02*
X13363039Y-12724460D01*
X13363039Y-12724460D02*
X13353515Y-12733984D01*
X13353515Y-12733984D02*
X13343991Y-12724460D01*
X13343991Y-12724460D02*
X13353515Y-12714936D01*
X13353515Y-12714936D02*
X13353515Y-12733984D01*
X13486848Y-12533984D02*
X13505896Y-12533984D01*
X13505896Y-12533984D02*
X13524944Y-12543508D01*
X13524944Y-12543508D02*
X13534467Y-12553031D01*
X13534467Y-12553031D02*
X13543991Y-12572079D01*
X13543991Y-12572079D02*
X13553515Y-12610174D01*
X13553515Y-12610174D02*
X13553515Y-12657793D01*
X13553515Y-12657793D02*
X13543991Y-12695888D01*
X13543991Y-12695888D02*
X13534467Y-12714936D01*
X13534467Y-12714936D02*
X13524944Y-12724460D01*
X13524944Y-12724460D02*
X13505896Y-12733984D01*
X13505896Y-12733984D02*
X13486848Y-12733984D01*
X13486848Y-12733984D02*
X13467801Y-12724460D01*
X13467801Y-12724460D02*
X13458277Y-12714936D01*
X13458277Y-12714936D02*
X13448753Y-12695888D01*
X13448753Y-12695888D02*
X13439229Y-12657793D01*
X13439229Y-12657793D02*
X13439229Y-12610174D01*
X13439229Y-12610174D02*
X13448753Y-12572079D01*
X13448753Y-12572079D02*
X13458277Y-12553031D01*
X13458277Y-12553031D02*
X13467801Y-12543508D01*
X13467801Y-12543508D02*
X13486848Y-12533984D01*
X13667801Y-12619698D02*
X13648753Y-12610174D01*
X13648753Y-12610174D02*
X13639229Y-12600650D01*
X13639229Y-12600650D02*
X13629706Y-12581603D01*
X13629706Y-12581603D02*
X13629706Y-12572079D01*
X13629706Y-12572079D02*
X13639229Y-12553031D01*
X13639229Y-12553031D02*
X13648753Y-12543508D01*
X13648753Y-12543508D02*
X13667801Y-12533984D01*
X13667801Y-12533984D02*
X13705896Y-12533984D01*
X13705896Y-12533984D02*
X13724944Y-12543508D01*
X13724944Y-12543508D02*
X13734467Y-12553031D01*
X13734467Y-12553031D02*
X13743991Y-12572079D01*
X13743991Y-12572079D02*
X13743991Y-12581603D01*
X13743991Y-12581603D02*
X13734467Y-12600650D01*
X13734467Y-12600650D02*
X13724944Y-12610174D01*
X13724944Y-12610174D02*
X13705896Y-12619698D01*
X13705896Y-12619698D02*
X13667801Y-12619698D01*
X13667801Y-12619698D02*
X13648753Y-12629222D01*
X13648753Y-12629222D02*
X13639229Y-12638746D01*
X13639229Y-12638746D02*
X13629706Y-12657793D01*
X13629706Y-12657793D02*
X13629706Y-12695888D01*
X13629706Y-12695888D02*
X13639229Y-12714936D01*
X13639229Y-12714936D02*
X13648753Y-12724460D01*
X13648753Y-12724460D02*
X13667801Y-12733984D01*
X13667801Y-12733984D02*
X13705896Y-12733984D01*
X13705896Y-12733984D02*
X13724944Y-12724460D01*
X13724944Y-12724460D02*
X13734467Y-12714936D01*
X13734467Y-12714936D02*
X13743991Y-12695888D01*
X13743991Y-12695888D02*
X13743991Y-12657793D01*
X13743991Y-12657793D02*
X13734467Y-12638746D01*
X13734467Y-12638746D02*
X13724944Y-12629222D01*
X13724944Y-12629222D02*
X13705896Y-12619698D01*
X13915420Y-12533984D02*
X13877325Y-12533984D01*
X13877325Y-12533984D02*
X13858277Y-12543508D01*
X13858277Y-12543508D02*
X13848753Y-12553031D01*
X13848753Y-12553031D02*
X13829706Y-12581603D01*
X13829706Y-12581603D02*
X13820182Y-12619698D01*
X13820182Y-12619698D02*
X13820182Y-12695888D01*
X13820182Y-12695888D02*
X13829706Y-12714936D01*
X13829706Y-12714936D02*
X13839229Y-12724460D01*
X13839229Y-12724460D02*
X13858277Y-12733984D01*
X13858277Y-12733984D02*
X13896372Y-12733984D01*
X13896372Y-12733984D02*
X13915420Y-12724460D01*
X13915420Y-12724460D02*
X13924944Y-12714936D01*
X13924944Y-12714936D02*
X13934467Y-12695888D01*
X13934467Y-12695888D02*
X13934467Y-12648269D01*
X13934467Y-12648269D02*
X13924944Y-12629222D01*
X13924944Y-12629222D02*
X13915420Y-12619698D01*
X13915420Y-12619698D02*
X13896372Y-12610174D01*
X13896372Y-12610174D02*
X13858277Y-12610174D01*
X13858277Y-12610174D02*
X13839229Y-12619698D01*
X13839229Y-12619698D02*
X13829706Y-12629222D01*
X13829706Y-12629222D02*
X13820182Y-12648269D01*
X14105896Y-12533984D02*
X14067801Y-12533984D01*
X14067801Y-12533984D02*
X14048753Y-12543508D01*
X14048753Y-12543508D02*
X14039229Y-12553031D01*
X14039229Y-12553031D02*
X14020182Y-12581603D01*
X14020182Y-12581603D02*
X14010658Y-12619698D01*
X14010658Y-12619698D02*
X14010658Y-12695888D01*
X14010658Y-12695888D02*
X14020182Y-12714936D01*
X14020182Y-12714936D02*
X14029706Y-12724460D01*
X14029706Y-12724460D02*
X14048753Y-12733984D01*
X14048753Y-12733984D02*
X14086848Y-12733984D01*
X14086848Y-12733984D02*
X14105896Y-12724460D01*
X14105896Y-12724460D02*
X14115420Y-12714936D01*
X14115420Y-12714936D02*
X14124944Y-12695888D01*
X14124944Y-12695888D02*
X14124944Y-12648269D01*
X14124944Y-12648269D02*
X14115420Y-12629222D01*
X14115420Y-12629222D02*
X14105896Y-12619698D01*
X14105896Y-12619698D02*
X14086848Y-12610174D01*
X14086848Y-12610174D02*
X14048753Y-12610174D01*
X14048753Y-12610174D02*
X14029706Y-12619698D01*
X14029706Y-12619698D02*
X14020182Y-12629222D01*
X14020182Y-12629222D02*
X14010658Y-12648269D01*
X14201134Y-12533984D02*
X14201134Y-12572079D01*
X14277325Y-12533984D02*
X14277325Y-12572079D01*
X14572563Y-12810174D02*
X14563039Y-12800650D01*
X14563039Y-12800650D02*
X14543991Y-12772079D01*
X14543991Y-12772079D02*
X14534468Y-12753031D01*
X14534468Y-12753031D02*
X14524944Y-12724460D01*
X14524944Y-12724460D02*
X14515420Y-12676841D01*
X14515420Y-12676841D02*
X14515420Y-12638746D01*
X14515420Y-12638746D02*
X14524944Y-12591127D01*
X14524944Y-12591127D02*
X14534468Y-12562555D01*
X14534468Y-12562555D02*
X14543991Y-12543508D01*
X14543991Y-12543508D02*
X14563039Y-12514936D01*
X14563039Y-12514936D02*
X14572563Y-12505412D01*
X14734468Y-12600650D02*
X14734468Y-12733984D01*
X14686848Y-12524460D02*
X14639229Y-12667317D01*
X14639229Y-12667317D02*
X14763039Y-12667317D01*
X14991610Y-12733984D02*
X14991610Y-12533984D01*
X15077325Y-12733984D02*
X15077325Y-12629222D01*
X15077325Y-12629222D02*
X15067801Y-12610174D01*
X15067801Y-12610174D02*
X15048753Y-12600650D01*
X15048753Y-12600650D02*
X15020182Y-12600650D01*
X15020182Y-12600650D02*
X15001134Y-12610174D01*
X15001134Y-12610174D02*
X14991610Y-12619698D01*
X15201134Y-12733984D02*
X15182087Y-12724460D01*
X15182087Y-12724460D02*
X15172563Y-12714936D01*
X15172563Y-12714936D02*
X15163039Y-12695888D01*
X15163039Y-12695888D02*
X15163039Y-12638746D01*
X15163039Y-12638746D02*
X15172563Y-12619698D01*
X15172563Y-12619698D02*
X15182087Y-12610174D01*
X15182087Y-12610174D02*
X15201134Y-12600650D01*
X15201134Y-12600650D02*
X15229706Y-12600650D01*
X15229706Y-12600650D02*
X15248753Y-12610174D01*
X15248753Y-12610174D02*
X15258277Y-12619698D01*
X15258277Y-12619698D02*
X15267801Y-12638746D01*
X15267801Y-12638746D02*
X15267801Y-12695888D01*
X15267801Y-12695888D02*
X15258277Y-12714936D01*
X15258277Y-12714936D02*
X15248753Y-12724460D01*
X15248753Y-12724460D02*
X15229706Y-12733984D01*
X15229706Y-12733984D02*
X15201134Y-12733984D01*
X15382087Y-12733984D02*
X15363039Y-12724460D01*
X15363039Y-12724460D02*
X15353515Y-12705412D01*
X15353515Y-12705412D02*
X15353515Y-12533984D01*
X15534468Y-12724460D02*
X15515420Y-12733984D01*
X15515420Y-12733984D02*
X15477325Y-12733984D01*
X15477325Y-12733984D02*
X15458277Y-12724460D01*
X15458277Y-12724460D02*
X15448753Y-12705412D01*
X15448753Y-12705412D02*
X15448753Y-12629222D01*
X15448753Y-12629222D02*
X15458277Y-12610174D01*
X15458277Y-12610174D02*
X15477325Y-12600650D01*
X15477325Y-12600650D02*
X15515420Y-12600650D01*
X15515420Y-12600650D02*
X15534468Y-12610174D01*
X15534468Y-12610174D02*
X15543991Y-12629222D01*
X15543991Y-12629222D02*
X15543991Y-12648269D01*
X15543991Y-12648269D02*
X15448753Y-12667317D01*
X15620182Y-12724460D02*
X15639230Y-12733984D01*
X15639230Y-12733984D02*
X15677325Y-12733984D01*
X15677325Y-12733984D02*
X15696372Y-12724460D01*
X15696372Y-12724460D02*
X15705896Y-12705412D01*
X15705896Y-12705412D02*
X15705896Y-12695888D01*
X15705896Y-12695888D02*
X15696372Y-12676841D01*
X15696372Y-12676841D02*
X15677325Y-12667317D01*
X15677325Y-12667317D02*
X15648753Y-12667317D01*
X15648753Y-12667317D02*
X15629706Y-12657793D01*
X15629706Y-12657793D02*
X15620182Y-12638746D01*
X15620182Y-12638746D02*
X15620182Y-12629222D01*
X15620182Y-12629222D02*
X15629706Y-12610174D01*
X15629706Y-12610174D02*
X15648753Y-12600650D01*
X15648753Y-12600650D02*
X15677325Y-12600650D01*
X15677325Y-12600650D02*
X15696372Y-12610174D01*
X15772563Y-12810174D02*
X15782087Y-12800650D01*
X15782087Y-12800650D02*
X15801134Y-12772079D01*
X15801134Y-12772079D02*
X15810658Y-12753031D01*
X15810658Y-12753031D02*
X15820182Y-12724460D01*
X15820182Y-12724460D02*
X15829706Y-12676841D01*
X15829706Y-12676841D02*
X15829706Y-12638746D01*
X15829706Y-12638746D02*
X15820182Y-12591127D01*
X15820182Y-12591127D02*
X15810658Y-12562555D01*
X15810658Y-12562555D02*
X15801134Y-12543508D01*
X15801134Y-12543508D02*
X15782087Y-12514936D01*
X15782087Y-12514936D02*
X15772563Y-12505412D01*
X16134468Y-12810174D02*
X16124944Y-12800650D01*
X16124944Y-12800650D02*
X16105896Y-12772079D01*
X16105896Y-12772079D02*
X16096372Y-12753031D01*
X16096372Y-12753031D02*
X16086849Y-12724460D01*
X16086849Y-12724460D02*
X16077325Y-12676841D01*
X16077325Y-12676841D02*
X16077325Y-12638746D01*
X16077325Y-12638746D02*
X16086849Y-12591127D01*
X16086849Y-12591127D02*
X16096372Y-12562555D01*
X16096372Y-12562555D02*
X16105896Y-12543508D01*
X16105896Y-12543508D02*
X16124944Y-12514936D01*
X16124944Y-12514936D02*
X16134468Y-12505412D01*
X16210658Y-12600650D02*
X16210658Y-12733984D01*
X16210658Y-12619698D02*
X16220182Y-12610174D01*
X16220182Y-12610174D02*
X16239230Y-12600650D01*
X16239230Y-12600650D02*
X16267801Y-12600650D01*
X16267801Y-12600650D02*
X16286849Y-12610174D01*
X16286849Y-12610174D02*
X16296372Y-12629222D01*
X16296372Y-12629222D02*
X16296372Y-12733984D01*
X16420182Y-12733984D02*
X16401134Y-12724460D01*
X16401134Y-12724460D02*
X16391611Y-12714936D01*
X16391611Y-12714936D02*
X16382087Y-12695888D01*
X16382087Y-12695888D02*
X16382087Y-12638746D01*
X16382087Y-12638746D02*
X16391611Y-12619698D01*
X16391611Y-12619698D02*
X16401134Y-12610174D01*
X16401134Y-12610174D02*
X16420182Y-12600650D01*
X16420182Y-12600650D02*
X16448753Y-12600650D01*
X16448753Y-12600650D02*
X16467801Y-12610174D01*
X16467801Y-12610174D02*
X16477325Y-12619698D01*
X16477325Y-12619698D02*
X16486849Y-12638746D01*
X16486849Y-12638746D02*
X16486849Y-12695888D01*
X16486849Y-12695888D02*
X16477325Y-12714936D01*
X16477325Y-12714936D02*
X16467801Y-12724460D01*
X16467801Y-12724460D02*
X16448753Y-12733984D01*
X16448753Y-12733984D02*
X16420182Y-12733984D01*
X16543992Y-12600650D02*
X16620182Y-12600650D01*
X16572563Y-12533984D02*
X16572563Y-12705412D01*
X16572563Y-12705412D02*
X16582087Y-12724460D01*
X16582087Y-12724460D02*
X16601134Y-12733984D01*
X16601134Y-12733984D02*
X16620182Y-12733984D01*
X16839230Y-12600650D02*
X16839230Y-12800650D01*
X16839230Y-12610174D02*
X16858277Y-12600650D01*
X16858277Y-12600650D02*
X16896373Y-12600650D01*
X16896373Y-12600650D02*
X16915420Y-12610174D01*
X16915420Y-12610174D02*
X16924944Y-12619698D01*
X16924944Y-12619698D02*
X16934468Y-12638746D01*
X16934468Y-12638746D02*
X16934468Y-12695888D01*
X16934468Y-12695888D02*
X16924944Y-12714936D01*
X16924944Y-12714936D02*
X16915420Y-12724460D01*
X16915420Y-12724460D02*
X16896373Y-12733984D01*
X16896373Y-12733984D02*
X16858277Y-12733984D01*
X16858277Y-12733984D02*
X16839230Y-12724460D01*
X17048754Y-12733984D02*
X17029706Y-12724460D01*
X17029706Y-12724460D02*
X17020182Y-12705412D01*
X17020182Y-12705412D02*
X17020182Y-12533984D01*
X17210658Y-12733984D02*
X17210658Y-12629222D01*
X17210658Y-12629222D02*
X17201135Y-12610174D01*
X17201135Y-12610174D02*
X17182087Y-12600650D01*
X17182087Y-12600650D02*
X17143992Y-12600650D01*
X17143992Y-12600650D02*
X17124944Y-12610174D01*
X17210658Y-12724460D02*
X17191611Y-12733984D01*
X17191611Y-12733984D02*
X17143992Y-12733984D01*
X17143992Y-12733984D02*
X17124944Y-12724460D01*
X17124944Y-12724460D02*
X17115420Y-12705412D01*
X17115420Y-12705412D02*
X17115420Y-12686365D01*
X17115420Y-12686365D02*
X17124944Y-12667317D01*
X17124944Y-12667317D02*
X17143992Y-12657793D01*
X17143992Y-12657793D02*
X17191611Y-12657793D01*
X17191611Y-12657793D02*
X17210658Y-12648269D01*
X17277325Y-12600650D02*
X17353515Y-12600650D01*
X17305896Y-12533984D02*
X17305896Y-12705412D01*
X17305896Y-12705412D02*
X17315420Y-12724460D01*
X17315420Y-12724460D02*
X17334468Y-12733984D01*
X17334468Y-12733984D02*
X17353515Y-12733984D01*
X17496373Y-12724460D02*
X17477325Y-12733984D01*
X17477325Y-12733984D02*
X17439230Y-12733984D01*
X17439230Y-12733984D02*
X17420182Y-12724460D01*
X17420182Y-12724460D02*
X17410658Y-12705412D01*
X17410658Y-12705412D02*
X17410658Y-12629222D01*
X17410658Y-12629222D02*
X17420182Y-12610174D01*
X17420182Y-12610174D02*
X17439230Y-12600650D01*
X17439230Y-12600650D02*
X17477325Y-12600650D01*
X17477325Y-12600650D02*
X17496373Y-12610174D01*
X17496373Y-12610174D02*
X17505896Y-12629222D01*
X17505896Y-12629222D02*
X17505896Y-12648269D01*
X17505896Y-12648269D02*
X17410658Y-12667317D01*
X17677325Y-12733984D02*
X17677325Y-12533984D01*
X17677325Y-12724460D02*
X17658277Y-12733984D01*
X17658277Y-12733984D02*
X17620182Y-12733984D01*
X17620182Y-12733984D02*
X17601135Y-12724460D01*
X17601135Y-12724460D02*
X17591611Y-12714936D01*
X17591611Y-12714936D02*
X17582087Y-12695888D01*
X17582087Y-12695888D02*
X17582087Y-12638746D01*
X17582087Y-12638746D02*
X17591611Y-12619698D01*
X17591611Y-12619698D02*
X17601135Y-12610174D01*
X17601135Y-12610174D02*
X17620182Y-12600650D01*
X17620182Y-12600650D02*
X17658277Y-12600650D01*
X17658277Y-12600650D02*
X17677325Y-12610174D01*
X17753516Y-12810174D02*
X17763039Y-12800650D01*
X17763039Y-12800650D02*
X17782087Y-12772079D01*
X17782087Y-12772079D02*
X17791611Y-12753031D01*
X17791611Y-12753031D02*
X17801135Y-12724460D01*
X17801135Y-12724460D02*
X17810658Y-12676841D01*
X17810658Y-12676841D02*
X17810658Y-12638746D01*
X17810658Y-12638746D02*
X17801135Y-12591127D01*
X17801135Y-12591127D02*
X17791611Y-12562555D01*
X17791611Y-12562555D02*
X17782087Y-12543508D01*
X17782087Y-12543508D02*
X17763039Y-12514936D01*
X17763039Y-12514936D02*
X17753516Y-12505412D01*
M02*
