G04 #@! TF.GenerationSoftware,KiCad,Pcbnew,8.0.6-8.0.6-0~ubuntu24.04.1*
G04 #@! TF.CreationDate,2024-10-30T20:02:34+09:00*
G04 #@! TF.ProjectId,zatopos-ear-mic,7a61746f-706f-4732-9d65-61722d6d6963,rev?*
G04 #@! TF.SameCoordinates,Original*
G04 #@! TF.FileFunction,Legend,Top*
G04 #@! TF.FilePolarity,Positive*
%FSLAX46Y46*%
G04 Gerber Fmt 4.6, Leading zero omitted, Abs format (unit mm)*
G04 Created by KiCad (PCBNEW 8.0.6-8.0.6-0~ubuntu24.04.1) date 2024-10-30 20:02:34*
%MOMM*%
%LPD*%
G01*
G04 APERTURE LIST*
G04 Aperture macros list*
%AMRoundRect*
0 Rectangle with rounded corners*
0 $1 Rounding radius*
0 $2 $3 $4 $5 $6 $7 $8 $9 X,Y pos of 4 corners*
0 Add a 4 corners polygon primitive as box body*
4,1,4,$2,$3,$4,$5,$6,$7,$8,$9,$2,$3,0*
0 Add four circle primitives for the rounded corners*
1,1,$1+$1,$2,$3*
1,1,$1+$1,$4,$5*
1,1,$1+$1,$6,$7*
1,1,$1+$1,$8,$9*
0 Add four rect primitives between the rounded corners*
20,1,$1+$1,$2,$3,$4,$5,0*
20,1,$1+$1,$4,$5,$6,$7,0*
20,1,$1+$1,$6,$7,$8,$9,0*
20,1,$1+$1,$8,$9,$2,$3,0*%
G04 Aperture macros list end*
%ADD10C,0.160000*%
%ADD11C,0.120000*%
%ADD12C,0.153000*%
%ADD13C,0.000000*%
%ADD14RoundRect,0.250000X0.312500X0.625000X-0.312500X0.625000X-0.312500X-0.625000X0.312500X-0.625000X0*%
%ADD15RoundRect,0.250000X-0.312500X-0.625000X0.312500X-0.625000X0.312500X0.625000X-0.312500X0.625000X0*%
%ADD16RoundRect,0.250000X-0.625000X0.312500X-0.625000X-0.312500X0.625000X-0.312500X0.625000X0.312500X0*%
%ADD17RoundRect,0.250000X-0.600000X-0.725000X0.600000X-0.725000X0.600000X0.725000X-0.600000X0.725000X0*%
%ADD18O,1.700000X1.950000*%
%ADD19RoundRect,0.250000X-0.325000X-0.650000X0.325000X-0.650000X0.325000X0.650000X-0.325000X0.650000X0*%
%ADD20C,1.524000*%
%ADD21C,2.200000*%
%ADD22RoundRect,0.250000X0.625000X-0.312500X0.625000X0.312500X-0.625000X0.312500X-0.625000X-0.312500X0*%
%ADD23R,1.600000X1.600000*%
%ADD24O,1.600000X1.600000*%
%ADD25RoundRect,0.250000X0.325000X0.650000X-0.325000X0.650000X-0.325000X-0.650000X0.325000X-0.650000X0*%
%ADD26C,1.500000*%
G04 APERTURE END LIST*
D10*
X162890977Y-109412889D02*
X162890977Y-108212889D01*
X163005263Y-108955747D02*
X163348120Y-109412889D01*
X163348120Y-108612889D02*
X162890977Y-109070032D01*
X164376692Y-109412889D02*
X164376692Y-108784318D01*
X164376692Y-108784318D02*
X164319549Y-108670032D01*
X164319549Y-108670032D02*
X164205263Y-108612889D01*
X164205263Y-108612889D02*
X163976692Y-108612889D01*
X163976692Y-108612889D02*
X163862406Y-108670032D01*
X164376692Y-109355747D02*
X164262406Y-109412889D01*
X164262406Y-109412889D02*
X163976692Y-109412889D01*
X163976692Y-109412889D02*
X163862406Y-109355747D01*
X163862406Y-109355747D02*
X163805263Y-109241461D01*
X163805263Y-109241461D02*
X163805263Y-109127175D01*
X163805263Y-109127175D02*
X163862406Y-109012889D01*
X163862406Y-109012889D02*
X163976692Y-108955747D01*
X163976692Y-108955747D02*
X164262406Y-108955747D01*
X164262406Y-108955747D02*
X164376692Y-108898604D01*
X164833834Y-108612889D02*
X165462406Y-108612889D01*
X165462406Y-108612889D02*
X164833834Y-109412889D01*
X164833834Y-109412889D02*
X165462406Y-109412889D01*
X166376692Y-109355747D02*
X166262406Y-109412889D01*
X166262406Y-109412889D02*
X166033835Y-109412889D01*
X166033835Y-109412889D02*
X165919549Y-109355747D01*
X165919549Y-109355747D02*
X165862406Y-109241461D01*
X165862406Y-109241461D02*
X165862406Y-108784318D01*
X165862406Y-108784318D02*
X165919549Y-108670032D01*
X165919549Y-108670032D02*
X166033835Y-108612889D01*
X166033835Y-108612889D02*
X166262406Y-108612889D01*
X166262406Y-108612889D02*
X166376692Y-108670032D01*
X166376692Y-108670032D02*
X166433835Y-108784318D01*
X166433835Y-108784318D02*
X166433835Y-108898604D01*
X166433835Y-108898604D02*
X165862406Y-109012889D01*
X166776691Y-108612889D02*
X167233834Y-108612889D01*
X166948120Y-108212889D02*
X166948120Y-109241461D01*
X166948120Y-109241461D02*
X167005263Y-109355747D01*
X167005263Y-109355747D02*
X167119548Y-109412889D01*
X167119548Y-109412889D02*
X167233834Y-109412889D01*
X168148120Y-109412889D02*
X168148120Y-108784318D01*
X168148120Y-108784318D02*
X168090977Y-108670032D01*
X168090977Y-108670032D02*
X167976691Y-108612889D01*
X167976691Y-108612889D02*
X167748120Y-108612889D01*
X167748120Y-108612889D02*
X167633834Y-108670032D01*
X168148120Y-109355747D02*
X168033834Y-109412889D01*
X168033834Y-109412889D02*
X167748120Y-109412889D01*
X167748120Y-109412889D02*
X167633834Y-109355747D01*
X167633834Y-109355747D02*
X167576691Y-109241461D01*
X167576691Y-109241461D02*
X167576691Y-109127175D01*
X167576691Y-109127175D02*
X167633834Y-109012889D01*
X167633834Y-109012889D02*
X167748120Y-108955747D01*
X167748120Y-108955747D02*
X168033834Y-108955747D01*
X168033834Y-108955747D02*
X168148120Y-108898604D01*
X168548119Y-108612889D02*
X169005262Y-108612889D01*
X168719548Y-108212889D02*
X168719548Y-109241461D01*
X168719548Y-109241461D02*
X168776691Y-109355747D01*
X168776691Y-109355747D02*
X168890976Y-109412889D01*
X168890976Y-109412889D02*
X169005262Y-109412889D01*
X169348119Y-109355747D02*
X169462405Y-109412889D01*
X169462405Y-109412889D02*
X169690976Y-109412889D01*
X169690976Y-109412889D02*
X169805262Y-109355747D01*
X169805262Y-109355747D02*
X169862405Y-109241461D01*
X169862405Y-109241461D02*
X169862405Y-109184318D01*
X169862405Y-109184318D02*
X169805262Y-109070032D01*
X169805262Y-109070032D02*
X169690976Y-109012889D01*
X169690976Y-109012889D02*
X169519548Y-109012889D01*
X169519548Y-109012889D02*
X169405262Y-108955747D01*
X169405262Y-108955747D02*
X169348119Y-108841461D01*
X169348119Y-108841461D02*
X169348119Y-108784318D01*
X169348119Y-108784318D02*
X169405262Y-108670032D01*
X169405262Y-108670032D02*
X169519548Y-108612889D01*
X169519548Y-108612889D02*
X169690976Y-108612889D01*
X169690976Y-108612889D02*
X169805262Y-108670032D01*
X170890977Y-108612889D02*
X170890977Y-109412889D01*
X170376691Y-108612889D02*
X170376691Y-109241461D01*
X170376691Y-109241461D02*
X170433834Y-109355747D01*
X170433834Y-109355747D02*
X170548119Y-109412889D01*
X170548119Y-109412889D02*
X170719548Y-109412889D01*
X170719548Y-109412889D02*
X170833834Y-109355747D01*
X170833834Y-109355747D02*
X170890977Y-109298604D01*
X171462405Y-109298604D02*
X171519548Y-109355747D01*
X171519548Y-109355747D02*
X171462405Y-109412889D01*
X171462405Y-109412889D02*
X171405262Y-109355747D01*
X171405262Y-109355747D02*
X171462405Y-109298604D01*
X171462405Y-109298604D02*
X171462405Y-109412889D01*
X171462405Y-108670032D02*
X171519548Y-108727175D01*
X171519548Y-108727175D02*
X171462405Y-108784318D01*
X171462405Y-108784318D02*
X171405262Y-108727175D01*
X171405262Y-108727175D02*
X171462405Y-108670032D01*
X171462405Y-108670032D02*
X171462405Y-108784318D01*
X162776691Y-110544822D02*
X163405263Y-110544822D01*
X163405263Y-110544822D02*
X162776691Y-111344822D01*
X162776691Y-111344822D02*
X163405263Y-111344822D01*
X164376692Y-111344822D02*
X164376692Y-110716251D01*
X164376692Y-110716251D02*
X164319549Y-110601965D01*
X164319549Y-110601965D02*
X164205263Y-110544822D01*
X164205263Y-110544822D02*
X163976692Y-110544822D01*
X163976692Y-110544822D02*
X163862406Y-110601965D01*
X164376692Y-111287680D02*
X164262406Y-111344822D01*
X164262406Y-111344822D02*
X163976692Y-111344822D01*
X163976692Y-111344822D02*
X163862406Y-111287680D01*
X163862406Y-111287680D02*
X163805263Y-111173394D01*
X163805263Y-111173394D02*
X163805263Y-111059108D01*
X163805263Y-111059108D02*
X163862406Y-110944822D01*
X163862406Y-110944822D02*
X163976692Y-110887680D01*
X163976692Y-110887680D02*
X164262406Y-110887680D01*
X164262406Y-110887680D02*
X164376692Y-110830537D01*
X164776691Y-110544822D02*
X165233834Y-110544822D01*
X164948120Y-110144822D02*
X164948120Y-111173394D01*
X164948120Y-111173394D02*
X165005263Y-111287680D01*
X165005263Y-111287680D02*
X165119548Y-111344822D01*
X165119548Y-111344822D02*
X165233834Y-111344822D01*
X165805262Y-111344822D02*
X165690977Y-111287680D01*
X165690977Y-111287680D02*
X165633834Y-111230537D01*
X165633834Y-111230537D02*
X165576691Y-111116251D01*
X165576691Y-111116251D02*
X165576691Y-110773394D01*
X165576691Y-110773394D02*
X165633834Y-110659108D01*
X165633834Y-110659108D02*
X165690977Y-110601965D01*
X165690977Y-110601965D02*
X165805262Y-110544822D01*
X165805262Y-110544822D02*
X165976691Y-110544822D01*
X165976691Y-110544822D02*
X166090977Y-110601965D01*
X166090977Y-110601965D02*
X166148120Y-110659108D01*
X166148120Y-110659108D02*
X166205262Y-110773394D01*
X166205262Y-110773394D02*
X166205262Y-111116251D01*
X166205262Y-111116251D02*
X166148120Y-111230537D01*
X166148120Y-111230537D02*
X166090977Y-111287680D01*
X166090977Y-111287680D02*
X165976691Y-111344822D01*
X165976691Y-111344822D02*
X165805262Y-111344822D01*
X166719548Y-110544822D02*
X166719548Y-111744822D01*
X166719548Y-110601965D02*
X166833834Y-110544822D01*
X166833834Y-110544822D02*
X167062405Y-110544822D01*
X167062405Y-110544822D02*
X167176691Y-110601965D01*
X167176691Y-110601965D02*
X167233834Y-110659108D01*
X167233834Y-110659108D02*
X167290976Y-110773394D01*
X167290976Y-110773394D02*
X167290976Y-111116251D01*
X167290976Y-111116251D02*
X167233834Y-111230537D01*
X167233834Y-111230537D02*
X167176691Y-111287680D01*
X167176691Y-111287680D02*
X167062405Y-111344822D01*
X167062405Y-111344822D02*
X166833834Y-111344822D01*
X166833834Y-111344822D02*
X166719548Y-111287680D01*
X167976690Y-111344822D02*
X167862405Y-111287680D01*
X167862405Y-111287680D02*
X167805262Y-111230537D01*
X167805262Y-111230537D02*
X167748119Y-111116251D01*
X167748119Y-111116251D02*
X167748119Y-110773394D01*
X167748119Y-110773394D02*
X167805262Y-110659108D01*
X167805262Y-110659108D02*
X167862405Y-110601965D01*
X167862405Y-110601965D02*
X167976690Y-110544822D01*
X167976690Y-110544822D02*
X168148119Y-110544822D01*
X168148119Y-110544822D02*
X168262405Y-110601965D01*
X168262405Y-110601965D02*
X168319548Y-110659108D01*
X168319548Y-110659108D02*
X168376690Y-110773394D01*
X168376690Y-110773394D02*
X168376690Y-111116251D01*
X168376690Y-111116251D02*
X168319548Y-111230537D01*
X168319548Y-111230537D02*
X168262405Y-111287680D01*
X168262405Y-111287680D02*
X168148119Y-111344822D01*
X168148119Y-111344822D02*
X167976690Y-111344822D01*
X168833833Y-111287680D02*
X168948119Y-111344822D01*
X168948119Y-111344822D02*
X169176690Y-111344822D01*
X169176690Y-111344822D02*
X169290976Y-111287680D01*
X169290976Y-111287680D02*
X169348119Y-111173394D01*
X169348119Y-111173394D02*
X169348119Y-111116251D01*
X169348119Y-111116251D02*
X169290976Y-111001965D01*
X169290976Y-111001965D02*
X169176690Y-110944822D01*
X169176690Y-110944822D02*
X169005262Y-110944822D01*
X169005262Y-110944822D02*
X168890976Y-110887680D01*
X168890976Y-110887680D02*
X168833833Y-110773394D01*
X168833833Y-110773394D02*
X168833833Y-110716251D01*
X168833833Y-110716251D02*
X168890976Y-110601965D01*
X168890976Y-110601965D02*
X169005262Y-110544822D01*
X169005262Y-110544822D02*
X169176690Y-110544822D01*
X169176690Y-110544822D02*
X169290976Y-110601965D01*
X169862405Y-110887680D02*
X170776691Y-110887680D01*
X171805262Y-111287680D02*
X171690976Y-111344822D01*
X171690976Y-111344822D02*
X171462405Y-111344822D01*
X171462405Y-111344822D02*
X171348119Y-111287680D01*
X171348119Y-111287680D02*
X171290976Y-111173394D01*
X171290976Y-111173394D02*
X171290976Y-110716251D01*
X171290976Y-110716251D02*
X171348119Y-110601965D01*
X171348119Y-110601965D02*
X171462405Y-110544822D01*
X171462405Y-110544822D02*
X171690976Y-110544822D01*
X171690976Y-110544822D02*
X171805262Y-110601965D01*
X171805262Y-110601965D02*
X171862405Y-110716251D01*
X171862405Y-110716251D02*
X171862405Y-110830537D01*
X171862405Y-110830537D02*
X171290976Y-110944822D01*
X172890976Y-111344822D02*
X172890976Y-110716251D01*
X172890976Y-110716251D02*
X172833833Y-110601965D01*
X172833833Y-110601965D02*
X172719547Y-110544822D01*
X172719547Y-110544822D02*
X172490976Y-110544822D01*
X172490976Y-110544822D02*
X172376690Y-110601965D01*
X172890976Y-111287680D02*
X172776690Y-111344822D01*
X172776690Y-111344822D02*
X172490976Y-111344822D01*
X172490976Y-111344822D02*
X172376690Y-111287680D01*
X172376690Y-111287680D02*
X172319547Y-111173394D01*
X172319547Y-111173394D02*
X172319547Y-111059108D01*
X172319547Y-111059108D02*
X172376690Y-110944822D01*
X172376690Y-110944822D02*
X172490976Y-110887680D01*
X172490976Y-110887680D02*
X172776690Y-110887680D01*
X172776690Y-110887680D02*
X172890976Y-110830537D01*
X173462404Y-111344822D02*
X173462404Y-110544822D01*
X173462404Y-110773394D02*
X173519547Y-110659108D01*
X173519547Y-110659108D02*
X173576690Y-110601965D01*
X173576690Y-110601965D02*
X173690975Y-110544822D01*
X173690975Y-110544822D02*
X173805261Y-110544822D01*
X174205261Y-110887680D02*
X175119547Y-110887680D01*
X175690975Y-111344822D02*
X175690975Y-110544822D01*
X175690975Y-110659108D02*
X175748118Y-110601965D01*
X175748118Y-110601965D02*
X175862403Y-110544822D01*
X175862403Y-110544822D02*
X176033832Y-110544822D01*
X176033832Y-110544822D02*
X176148118Y-110601965D01*
X176148118Y-110601965D02*
X176205261Y-110716251D01*
X176205261Y-110716251D02*
X176205261Y-111344822D01*
X176205261Y-110716251D02*
X176262403Y-110601965D01*
X176262403Y-110601965D02*
X176376689Y-110544822D01*
X176376689Y-110544822D02*
X176548118Y-110544822D01*
X176548118Y-110544822D02*
X176662403Y-110601965D01*
X176662403Y-110601965D02*
X176719546Y-110716251D01*
X176719546Y-110716251D02*
X176719546Y-111344822D01*
X177290975Y-111344822D02*
X177290975Y-110544822D01*
X177290975Y-110144822D02*
X177233832Y-110201965D01*
X177233832Y-110201965D02*
X177290975Y-110259108D01*
X177290975Y-110259108D02*
X177348118Y-110201965D01*
X177348118Y-110201965D02*
X177290975Y-110144822D01*
X177290975Y-110144822D02*
X177290975Y-110259108D01*
X178376690Y-111287680D02*
X178262404Y-111344822D01*
X178262404Y-111344822D02*
X178033832Y-111344822D01*
X178033832Y-111344822D02*
X177919547Y-111287680D01*
X177919547Y-111287680D02*
X177862404Y-111230537D01*
X177862404Y-111230537D02*
X177805261Y-111116251D01*
X177805261Y-111116251D02*
X177805261Y-110773394D01*
X177805261Y-110773394D02*
X177862404Y-110659108D01*
X177862404Y-110659108D02*
X177919547Y-110601965D01*
X177919547Y-110601965D02*
X178033832Y-110544822D01*
X178033832Y-110544822D02*
X178262404Y-110544822D01*
X178262404Y-110544822D02*
X178376690Y-110601965D01*
X160166666Y-113454299D02*
X160166666Y-114168584D01*
X160166666Y-114168584D02*
X160119047Y-114311441D01*
X160119047Y-114311441D02*
X160023809Y-114406680D01*
X160023809Y-114406680D02*
X159880952Y-114454299D01*
X159880952Y-114454299D02*
X159785714Y-114454299D01*
X160595238Y-113549537D02*
X160642857Y-113501918D01*
X160642857Y-113501918D02*
X160738095Y-113454299D01*
X160738095Y-113454299D02*
X160976190Y-113454299D01*
X160976190Y-113454299D02*
X161071428Y-113501918D01*
X161071428Y-113501918D02*
X161119047Y-113549537D01*
X161119047Y-113549537D02*
X161166666Y-113644775D01*
X161166666Y-113644775D02*
X161166666Y-113740013D01*
X161166666Y-113740013D02*
X161119047Y-113882870D01*
X161119047Y-113882870D02*
X160547619Y-114454299D01*
X160547619Y-114454299D02*
X161166666Y-114454299D01*
X132904761Y-103954299D02*
X132571428Y-103478108D01*
X132333333Y-103954299D02*
X132333333Y-102954299D01*
X132333333Y-102954299D02*
X132714285Y-102954299D01*
X132714285Y-102954299D02*
X132809523Y-103001918D01*
X132809523Y-103001918D02*
X132857142Y-103049537D01*
X132857142Y-103049537D02*
X132904761Y-103144775D01*
X132904761Y-103144775D02*
X132904761Y-103287632D01*
X132904761Y-103287632D02*
X132857142Y-103382870D01*
X132857142Y-103382870D02*
X132809523Y-103430489D01*
X132809523Y-103430489D02*
X132714285Y-103478108D01*
X132714285Y-103478108D02*
X132333333Y-103478108D01*
X133190476Y-102954299D02*
X133523809Y-103954299D01*
X133523809Y-103954299D02*
X133857142Y-102954299D01*
X134142857Y-103049537D02*
X134190476Y-103001918D01*
X134190476Y-103001918D02*
X134285714Y-102954299D01*
X134285714Y-102954299D02*
X134523809Y-102954299D01*
X134523809Y-102954299D02*
X134619047Y-103001918D01*
X134619047Y-103001918D02*
X134666666Y-103049537D01*
X134666666Y-103049537D02*
X134714285Y-103144775D01*
X134714285Y-103144775D02*
X134714285Y-103240013D01*
X134714285Y-103240013D02*
X134666666Y-103382870D01*
X134666666Y-103382870D02*
X134095238Y-103954299D01*
X134095238Y-103954299D02*
X134714285Y-103954299D01*
X150238095Y-96584299D02*
X150238095Y-97393822D01*
X150238095Y-97393822D02*
X150285714Y-97489060D01*
X150285714Y-97489060D02*
X150333333Y-97536680D01*
X150333333Y-97536680D02*
X150428571Y-97584299D01*
X150428571Y-97584299D02*
X150619047Y-97584299D01*
X150619047Y-97584299D02*
X150714285Y-97536680D01*
X150714285Y-97536680D02*
X150761904Y-97489060D01*
X150761904Y-97489060D02*
X150809523Y-97393822D01*
X150809523Y-97393822D02*
X150809523Y-96584299D01*
X151809523Y-97584299D02*
X151238095Y-97584299D01*
X151523809Y-97584299D02*
X151523809Y-96584299D01*
X151523809Y-96584299D02*
X151428571Y-96727156D01*
X151428571Y-96727156D02*
X151333333Y-96822394D01*
X151333333Y-96822394D02*
X151238095Y-96870013D01*
X155738095Y-103144299D02*
X155738095Y-103953822D01*
X155738095Y-103953822D02*
X155785714Y-104049060D01*
X155785714Y-104049060D02*
X155833333Y-104096680D01*
X155833333Y-104096680D02*
X155928571Y-104144299D01*
X155928571Y-104144299D02*
X156119047Y-104144299D01*
X156119047Y-104144299D02*
X156214285Y-104096680D01*
X156214285Y-104096680D02*
X156261904Y-104049060D01*
X156261904Y-104049060D02*
X156309523Y-103953822D01*
X156309523Y-103953822D02*
X156309523Y-103144299D01*
X156738095Y-103239537D02*
X156785714Y-103191918D01*
X156785714Y-103191918D02*
X156880952Y-103144299D01*
X156880952Y-103144299D02*
X157119047Y-103144299D01*
X157119047Y-103144299D02*
X157214285Y-103191918D01*
X157214285Y-103191918D02*
X157261904Y-103239537D01*
X157261904Y-103239537D02*
X157309523Y-103334775D01*
X157309523Y-103334775D02*
X157309523Y-103430013D01*
X157309523Y-103430013D02*
X157261904Y-103572870D01*
X157261904Y-103572870D02*
X156690476Y-104144299D01*
X156690476Y-104144299D02*
X157309523Y-104144299D01*
X165904761Y-103954299D02*
X165571428Y-103478108D01*
X165333333Y-103954299D02*
X165333333Y-102954299D01*
X165333333Y-102954299D02*
X165714285Y-102954299D01*
X165714285Y-102954299D02*
X165809523Y-103001918D01*
X165809523Y-103001918D02*
X165857142Y-103049537D01*
X165857142Y-103049537D02*
X165904761Y-103144775D01*
X165904761Y-103144775D02*
X165904761Y-103287632D01*
X165904761Y-103287632D02*
X165857142Y-103382870D01*
X165857142Y-103382870D02*
X165809523Y-103430489D01*
X165809523Y-103430489D02*
X165714285Y-103478108D01*
X165714285Y-103478108D02*
X165333333Y-103478108D01*
X166190476Y-102954299D02*
X166523809Y-103954299D01*
X166523809Y-103954299D02*
X166857142Y-102954299D01*
X167714285Y-103954299D02*
X167142857Y-103954299D01*
X167428571Y-103954299D02*
X167428571Y-102954299D01*
X167428571Y-102954299D02*
X167333333Y-103097156D01*
X167333333Y-103097156D02*
X167238095Y-103192394D01*
X167238095Y-103192394D02*
X167142857Y-103240013D01*
D11*
X141727064Y-85590000D02*
X140272936Y-85590000D01*
X141727064Y-87410000D02*
X140272936Y-87410000D01*
X143772936Y-82590000D02*
X145227064Y-82590000D01*
X143772936Y-84410000D02*
X145227064Y-84410000D01*
X172590000Y-99272936D02*
X172590000Y-100727064D01*
X174410000Y-99272936D02*
X174410000Y-100727064D01*
X140900000Y-110725000D02*
X140900000Y-111975000D01*
X141190000Y-111015000D02*
X141190000Y-116985000D01*
X141190000Y-116985000D02*
X158810000Y-116985000D01*
X141200000Y-111025000D02*
X141200000Y-111775000D01*
X141200000Y-111775000D02*
X143000000Y-111775000D01*
X141200000Y-113275000D02*
X141950000Y-113275000D01*
X141950000Y-113275000D02*
X141950000Y-116225000D01*
X141950000Y-116225000D02*
X150000000Y-116225000D01*
X142150000Y-110725000D02*
X140900000Y-110725000D01*
X143000000Y-111025000D02*
X141200000Y-111025000D01*
X143000000Y-111775000D02*
X143000000Y-111025000D01*
X144500000Y-111025000D02*
X144500000Y-111775000D01*
X144500000Y-111775000D02*
X155500000Y-111775000D01*
X155500000Y-111025000D02*
X144500000Y-111025000D01*
X155500000Y-111775000D02*
X155500000Y-111025000D01*
X157000000Y-111025000D02*
X157000000Y-111775000D01*
X157000000Y-111775000D02*
X158800000Y-111775000D01*
X158050000Y-113275000D02*
X158050000Y-116225000D01*
X158050000Y-116225000D02*
X150000000Y-116225000D01*
X158800000Y-111025000D02*
X157000000Y-111025000D01*
X158800000Y-111775000D02*
X158800000Y-111025000D01*
X158800000Y-113275000D02*
X158050000Y-113275000D01*
X158810000Y-111015000D02*
X141190000Y-111015000D01*
X158810000Y-116985000D02*
X158810000Y-111015000D01*
X158288748Y-92590000D02*
X159711252Y-92590000D01*
X158288748Y-94410000D02*
X159711252Y-94410000D01*
D12*
X130100000Y-95000000D02*
X136900000Y-95000000D01*
X136900000Y-101800000D01*
X130100000Y-101800000D01*
X130100000Y-95000000D01*
D11*
X141727064Y-92590000D02*
X140272936Y-92590000D01*
X141727064Y-94410000D02*
X140272936Y-94410000D01*
X158272936Y-85590000D02*
X159727064Y-85590000D01*
X158272936Y-87410000D02*
X159727064Y-87410000D01*
X125590000Y-100727064D02*
X125590000Y-99272936D01*
X127410000Y-100727064D02*
X127410000Y-99272936D01*
X144850000Y-85790000D02*
X144850000Y-96190000D01*
X144850000Y-96190000D02*
X155130000Y-96190000D01*
X147340000Y-85850000D02*
X147340000Y-96130000D01*
X147340000Y-96130000D02*
X148990000Y-96130000D01*
X150990000Y-96130000D02*
X152640000Y-96130000D01*
X152640000Y-85850000D02*
X147340000Y-85850000D01*
X152640000Y-96130000D02*
X152640000Y-85850000D01*
X155130000Y-85790000D02*
X144850000Y-85790000D01*
X155130000Y-96190000D02*
X155130000Y-85790000D01*
X148990000Y-96130000D02*
G75*
G02*
X150990000Y-96130000I1000000J0D01*
G01*
X144790000Y-98550000D02*
X144790000Y-108830000D01*
X144790000Y-108830000D02*
X155190000Y-108830000D01*
X144850000Y-101040000D02*
X144850000Y-106340000D01*
X144850000Y-106340000D02*
X155130000Y-106340000D01*
X155130000Y-101040000D02*
X144850000Y-101040000D01*
X155130000Y-102690000D02*
X155130000Y-101040000D01*
X155130000Y-106340000D02*
X155130000Y-104690000D01*
X155190000Y-98550000D02*
X144790000Y-98550000D01*
X155190000Y-108830000D02*
X155190000Y-98550000D01*
X155130000Y-104690000D02*
G75*
G02*
X155130000Y-102690000I0J1000000D01*
G01*
D12*
X163100000Y-95000000D02*
X169900000Y-95000000D01*
X169900000Y-101800000D01*
X163100000Y-101800000D01*
X163100000Y-95000000D01*
D11*
X159727064Y-95590000D02*
X158272936Y-95590000D01*
X159727064Y-97410000D02*
X158272936Y-97410000D01*
X159727064Y-88590000D02*
X158272936Y-88590000D01*
X159727064Y-90410000D02*
X158272936Y-90410000D01*
D13*
G36*
X130366742Y-104734696D02*
G01*
X130746806Y-104775336D01*
X131119110Y-104841889D01*
X131482675Y-104933764D01*
X131836525Y-105050373D01*
X132179679Y-105191124D01*
X132511161Y-105355430D01*
X132829992Y-105542699D01*
X133135193Y-105752343D01*
X133425787Y-105983771D01*
X133700794Y-106236395D01*
X133959238Y-106509624D01*
X134200140Y-106802868D01*
X134422520Y-107115539D01*
X134489901Y-107220061D01*
X134536106Y-107296127D01*
X134584364Y-107380184D01*
X134632826Y-107468524D01*
X134679641Y-107557441D01*
X134722959Y-107643225D01*
X134760931Y-107722168D01*
X134791706Y-107790564D01*
X134813434Y-107844702D01*
X134824265Y-107880877D01*
X134824942Y-107891568D01*
X134819754Y-107907623D01*
X134805608Y-107948223D01*
X134782921Y-108012216D01*
X134752111Y-108098449D01*
X134713596Y-108205767D01*
X134667791Y-108333019D01*
X134615116Y-108479050D01*
X134555986Y-108642708D01*
X134490820Y-108822839D01*
X134420035Y-109018290D01*
X134344048Y-109227907D01*
X134263277Y-109450538D01*
X134178139Y-109685029D01*
X134089051Y-109930226D01*
X133996431Y-110184978D01*
X133900696Y-110448129D01*
X133802263Y-110718528D01*
X133742847Y-110881666D01*
X133643150Y-111155439D01*
X133545980Y-111422449D01*
X133451747Y-111681554D01*
X133360865Y-111931616D01*
X133273747Y-112171493D01*
X133190803Y-112400045D01*
X133112448Y-112616134D01*
X133039092Y-112818618D01*
X132971150Y-113006359D01*
X132909033Y-113178215D01*
X132853153Y-113333046D01*
X132803923Y-113469714D01*
X132761755Y-113587078D01*
X132727062Y-113683997D01*
X132700257Y-113759332D01*
X132681751Y-113811943D01*
X132671957Y-113840690D01*
X132670437Y-113846019D01*
X132682160Y-113842861D01*
X132711484Y-113824849D01*
X132754946Y-113794584D01*
X132809081Y-113754667D01*
X132870428Y-113707697D01*
X132935523Y-113656277D01*
X133000901Y-113603007D01*
X133057027Y-113555713D01*
X133133590Y-113487029D01*
X133221485Y-113403303D01*
X133315479Y-113309932D01*
X133410338Y-113212312D01*
X133500827Y-113115841D01*
X133581713Y-113025914D01*
X133647761Y-112947930D01*
X133653956Y-112940237D01*
X133867765Y-112652373D01*
X134056930Y-112353718D01*
X134221720Y-112043625D01*
X134362403Y-111721450D01*
X134479249Y-111386547D01*
X134572527Y-111038272D01*
X134642505Y-110675980D01*
X134665860Y-110512924D01*
X134670228Y-110465791D01*
X134674377Y-110396418D01*
X134678115Y-110309922D01*
X134681250Y-110211419D01*
X134683588Y-110106026D01*
X134684872Y-110007332D01*
X134688048Y-109624842D01*
X134877869Y-109101427D01*
X134919179Y-108988148D01*
X134957862Y-108883284D01*
X134992886Y-108789541D01*
X135023221Y-108709625D01*
X135047836Y-108646239D01*
X135065700Y-108602091D01*
X135075781Y-108579885D01*
X135077421Y-108577751D01*
X135084061Y-108583563D01*
X135092410Y-108603070D01*
X135103182Y-108638897D01*
X135117091Y-108693668D01*
X135134852Y-108770007D01*
X135157179Y-108870538D01*
X135157404Y-108871567D01*
X135224259Y-109240199D01*
X135264405Y-109611201D01*
X135278154Y-109983030D01*
X135265819Y-110354144D01*
X135227711Y-110723001D01*
X135164143Y-111088059D01*
X135075426Y-111447775D01*
X134961873Y-111800607D01*
X134823796Y-112145012D01*
X134661506Y-112479450D01*
X134475316Y-112802376D01*
X134312719Y-113046659D01*
X134140869Y-113273531D01*
X133947431Y-113500303D01*
X133737680Y-113721699D01*
X133516890Y-113932445D01*
X133290334Y-114127267D01*
X133063289Y-114300891D01*
X133046659Y-114312719D01*
X132746651Y-114509190D01*
X132429588Y-114686822D01*
X132100332Y-114843148D01*
X131763743Y-114975702D01*
X131689799Y-115001225D01*
X131624826Y-115022955D01*
X131569729Y-115041141D01*
X131529391Y-115054189D01*
X131508698Y-115060505D01*
X131507083Y-115060851D01*
X131505755Y-115049649D01*
X131509541Y-115030075D01*
X131514833Y-115014784D01*
X131529108Y-114974827D01*
X131551990Y-114911245D01*
X131583101Y-114825077D01*
X131622065Y-114717362D01*
X131668502Y-114589141D01*
X131722037Y-114441451D01*
X131782292Y-114275332D01*
X131848889Y-114091825D01*
X131921451Y-113891968D01*
X131999601Y-113676800D01*
X132082960Y-113447362D01*
X132171153Y-113204692D01*
X132263800Y-112949830D01*
X132360526Y-112683815D01*
X132460952Y-112407687D01*
X132564701Y-112122485D01*
X132671396Y-111829248D01*
X132780659Y-111529016D01*
X132828966Y-111396299D01*
X134140461Y-107793297D01*
X134086074Y-107696406D01*
X133909453Y-107408857D01*
X133709032Y-107131985D01*
X133487052Y-106868087D01*
X133245756Y-106619462D01*
X132987383Y-106388406D01*
X132714176Y-106177218D01*
X132428376Y-105988194D01*
X132407323Y-105975472D01*
X132221265Y-105868489D01*
X132041112Y-105775354D01*
X131858590Y-105692305D01*
X131665422Y-105615579D01*
X131453331Y-105541415D01*
X131449865Y-105540271D01*
X131110123Y-105442444D01*
X130765251Y-105371131D01*
X130416858Y-105326331D01*
X130066550Y-105308044D01*
X129715938Y-105316270D01*
X129366629Y-105351009D01*
X129020231Y-105412261D01*
X128678353Y-105500026D01*
X128550134Y-105540271D01*
X128262808Y-105643781D01*
X127993572Y-105759492D01*
X127736935Y-105890375D01*
X127487405Y-106039399D01*
X127239492Y-106209533D01*
X127059235Y-106346514D01*
X126995966Y-106399459D01*
X126918891Y-106468742D01*
X126832243Y-106550137D01*
X126740254Y-106639413D01*
X126647156Y-106732344D01*
X126557181Y-106824701D01*
X126474560Y-106912255D01*
X126403526Y-106990779D01*
X126348312Y-107056044D01*
X126345342Y-107059763D01*
X126128588Y-107353613D01*
X125936962Y-107658224D01*
X125770414Y-107973713D01*
X125628896Y-108300197D01*
X125512360Y-108637791D01*
X125420757Y-108986615D01*
X125354040Y-109346784D01*
X125333511Y-109500754D01*
X125326924Y-109575614D01*
X125321890Y-109672024D01*
X125318410Y-109784223D01*
X125316483Y-109906449D01*
X125316110Y-110032940D01*
X125317290Y-110157934D01*
X125320024Y-110275671D01*
X125324311Y-110380388D01*
X125330152Y-110466324D01*
X125333511Y-110499246D01*
X125389840Y-110864193D01*
X125471033Y-111217745D01*
X125577139Y-111560020D01*
X125708206Y-111891135D01*
X125864284Y-112211206D01*
X126045419Y-112520351D01*
X126251662Y-112818686D01*
X126345342Y-112940237D01*
X126399370Y-113004483D01*
X126469495Y-113082267D01*
X126551485Y-113169358D01*
X126641107Y-113261529D01*
X126734130Y-113354552D01*
X126826322Y-113444198D01*
X126913450Y-113526239D01*
X126991283Y-113596447D01*
X127055589Y-113650595D01*
X127059235Y-113653486D01*
X127329799Y-113854326D01*
X127600121Y-114029414D01*
X127872526Y-114180234D01*
X127928498Y-114208124D01*
X127989265Y-114237880D01*
X128040648Y-114263116D01*
X128077929Y-114281506D01*
X128096388Y-114290730D01*
X128097456Y-114291299D01*
X128094618Y-114304322D01*
X128083919Y-114338397D01*
X128066998Y-114388922D01*
X128045495Y-114451293D01*
X128021047Y-114520911D01*
X127995293Y-114593171D01*
X127969873Y-114663473D01*
X127946425Y-114727214D01*
X127926589Y-114779792D01*
X127912002Y-114816605D01*
X127904785Y-114832345D01*
X127889775Y-114831876D01*
X127854413Y-114819776D01*
X127802205Y-114797795D01*
X127736658Y-114767687D01*
X127661279Y-114731205D01*
X127579574Y-114690099D01*
X127495048Y-114646123D01*
X127411210Y-114601029D01*
X127331563Y-114556569D01*
X127259617Y-114514496D01*
X127220061Y-114490155D01*
X126898467Y-114271776D01*
X126596798Y-114035070D01*
X126315459Y-113780479D01*
X126054857Y-113508443D01*
X125815396Y-113219402D01*
X125597482Y-112913797D01*
X125401521Y-112592068D01*
X125302696Y-112407323D01*
X125141008Y-112061635D01*
X125006079Y-111711071D01*
X124897547Y-111354330D01*
X124815050Y-110990110D01*
X124758224Y-110617108D01*
X124734696Y-110366742D01*
X124721314Y-109992511D01*
X124734522Y-109621549D01*
X124773640Y-109255061D01*
X124837988Y-108894250D01*
X124926886Y-108540322D01*
X125039655Y-108194480D01*
X125175615Y-107857930D01*
X125334087Y-107531875D01*
X125514389Y-107217520D01*
X125715844Y-106916069D01*
X125937771Y-106628727D01*
X126179490Y-106356698D01*
X126440322Y-106101187D01*
X126719586Y-105863398D01*
X127016604Y-105644535D01*
X127330695Y-105445804D01*
X127592676Y-105302696D01*
X127938977Y-105141188D01*
X128292984Y-105005558D01*
X128653608Y-104896029D01*
X129019757Y-104812823D01*
X129390340Y-104756166D01*
X129764269Y-104726278D01*
X130140451Y-104723385D01*
X130366742Y-104734696D01*
G37*
G36*
X130107550Y-106344223D02*
G01*
X130221147Y-106346999D01*
X130322099Y-106351756D01*
X130403752Y-106358495D01*
X130417178Y-106360081D01*
X130729223Y-106411141D01*
X131026622Y-106484133D01*
X131312173Y-106579916D01*
X131588673Y-106699349D01*
X131694568Y-106752477D01*
X131912605Y-106874748D01*
X132112782Y-107005842D01*
X132302554Y-107151161D01*
X132489375Y-107316106D01*
X132542438Y-107366802D01*
X132682839Y-107508492D01*
X132805440Y-107644672D01*
X132916519Y-107782817D01*
X133022354Y-107930400D01*
X133048248Y-107968922D01*
X133091836Y-108037085D01*
X133139301Y-108115628D01*
X133188011Y-108199741D01*
X133235333Y-108284613D01*
X133278636Y-108365433D01*
X133315287Y-108437391D01*
X133342653Y-108495676D01*
X133357931Y-108534900D01*
X133358047Y-108551651D01*
X133351820Y-108582695D01*
X133338667Y-108629872D01*
X133318000Y-108695018D01*
X133289234Y-108779973D01*
X133251784Y-108886574D01*
X133205065Y-109016661D01*
X133200132Y-109030281D01*
X133152418Y-109161021D01*
X133112820Y-109267254D01*
X133080699Y-109350389D01*
X133055419Y-109411836D01*
X133036341Y-109453006D01*
X133022829Y-109475309D01*
X133014244Y-109480155D01*
X133009950Y-109468953D01*
X133009154Y-109452662D01*
X133005007Y-109419481D01*
X132993570Y-109365711D01*
X132976353Y-109296668D01*
X132954862Y-109217667D01*
X132930607Y-109134022D01*
X132905097Y-109051048D01*
X132879838Y-108974060D01*
X132856339Y-108908372D01*
X132850169Y-108892446D01*
X132729771Y-108624985D01*
X132586724Y-108372634D01*
X132421698Y-108136239D01*
X132235363Y-107916643D01*
X132028388Y-107714689D01*
X131801441Y-107531222D01*
X131730264Y-107480399D01*
X131676930Y-107444699D01*
X131616699Y-107406464D01*
X131554042Y-107368281D01*
X131493431Y-107332734D01*
X131439336Y-107302408D01*
X131396227Y-107279887D01*
X131368576Y-107267757D01*
X131360835Y-107266808D01*
X131354887Y-107280645D01*
X131340761Y-107317171D01*
X131319586Y-107373353D01*
X131292492Y-107446157D01*
X131260612Y-107532550D01*
X131225074Y-107629498D01*
X131198309Y-107702892D01*
X131160347Y-107807148D01*
X131124858Y-107904491D01*
X131093058Y-107991599D01*
X131066162Y-108065147D01*
X131045384Y-108121814D01*
X131031939Y-108158275D01*
X131027685Y-108169625D01*
X131022747Y-108185607D01*
X131024186Y-108199529D01*
X131035385Y-108214880D01*
X131059728Y-108235146D01*
X131100599Y-108263817D01*
X131153067Y-108298864D01*
X131316236Y-108421911D01*
X131470689Y-108567440D01*
X131612647Y-108731026D01*
X131738330Y-108908243D01*
X131843957Y-109094666D01*
X131858716Y-109124993D01*
X131944272Y-109336243D01*
X132005063Y-109556176D01*
X132041091Y-109781854D01*
X132052355Y-110010338D01*
X132038854Y-110238690D01*
X132000590Y-110463970D01*
X131937561Y-110683239D01*
X131858716Y-110875007D01*
X131744752Y-111083237D01*
X131608963Y-111275678D01*
X131452853Y-111450825D01*
X131277926Y-111607174D01*
X131085687Y-111743221D01*
X130877641Y-111857460D01*
X130875007Y-111858716D01*
X130676125Y-111941224D01*
X130475120Y-111999771D01*
X130267605Y-112035224D01*
X130049189Y-112048453D01*
X129924771Y-112046646D01*
X129846885Y-112043266D01*
X129775779Y-112039487D01*
X129717245Y-112035670D01*
X129677073Y-112032172D01*
X129664889Y-112030513D01*
X129623855Y-112022822D01*
X129459720Y-112477198D01*
X129421395Y-112583617D01*
X129386013Y-112682493D01*
X129354663Y-112770729D01*
X129328437Y-112845231D01*
X129308425Y-112902901D01*
X129295717Y-112940644D01*
X129291454Y-112954851D01*
X129293916Y-112967041D01*
X129309208Y-112977218D01*
X129341841Y-112987170D01*
X129396330Y-112998682D01*
X129407717Y-113000852D01*
X129475458Y-113013019D01*
X129545476Y-113024596D01*
X129604512Y-113033409D01*
X129613597Y-113034618D01*
X129699084Y-113045661D01*
X129699084Y-112822238D01*
X129699084Y-112598815D01*
X130034195Y-112598815D01*
X130369305Y-112598815D01*
X130369305Y-113939257D01*
X130369305Y-115279698D01*
X130034195Y-115279698D01*
X129699084Y-115279698D01*
X129699084Y-114465859D01*
X129698984Y-114319465D01*
X129698696Y-114181523D01*
X129698236Y-114054409D01*
X129697625Y-113940497D01*
X129696878Y-113842159D01*
X129696015Y-113761770D01*
X129695053Y-113701704D01*
X129694010Y-113664336D01*
X129692946Y-113652019D01*
X129666175Y-113649853D01*
X129618496Y-113643967D01*
X129555962Y-113635276D01*
X129484625Y-113624699D01*
X129410537Y-113613151D01*
X129339751Y-113601549D01*
X129278319Y-113590811D01*
X129238995Y-113583257D01*
X128956880Y-113512033D01*
X128676301Y-113415396D01*
X128401207Y-113295182D01*
X128135549Y-113153227D01*
X127883276Y-112991367D01*
X127743134Y-112887915D01*
X127665068Y-112823582D01*
X127575321Y-112743636D01*
X127479575Y-112653608D01*
X127383507Y-112559025D01*
X127292799Y-112465418D01*
X127213130Y-112378316D01*
X127179211Y-112338934D01*
X127008954Y-112116788D01*
X126853587Y-111875225D01*
X126715421Y-111619024D01*
X126596770Y-111352963D01*
X126499946Y-111081821D01*
X126427261Y-110810377D01*
X126417560Y-110764976D01*
X126391690Y-110631565D01*
X126372254Y-110511358D01*
X126358485Y-110396360D01*
X126349615Y-110278579D01*
X126344878Y-110150023D01*
X126343507Y-110002699D01*
X126343515Y-109993161D01*
X126344250Y-109874796D01*
X126346372Y-109777221D01*
X126350272Y-109693891D01*
X126356338Y-109618258D01*
X126364960Y-109543775D01*
X126374017Y-109480237D01*
X126390467Y-109379415D01*
X126408466Y-109282154D01*
X126427124Y-109192202D01*
X126445551Y-109113306D01*
X126462856Y-109049213D01*
X126478148Y-109003670D01*
X126490537Y-108980424D01*
X126493269Y-108978457D01*
X126509485Y-108981369D01*
X126546604Y-108992215D01*
X126599911Y-109009334D01*
X126664691Y-109031065D01*
X126736230Y-109055747D01*
X126809812Y-109081717D01*
X126880722Y-109107315D01*
X126944245Y-109130881D01*
X126995668Y-109150751D01*
X127030274Y-109165265D01*
X127042919Y-109172124D01*
X127042666Y-109187179D01*
X127037319Y-109223628D01*
X127027774Y-109276173D01*
X127014927Y-109339516D01*
X127013440Y-109346501D01*
X126997375Y-109425149D01*
X126981779Y-109507675D01*
X126968656Y-109583139D01*
X126961340Y-109630694D01*
X126952800Y-109716032D01*
X126947434Y-109821317D01*
X126945173Y-109939333D01*
X126945949Y-110062863D01*
X126949693Y-110184693D01*
X126956337Y-110297606D01*
X126965812Y-110394385D01*
X126968801Y-110416494D01*
X127023810Y-110702215D01*
X127103951Y-110978490D01*
X127208294Y-111243957D01*
X127335909Y-111497256D01*
X127485866Y-111737024D01*
X127657235Y-111961901D01*
X127849087Y-112170526D01*
X128060492Y-112361536D01*
X128290521Y-112533572D01*
X128506152Y-112667360D01*
X128558517Y-112696162D01*
X128601569Y-112718285D01*
X128630170Y-112731187D01*
X128639165Y-112733192D01*
X128645112Y-112719355D01*
X128659239Y-112682829D01*
X128680414Y-112626646D01*
X128707507Y-112553842D01*
X128739388Y-112467449D01*
X128774926Y-112370501D01*
X128801691Y-112297107D01*
X128839653Y-112192852D01*
X128875142Y-112095508D01*
X128906942Y-112008401D01*
X128933838Y-111934852D01*
X128954616Y-111878186D01*
X128968061Y-111841725D01*
X128972314Y-111830375D01*
X128977252Y-111814393D01*
X128975814Y-111800471D01*
X128964615Y-111785120D01*
X128940272Y-111764854D01*
X128899401Y-111736183D01*
X128846932Y-111701136D01*
X128736752Y-111619819D01*
X128622209Y-111520725D01*
X128577778Y-111477097D01*
X129824742Y-111477097D01*
X129833797Y-111486378D01*
X129865335Y-111492888D01*
X129914621Y-111496641D01*
X129976925Y-111497649D01*
X130047513Y-111495924D01*
X130121654Y-111491478D01*
X130194615Y-111484325D01*
X130253042Y-111475977D01*
X130416320Y-111437112D01*
X130581627Y-111377021D01*
X130740005Y-111299533D01*
X130882497Y-111208475D01*
X130887262Y-111204959D01*
X130960572Y-111144970D01*
X131040586Y-111070267D01*
X131119152Y-110989107D01*
X131188121Y-110909745D01*
X131221656Y-110866217D01*
X131301229Y-110739420D01*
X131371693Y-110594094D01*
X131429639Y-110438468D01*
X131471660Y-110280769D01*
X131478505Y-110246203D01*
X131487602Y-110174643D01*
X131492872Y-110085409D01*
X131494316Y-109987916D01*
X131491934Y-109891578D01*
X131485725Y-109805807D01*
X131478505Y-109753796D01*
X131440563Y-109596988D01*
X131385986Y-109440420D01*
X131318176Y-109292304D01*
X131240536Y-109160851D01*
X131221606Y-109133782D01*
X131180751Y-109081673D01*
X131130303Y-109023947D01*
X131073966Y-108964135D01*
X131015441Y-108905769D01*
X130958428Y-108852378D01*
X130906630Y-108807493D01*
X130863749Y-108774646D01*
X130833485Y-108757366D01*
X130825137Y-108755605D01*
X130819540Y-108768152D01*
X130805319Y-108804404D01*
X130783211Y-108862362D01*
X130753951Y-108940026D01*
X130718273Y-109035395D01*
X130676913Y-109146470D01*
X130630606Y-109271250D01*
X130580087Y-109407735D01*
X130526091Y-109553926D01*
X130469354Y-109707823D01*
X130410610Y-109867425D01*
X130350596Y-110030732D01*
X130290045Y-110195745D01*
X130229694Y-110360463D01*
X130170277Y-110522887D01*
X130112530Y-110681016D01*
X130057187Y-110832851D01*
X130004985Y-110976391D01*
X129956657Y-111109636D01*
X129912940Y-111230587D01*
X129874569Y-111337243D01*
X129842278Y-111427605D01*
X129824742Y-111477097D01*
X128577778Y-111477097D01*
X128510134Y-111410676D01*
X128407361Y-111296495D01*
X128320720Y-111185003D01*
X128300420Y-111155405D01*
X128178326Y-110947492D01*
X128081583Y-110730673D01*
X128010556Y-110506566D01*
X127965610Y-110276786D01*
X127947111Y-110042949D01*
X127951892Y-109907036D01*
X128506399Y-109907036D01*
X128506824Y-110097436D01*
X128531283Y-110286033D01*
X128579564Y-110470351D01*
X128651458Y-110647911D01*
X128746754Y-110816235D01*
X128865242Y-110972845D01*
X128905322Y-111017219D01*
X128953298Y-111065928D01*
X129005595Y-111115274D01*
X129057742Y-111161464D01*
X129105266Y-111200703D01*
X129143696Y-111229196D01*
X129168561Y-111243148D01*
X129172482Y-111243932D01*
X129178918Y-111231370D01*
X129194022Y-111194758D01*
X129217167Y-111135773D01*
X129247725Y-111056095D01*
X129285070Y-110957401D01*
X129328575Y-110841369D01*
X129377613Y-110709678D01*
X129431556Y-110564005D01*
X129489777Y-110406029D01*
X129551649Y-110237428D01*
X129616546Y-110059880D01*
X129678567Y-109889571D01*
X129745645Y-109705048D01*
X129810102Y-109527733D01*
X129871320Y-109359319D01*
X129928685Y-109201502D01*
X129981580Y-109055977D01*
X130029390Y-108924438D01*
X130071497Y-108808582D01*
X130107286Y-108710102D01*
X130136141Y-108630695D01*
X130157445Y-108572054D01*
X130170584Y-108535876D01*
X130174927Y-108523894D01*
X130165507Y-108515324D01*
X130134162Y-108508620D01*
X130086273Y-108504043D01*
X130027225Y-108501852D01*
X129962400Y-108502307D01*
X129897181Y-108505667D01*
X129863080Y-108508849D01*
X129657332Y-108544428D01*
X129463057Y-108603859D01*
X129281902Y-108686565D01*
X129176973Y-108749228D01*
X129104522Y-108802905D01*
X129023473Y-108872925D01*
X128940306Y-108952807D01*
X128861504Y-109036069D01*
X128793547Y-109116230D01*
X128749228Y-109176973D01*
X128651420Y-109349802D01*
X128578487Y-109530741D01*
X128530216Y-109717312D01*
X128506399Y-109907036D01*
X127951892Y-109907036D01*
X127955423Y-109806673D01*
X127969415Y-109690360D01*
X128016642Y-109463707D01*
X128089008Y-109245646D01*
X128185139Y-109038018D01*
X128303667Y-108842659D01*
X128443219Y-108661407D01*
X128602424Y-108496100D01*
X128779912Y-108348577D01*
X128974312Y-108220674D01*
X129124993Y-108141284D01*
X129323875Y-108058776D01*
X129524879Y-108000229D01*
X129732395Y-107964775D01*
X129950811Y-107951547D01*
X130075229Y-107953354D01*
X130153115Y-107956734D01*
X130224220Y-107960512D01*
X130282754Y-107964330D01*
X130322927Y-107967827D01*
X130335110Y-107969487D01*
X130376144Y-107977178D01*
X130540280Y-107522802D01*
X130578602Y-107416392D01*
X130613981Y-107317533D01*
X130645328Y-107229320D01*
X130671550Y-107154847D01*
X130691558Y-107097209D01*
X130704262Y-107059500D01*
X130708523Y-107045322D01*
X130701712Y-107032591D01*
X130675627Y-107019699D01*
X130628606Y-107006237D01*
X130558989Y-106991795D01*
X130465115Y-106975965D01*
X130369305Y-106961722D01*
X130284915Y-106953075D01*
X130180506Y-106947596D01*
X130063225Y-106945222D01*
X129940216Y-106945887D01*
X129818626Y-106949528D01*
X129705601Y-106956079D01*
X129608286Y-106965477D01*
X129583505Y-106968801D01*
X129296959Y-107023924D01*
X129020284Y-107104121D01*
X128754743Y-107208501D01*
X128501596Y-107336171D01*
X128262103Y-107486240D01*
X128037526Y-107657817D01*
X127829126Y-107850010D01*
X127638162Y-108061927D01*
X127465896Y-108292677D01*
X127313589Y-108541369D01*
X127285261Y-108593889D01*
X127208064Y-108740228D01*
X127061840Y-108687503D01*
X126948203Y-108646449D01*
X126857711Y-108613522D01*
X126787738Y-108587682D01*
X126735653Y-108567888D01*
X126698830Y-108553102D01*
X126674639Y-108542283D01*
X126660453Y-108534392D01*
X126653642Y-108528388D01*
X126652041Y-108525376D01*
X126655874Y-108505475D01*
X126671901Y-108466115D01*
X126698036Y-108411170D01*
X126732193Y-108344513D01*
X126772285Y-108270020D01*
X126816226Y-108191562D01*
X126861929Y-108113015D01*
X126907308Y-108038251D01*
X126950277Y-107971145D01*
X126951752Y-107968922D01*
X127128957Y-107725859D01*
X127328555Y-107495241D01*
X127547123Y-107280463D01*
X127781238Y-107084921D01*
X127997677Y-106931274D01*
X128265755Y-106772282D01*
X128547048Y-106637133D01*
X128841025Y-106526018D01*
X129147158Y-106439128D01*
X129464915Y-106376655D01*
X129582822Y-106360081D01*
X129659818Y-106352945D01*
X129757444Y-106347791D01*
X129869044Y-106344620D01*
X129987965Y-106343431D01*
X130107550Y-106344223D01*
G37*
D11*
X158288748Y-82590000D02*
X159711252Y-82590000D01*
X158288748Y-84410000D02*
X159711252Y-84410000D01*
X165288748Y-90590000D02*
X166711252Y-90590000D01*
X165288748Y-92410000D02*
X166711252Y-92410000D01*
X141711252Y-89590000D02*
X140288748Y-89590000D01*
X141711252Y-91410000D02*
X140288748Y-91410000D01*
X134711252Y-90590000D02*
X133288748Y-90590000D01*
X134711252Y-92410000D02*
X133288748Y-92410000D01*
%LPC*%
D14*
X142462500Y-86500000D03*
X139537500Y-86500000D03*
D15*
X143037500Y-83500000D03*
X145962500Y-83500000D03*
D16*
X173500000Y-98537500D03*
X173500000Y-101462500D03*
D17*
X143750000Y-113475000D03*
D18*
X146250000Y-113475000D03*
X148750000Y-113475000D03*
X151250000Y-113475000D03*
X153750000Y-113475000D03*
X156250000Y-113475000D03*
D19*
X157525000Y-93500000D03*
X160475000Y-93500000D03*
D20*
X131000000Y-99000000D03*
X133500000Y-96500000D03*
X136000000Y-99000000D03*
D21*
X185000000Y-115000000D03*
D14*
X142462500Y-93500000D03*
X139537500Y-93500000D03*
D15*
X157537500Y-86500000D03*
X160462500Y-86500000D03*
D21*
X185000000Y-85000000D03*
D22*
X126500000Y-101462500D03*
X126500000Y-98537500D03*
D23*
X153800000Y-94800000D03*
D24*
X153800000Y-92260000D03*
X153800000Y-89720000D03*
X153800000Y-87180000D03*
X146180000Y-87180000D03*
X146180000Y-89720000D03*
X146180000Y-92260000D03*
X146180000Y-94800000D03*
D23*
X153800000Y-99880000D03*
D24*
X151260000Y-99880000D03*
X148720000Y-99880000D03*
X146180000Y-99880000D03*
X146180000Y-107500000D03*
X148720000Y-107500000D03*
X151260000Y-107500000D03*
X153800000Y-107500000D03*
D21*
X115000000Y-115000000D03*
D20*
X164000000Y-99000000D03*
X166500000Y-96500000D03*
X169000000Y-99000000D03*
D14*
X160462500Y-96500000D03*
X157537500Y-96500000D03*
X160462500Y-89500000D03*
X157537500Y-89500000D03*
D19*
X157525000Y-83500000D03*
X160475000Y-83500000D03*
X164525000Y-91500000D03*
X167475000Y-91500000D03*
D21*
X115000000Y-85000000D03*
D25*
X142475000Y-90500000D03*
X139525000Y-90500000D03*
X135475000Y-91500000D03*
X132525000Y-91500000D03*
D26*
X179000000Y-100950000D03*
X179000000Y-99050000D03*
X121000000Y-99050000D03*
X121000000Y-100950000D03*
%LPD*%
M02*
