G04 #@! TF.GenerationSoftware,KiCad,Pcbnew,8.0.6-8.0.6-0~ubuntu24.04.1*
G04 #@! TF.CreationDate,2024-10-30T20:02:34+09:00*
G04 #@! TF.ProjectId,zatopos-ear-mic,7a61746f-706f-4732-9d65-61722d6d6963,rev?*
G04 #@! TF.SameCoordinates,Original*
G04 #@! TF.FileFunction,Copper,L1,Top*
G04 #@! TF.FilePolarity,Positive*
%FSLAX46Y46*%
G04 Gerber Fmt 4.6, Leading zero omitted, Abs format (unit mm)*
G04 Created by KiCad (PCBNEW 8.0.6-8.0.6-0~ubuntu24.04.1) date 2024-10-30 20:02:34*
%MOMM*%
%LPD*%
G01*
G04 APERTURE LIST*
G04 Aperture macros list*
%AMRoundRect*
0 Rectangle with rounded corners*
0 $1 Rounding radius*
0 $2 $3 $4 $5 $6 $7 $8 $9 X,Y pos of 4 corners*
0 Add a 4 corners polygon primitive as box body*
4,1,4,$2,$3,$4,$5,$6,$7,$8,$9,$2,$3,0*
0 Add four circle primitives for the rounded corners*
1,1,$1+$1,$2,$3*
1,1,$1+$1,$4,$5*
1,1,$1+$1,$6,$7*
1,1,$1+$1,$8,$9*
0 Add four rect primitives between the rounded corners*
20,1,$1+$1,$2,$3,$4,$5,0*
20,1,$1+$1,$4,$5,$6,$7,0*
20,1,$1+$1,$6,$7,$8,$9,0*
20,1,$1+$1,$8,$9,$2,$3,0*%
G04 Aperture macros list end*
G04 #@! TA.AperFunction,SMDPad,CuDef*
%ADD10RoundRect,0.250000X0.312500X0.625000X-0.312500X0.625000X-0.312500X-0.625000X0.312500X-0.625000X0*%
G04 #@! TD*
G04 #@! TA.AperFunction,SMDPad,CuDef*
%ADD11RoundRect,0.250000X-0.312500X-0.625000X0.312500X-0.625000X0.312500X0.625000X-0.312500X0.625000X0*%
G04 #@! TD*
G04 #@! TA.AperFunction,SMDPad,CuDef*
%ADD12RoundRect,0.250000X-0.625000X0.312500X-0.625000X-0.312500X0.625000X-0.312500X0.625000X0.312500X0*%
G04 #@! TD*
G04 #@! TA.AperFunction,ComponentPad*
%ADD13RoundRect,0.250000X-0.600000X-0.725000X0.600000X-0.725000X0.600000X0.725000X-0.600000X0.725000X0*%
G04 #@! TD*
G04 #@! TA.AperFunction,ComponentPad*
%ADD14O,1.700000X1.950000*%
G04 #@! TD*
G04 #@! TA.AperFunction,SMDPad,CuDef*
%ADD15RoundRect,0.250000X-0.325000X-0.650000X0.325000X-0.650000X0.325000X0.650000X-0.325000X0.650000X0*%
G04 #@! TD*
G04 #@! TA.AperFunction,ComponentPad*
%ADD16C,1.524000*%
G04 #@! TD*
G04 #@! TA.AperFunction,SMDPad,CuDef*
%ADD17RoundRect,0.250000X0.625000X-0.312500X0.625000X0.312500X-0.625000X0.312500X-0.625000X-0.312500X0*%
G04 #@! TD*
G04 #@! TA.AperFunction,ComponentPad*
%ADD18R,1.600000X1.600000*%
G04 #@! TD*
G04 #@! TA.AperFunction,ComponentPad*
%ADD19O,1.600000X1.600000*%
G04 #@! TD*
G04 #@! TA.AperFunction,SMDPad,CuDef*
%ADD20RoundRect,0.250000X0.325000X0.650000X-0.325000X0.650000X-0.325000X-0.650000X0.325000X-0.650000X0*%
G04 #@! TD*
G04 #@! TA.AperFunction,ComponentPad*
%ADD21C,1.500000*%
G04 #@! TD*
G04 #@! TA.AperFunction,ViaPad*
%ADD22C,0.900000*%
G04 #@! TD*
G04 #@! TA.AperFunction,Conductor*
%ADD23C,0.200000*%
G04 #@! TD*
G04 #@! TA.AperFunction,Conductor*
%ADD24C,0.500000*%
G04 #@! TD*
G04 APERTURE END LIST*
D10*
X142462500Y-86500000D03*
X139537500Y-86500000D03*
D11*
X143037500Y-83500000D03*
X145962500Y-83500000D03*
D12*
X173500000Y-98537500D03*
X173500000Y-101462500D03*
D13*
X143750000Y-113475000D03*
D14*
X146250000Y-113475000D03*
X148750000Y-113475000D03*
X151250000Y-113475000D03*
X153750000Y-113475000D03*
X156250000Y-113475000D03*
D15*
X157525000Y-93500000D03*
X160475000Y-93500000D03*
D16*
X131000000Y-99000000D03*
X133500000Y-96500000D03*
X136000000Y-99000000D03*
D10*
X142462500Y-93500000D03*
X139537500Y-93500000D03*
D11*
X157537500Y-86500000D03*
X160462500Y-86500000D03*
D17*
X126500000Y-101462500D03*
X126500000Y-98537500D03*
D18*
X153800000Y-94800000D03*
D19*
X153800000Y-92260000D03*
X153800000Y-89720000D03*
X153800000Y-87180000D03*
X146180000Y-87180000D03*
X146180000Y-89720000D03*
X146180000Y-92260000D03*
X146180000Y-94800000D03*
D18*
X153800000Y-99880000D03*
D19*
X151260000Y-99880000D03*
X148720000Y-99880000D03*
X146180000Y-99880000D03*
X146180000Y-107500000D03*
X148720000Y-107500000D03*
X151260000Y-107500000D03*
X153800000Y-107500000D03*
D16*
X164000000Y-99000000D03*
X166500000Y-96500000D03*
X169000000Y-99000000D03*
D10*
X160462500Y-96500000D03*
X157537500Y-96500000D03*
X160462500Y-89500000D03*
X157537500Y-89500000D03*
D15*
X157525000Y-83500000D03*
X160475000Y-83500000D03*
X164525000Y-91500000D03*
X167475000Y-91500000D03*
D20*
X142475000Y-90500000D03*
X139525000Y-90500000D03*
X135475000Y-91500000D03*
X132525000Y-91500000D03*
D21*
X179000000Y-100950000D03*
X179000000Y-99050000D03*
X121000000Y-99050000D03*
X121000000Y-100950000D03*
D22*
X150000000Y-104000000D03*
X162500000Y-86500000D03*
X150000000Y-91000000D03*
X138500000Y-97000000D03*
X138500000Y-83500000D03*
X148500000Y-97500000D03*
D23*
X176037500Y-98537500D02*
X178450000Y-100950000D01*
X173500000Y-98537500D02*
X173500000Y-98000000D01*
X173500000Y-98000000D02*
X167475000Y-91975000D01*
X178450000Y-100950000D02*
X179000000Y-100950000D01*
X173500000Y-98537500D02*
X176037500Y-98537500D01*
X167475000Y-91975000D02*
X167475000Y-91500000D01*
X162525000Y-89500000D02*
X160462500Y-89500000D01*
X164525000Y-91500000D02*
X162525000Y-89500000D01*
X121000000Y-99050000D02*
X121000000Y-99000000D01*
X121000000Y-99000000D02*
X121462500Y-98537500D01*
X126500000Y-98537500D02*
X126500000Y-98000000D01*
X126500000Y-98000000D02*
X132525000Y-91975000D01*
X121462500Y-98537500D02*
X126500000Y-98537500D01*
X132525000Y-91975000D02*
X132525000Y-91500000D01*
X135475000Y-91025000D02*
X139537500Y-86962500D01*
X135475000Y-91500000D02*
X135475000Y-91025000D01*
X139537500Y-86962500D02*
X139537500Y-86500000D01*
X154000000Y-94600000D02*
X154000000Y-94500000D01*
X151260000Y-99240000D02*
X151260000Y-99880000D01*
X155837500Y-94800000D02*
X157137500Y-93500000D01*
X153800000Y-94800000D02*
X154000000Y-94600000D01*
X153800000Y-94800000D02*
X155837500Y-94800000D01*
X157550000Y-94025000D02*
X157525000Y-94000000D01*
X155837500Y-94800000D02*
X157537500Y-96500000D01*
X153800000Y-94800000D02*
X153800000Y-97340000D01*
X153800000Y-97340000D02*
X151260000Y-99880000D01*
X157137500Y-93500000D02*
X157525000Y-93500000D01*
X157537500Y-89500000D02*
X157537500Y-90037500D01*
X157537500Y-90037500D02*
X160475000Y-92975000D01*
X160475000Y-92975000D02*
X160475000Y-94000000D01*
X153800000Y-92260000D02*
X154000000Y-92460000D01*
X166500000Y-96500000D02*
X164000000Y-94000000D01*
X154000000Y-92460000D02*
X154000000Y-92500000D01*
X157000000Y-89500000D02*
X157537500Y-89500000D01*
X154000000Y-92500000D02*
X157000000Y-89500000D01*
X164000000Y-94000000D02*
X160475000Y-94000000D01*
X146180000Y-92260000D02*
X144235000Y-92260000D01*
X148720000Y-99880000D02*
X148342500Y-99880000D01*
X144235000Y-92260000D02*
X144235000Y-92265000D01*
X142462500Y-94000000D02*
X142462500Y-93500000D01*
X142475000Y-91000000D02*
X142975000Y-91000000D01*
X148342500Y-99880000D02*
X142462500Y-94000000D01*
X142975000Y-91000000D02*
X144235000Y-92260000D01*
X144235000Y-92265000D02*
X143000000Y-93500000D01*
X143000000Y-93500000D02*
X142462500Y-93500000D01*
X139525000Y-91000000D02*
X139525000Y-89975000D01*
X142960000Y-86500000D02*
X142462500Y-86500000D01*
X142462500Y-87037500D02*
X142462500Y-86500000D01*
X146180000Y-89720000D02*
X142960000Y-86500000D01*
X139000000Y-91000000D02*
X139525000Y-91000000D01*
X139525000Y-89975000D02*
X142462500Y-87037500D01*
X133500000Y-96500000D02*
X139000000Y-91000000D01*
D24*
X160475000Y-86487500D02*
X160462500Y-86500000D01*
X153800000Y-87180000D02*
X151500000Y-87180000D01*
X160475000Y-83500000D02*
X160475000Y-86500000D01*
X160475000Y-86500000D02*
X162500000Y-86500000D01*
X146180000Y-99880000D02*
X146180000Y-102180000D01*
D23*
X157537500Y-86500000D02*
X157537500Y-83500000D01*
X154317500Y-89720000D02*
X153800000Y-89720000D01*
X146180000Y-87180000D02*
X146180000Y-83705000D01*
X157537500Y-83500000D02*
X145975000Y-83500000D01*
X157537500Y-86500000D02*
X154317500Y-89720000D01*
X157525000Y-86487500D02*
X157537500Y-86500000D01*
X148720000Y-113445000D02*
X148750000Y-113475000D01*
X148720000Y-107500000D02*
X148720000Y-113445000D01*
X154380000Y-99880000D02*
X153800000Y-99880000D01*
X153750000Y-112750000D02*
X155500000Y-111000000D01*
X153750000Y-113475000D02*
X153750000Y-112750000D01*
X155500000Y-101000000D02*
X154380000Y-99880000D01*
X155500000Y-111000000D02*
X155500000Y-101000000D01*
X146180000Y-113405000D02*
X146250000Y-113475000D01*
X146180000Y-107500000D02*
X146180000Y-113405000D01*
D24*
X154500000Y-116000000D02*
X156250000Y-114250000D01*
X161525000Y-113475000D02*
X156250000Y-113475000D01*
X156250000Y-114250000D02*
X156250000Y-113475000D01*
X126500000Y-101500000D02*
X141000000Y-116000000D01*
X141000000Y-116000000D02*
X154500000Y-116000000D01*
X143012500Y-83500000D02*
X138500000Y-83500000D01*
X148500000Y-97500000D02*
X146180000Y-95180000D01*
X173500000Y-101500000D02*
X161525000Y-113475000D01*
X173500000Y-101462500D02*
X173500000Y-101500000D01*
X138500000Y-97000000D02*
X138500000Y-113500000D01*
X146180000Y-95180000D02*
X146180000Y-94800000D01*
X126500000Y-101462500D02*
X126500000Y-101500000D01*
D23*
X151260000Y-107500000D02*
X151260000Y-113465000D01*
X151260000Y-113465000D02*
X151250000Y-113475000D01*
X164000000Y-99000000D02*
X163500000Y-99000000D01*
X163500000Y-99000000D02*
X161000000Y-96500000D01*
X161000000Y-96500000D02*
X160462500Y-96500000D01*
X139000000Y-93500000D02*
X139537500Y-93500000D01*
X133500000Y-99000000D02*
X139000000Y-93500000D01*
X131000000Y-99000000D02*
X133500000Y-99000000D01*
G04 #@! TA.AperFunction,Conductor*
G36*
X151943039Y-86519685D02*
G01*
X151988794Y-86572489D01*
X152000000Y-86624000D01*
X152000000Y-95376000D01*
X151980315Y-95443039D01*
X151927511Y-95488794D01*
X151876000Y-95500000D01*
X148124000Y-95500000D01*
X148056961Y-95480315D01*
X148011206Y-95427511D01*
X148000000Y-95376000D01*
X148000000Y-86624000D01*
X148019685Y-86556961D01*
X148072489Y-86511206D01*
X148124000Y-86500000D01*
X151876000Y-86500000D01*
X151943039Y-86519685D01*
G37*
G04 #@! TD.AperFunction*
G04 #@! TA.AperFunction,Conductor*
G36*
X154443039Y-101519685D02*
G01*
X154488794Y-101572489D01*
X154500000Y-101624000D01*
X154500000Y-105876000D01*
X154480315Y-105943039D01*
X154427511Y-105988794D01*
X154376000Y-106000000D01*
X145624000Y-106000000D01*
X145556961Y-105980315D01*
X145511206Y-105927511D01*
X145500000Y-105876000D01*
X145500000Y-101624000D01*
X145519685Y-101556961D01*
X145572489Y-101511206D01*
X145624000Y-101500000D01*
X154376000Y-101500000D01*
X154443039Y-101519685D01*
G37*
G04 #@! TD.AperFunction*
G04 #@! TA.AperFunction,Conductor*
G36*
X138419334Y-110683180D02*
G01*
X138475267Y-110725052D01*
X138499684Y-110790516D01*
X138500000Y-110799362D01*
X138500000Y-113200638D01*
X138480315Y-113267677D01*
X138427511Y-113313432D01*
X138358353Y-113323376D01*
X138294797Y-113294351D01*
X138288319Y-113288319D01*
X136711681Y-111711681D01*
X136678196Y-111650358D01*
X136683180Y-111580666D01*
X136725052Y-111524733D01*
X136790516Y-111500316D01*
X136799362Y-111500000D01*
X137500000Y-111500000D01*
X138288319Y-110711681D01*
X138349642Y-110678196D01*
X138419334Y-110683180D01*
G37*
G04 #@! TD.AperFunction*
M02*
