M48
; DRILL file {KiCad 8.0.6-8.0.6-0~ubuntu24.04.1} date 2024-10-30T20:03:21+0900
; FORMAT={-:-/ absolute / metric / decimal}
; #@! TF.CreationDate,2024-10-30T20:03:21+09:00
; #@! TF.GenerationSoftware,Kicad,Pcbnew,8.0.6-8.0.6-0~ubuntu24.04.1
; #@! TF.FileFunction,Plated,1,2,PTH
FMAT,2
METRIC
; #@! TA.AperFunction,Plated,PTH,ViaDrill
T1C0.600
; #@! TA.AperFunction,Plated,PTH,ComponentDrill
T2C0.600
; #@! TA.AperFunction,Plated,PTH,ComponentDrill
T3C0.762
; #@! TA.AperFunction,Plated,PTH,ComponentDrill
T4C0.800
; #@! TA.AperFunction,Plated,PTH,ComponentDrill
T5C0.950
%
G90
G05
T1
X138.5Y-83.5
X138.5Y-97.0
X148.5Y-97.5
X150.0Y-91.0
X150.0Y-104.0
X162.5Y-86.5
T2
X121.0Y-99.05
X121.0Y-100.95
X179.0Y-99.05
X179.0Y-100.95
T3
X131.0Y-99.0
X133.5Y-96.5
X136.0Y-99.0
X164.0Y-99.0
X166.5Y-96.5
X169.0Y-99.0
T4
X146.18Y-87.18
X146.18Y-89.72
X146.18Y-92.26
X146.18Y-94.8
X146.18Y-99.88
X146.18Y-107.5
X148.72Y-99.88
X148.72Y-107.5
X151.26Y-99.88
X151.26Y-107.5
X153.8Y-87.18
X153.8Y-89.72
X153.8Y-92.26
X153.8Y-94.8
X153.8Y-99.88
X153.8Y-107.5
T5
X143.75Y-113.475
X146.25Y-113.475
X148.75Y-113.475
X151.25Y-113.475
X153.75Y-113.475
X156.25Y-113.475
M30
