G04 #@! TF.GenerationSoftware,KiCad,Pcbnew,8.0.6-8.0.6-0~ubuntu24.04.1*
G04 #@! TF.CreationDate,2024-10-30T20:02:34+09:00*
G04 #@! TF.ProjectId,zatopos-ear-mic,7a61746f-706f-4732-9d65-61722d6d6963,rev?*
G04 #@! TF.SameCoordinates,Original*
G04 #@! TF.FileFunction,Copper,L2,Bot*
G04 #@! TF.FilePolarity,Positive*
%FSLAX46Y46*%
G04 Gerber Fmt 4.6, Leading zero omitted, Abs format (unit mm)*
G04 Created by KiCad (PCBNEW 8.0.6-8.0.6-0~ubuntu24.04.1) date 2024-10-30 20:02:34*
%MOMM*%
%LPD*%
G01*
G04 APERTURE LIST*
G04 Aperture macros list*
%AMRoundRect*
0 Rectangle with rounded corners*
0 $1 Rounding radius*
0 $2 $3 $4 $5 $6 $7 $8 $9 X,Y pos of 4 corners*
0 Add a 4 corners polygon primitive as box body*
4,1,4,$2,$3,$4,$5,$6,$7,$8,$9,$2,$3,0*
0 Add four circle primitives for the rounded corners*
1,1,$1+$1,$2,$3*
1,1,$1+$1,$4,$5*
1,1,$1+$1,$6,$7*
1,1,$1+$1,$8,$9*
0 Add four rect primitives between the rounded corners*
20,1,$1+$1,$2,$3,$4,$5,0*
20,1,$1+$1,$4,$5,$6,$7,0*
20,1,$1+$1,$6,$7,$8,$9,0*
20,1,$1+$1,$8,$9,$2,$3,0*%
G04 Aperture macros list end*
G04 #@! TA.AperFunction,ComponentPad*
%ADD10RoundRect,0.250000X-0.600000X-0.725000X0.600000X-0.725000X0.600000X0.725000X-0.600000X0.725000X0*%
G04 #@! TD*
G04 #@! TA.AperFunction,ComponentPad*
%ADD11O,1.700000X1.950000*%
G04 #@! TD*
G04 #@! TA.AperFunction,ComponentPad*
%ADD12C,1.524000*%
G04 #@! TD*
G04 #@! TA.AperFunction,ComponentPad*
%ADD13R,1.600000X1.600000*%
G04 #@! TD*
G04 #@! TA.AperFunction,ComponentPad*
%ADD14O,1.600000X1.600000*%
G04 #@! TD*
G04 #@! TA.AperFunction,ComponentPad*
%ADD15C,1.500000*%
G04 #@! TD*
G04 #@! TA.AperFunction,ViaPad*
%ADD16C,0.900000*%
G04 #@! TD*
G04 #@! TA.AperFunction,Conductor*
%ADD17C,0.500000*%
G04 #@! TD*
G04 APERTURE END LIST*
D10*
X143750000Y-113475000D03*
D11*
X146250000Y-113475000D03*
X148750000Y-113475000D03*
X151250000Y-113475000D03*
X153750000Y-113475000D03*
X156250000Y-113475000D03*
D12*
X131000000Y-99000000D03*
X133500000Y-96500000D03*
X136000000Y-99000000D03*
D13*
X153800000Y-94800000D03*
D14*
X153800000Y-92260000D03*
X153800000Y-89720000D03*
X153800000Y-87180000D03*
X146180000Y-87180000D03*
X146180000Y-89720000D03*
X146180000Y-92260000D03*
X146180000Y-94800000D03*
D13*
X153800000Y-99880000D03*
D14*
X151260000Y-99880000D03*
X148720000Y-99880000D03*
X146180000Y-99880000D03*
X146180000Y-107500000D03*
X148720000Y-107500000D03*
X151260000Y-107500000D03*
X153800000Y-107500000D03*
D12*
X164000000Y-99000000D03*
X166500000Y-96500000D03*
X169000000Y-99000000D03*
D15*
X179000000Y-100950000D03*
X179000000Y-99050000D03*
X121000000Y-99050000D03*
X121000000Y-100950000D03*
D16*
X150000000Y-104000000D03*
X162500000Y-86500000D03*
X150000000Y-91000000D03*
X138500000Y-97000000D03*
X138500000Y-83500000D03*
X148500000Y-97500000D03*
D17*
X156500000Y-99000000D02*
X156500000Y-113225000D01*
X156500000Y-113225000D02*
X156250000Y-113475000D01*
X148500000Y-97500000D02*
X155000000Y-97500000D01*
X155000000Y-97500000D02*
X156500000Y-99000000D01*
X138500000Y-97000000D02*
X138500000Y-83500000D01*
X156250000Y-113750000D02*
X156250000Y-113475000D01*
X153800000Y-107500000D02*
X156500000Y-110200000D01*
G04 #@! TA.AperFunction,Conductor*
G36*
X170025061Y-82019685D02*
G01*
X170033346Y-82025500D01*
X171961538Y-83500000D01*
X186442010Y-94573302D01*
X186951324Y-94962777D01*
X186992620Y-95019136D01*
X187000000Y-95061277D01*
X187000000Y-104938722D01*
X186980315Y-105005761D01*
X186951324Y-105037222D01*
X170033346Y-117974500D01*
X169968135Y-117999587D01*
X169958022Y-118000000D01*
X130041978Y-118000000D01*
X129974939Y-117980315D01*
X129966654Y-117974500D01*
X123069248Y-112700013D01*
X142400000Y-112700013D01*
X142400000Y-113225000D01*
X143345854Y-113225000D01*
X143307370Y-113291657D01*
X143275000Y-113412465D01*
X143275000Y-113537535D01*
X143307370Y-113658343D01*
X143345854Y-113725000D01*
X142400001Y-113725000D01*
X142400001Y-114249986D01*
X142410494Y-114352697D01*
X142465641Y-114519119D01*
X142465643Y-114519124D01*
X142557684Y-114668345D01*
X142681654Y-114792315D01*
X142830875Y-114884356D01*
X142830880Y-114884358D01*
X142997302Y-114939505D01*
X142997309Y-114939506D01*
X143100019Y-114949999D01*
X143499999Y-114949999D01*
X143500000Y-114949998D01*
X143500000Y-113879145D01*
X143566657Y-113917630D01*
X143687465Y-113950000D01*
X143812535Y-113950000D01*
X143933343Y-113917630D01*
X144000000Y-113879145D01*
X144000000Y-114949999D01*
X144399972Y-114949999D01*
X144399986Y-114949998D01*
X144502697Y-114939505D01*
X144669119Y-114884358D01*
X144669124Y-114884356D01*
X144818345Y-114792315D01*
X144942317Y-114668343D01*
X145037815Y-114513516D01*
X145089763Y-114466791D01*
X145158725Y-114455568D01*
X145222808Y-114483412D01*
X145231035Y-114490931D01*
X145370213Y-114630109D01*
X145542179Y-114755048D01*
X145542181Y-114755049D01*
X145542184Y-114755051D01*
X145731588Y-114851557D01*
X145933757Y-114917246D01*
X146143713Y-114950500D01*
X146143714Y-114950500D01*
X146356286Y-114950500D01*
X146356287Y-114950500D01*
X146566243Y-114917246D01*
X146768412Y-114851557D01*
X146957816Y-114755051D01*
X147007599Y-114718882D01*
X147129786Y-114630109D01*
X147129788Y-114630106D01*
X147129792Y-114630104D01*
X147280104Y-114479792D01*
X147399683Y-114315204D01*
X147455011Y-114272540D01*
X147524624Y-114266561D01*
X147586420Y-114299166D01*
X147600313Y-114315199D01*
X147702296Y-114455568D01*
X147719896Y-114479792D01*
X147870213Y-114630109D01*
X148042179Y-114755048D01*
X148042181Y-114755049D01*
X148042184Y-114755051D01*
X148231588Y-114851557D01*
X148433757Y-114917246D01*
X148643713Y-114950500D01*
X148643714Y-114950500D01*
X148856286Y-114950500D01*
X148856287Y-114950500D01*
X149066243Y-114917246D01*
X149268412Y-114851557D01*
X149457816Y-114755051D01*
X149507599Y-114718882D01*
X149629786Y-114630109D01*
X149629788Y-114630106D01*
X149629792Y-114630104D01*
X149780104Y-114479792D01*
X149899683Y-114315204D01*
X149955011Y-114272540D01*
X150024624Y-114266561D01*
X150086420Y-114299166D01*
X150100313Y-114315199D01*
X150202296Y-114455568D01*
X150219896Y-114479792D01*
X150370213Y-114630109D01*
X150542179Y-114755048D01*
X150542181Y-114755049D01*
X150542184Y-114755051D01*
X150731588Y-114851557D01*
X150933757Y-114917246D01*
X151143713Y-114950500D01*
X151143714Y-114950500D01*
X151356286Y-114950500D01*
X151356287Y-114950500D01*
X151566243Y-114917246D01*
X151768412Y-114851557D01*
X151957816Y-114755051D01*
X152007599Y-114718882D01*
X152129786Y-114630109D01*
X152129788Y-114630106D01*
X152129792Y-114630104D01*
X152280104Y-114479792D01*
X152399683Y-114315204D01*
X152455011Y-114272540D01*
X152524624Y-114266561D01*
X152586420Y-114299166D01*
X152600313Y-114315199D01*
X152702296Y-114455568D01*
X152719896Y-114479792D01*
X152870213Y-114630109D01*
X153042179Y-114755048D01*
X153042181Y-114755049D01*
X153042184Y-114755051D01*
X153231588Y-114851557D01*
X153433757Y-114917246D01*
X153643713Y-114950500D01*
X153643714Y-114950500D01*
X153856286Y-114950500D01*
X153856287Y-114950500D01*
X154066243Y-114917246D01*
X154268412Y-114851557D01*
X154457816Y-114755051D01*
X154507599Y-114718882D01*
X154629786Y-114630109D01*
X154629788Y-114630106D01*
X154629792Y-114630104D01*
X154780104Y-114479792D01*
X154899683Y-114315204D01*
X154955011Y-114272540D01*
X155024624Y-114266561D01*
X155086420Y-114299166D01*
X155100313Y-114315199D01*
X155202296Y-114455568D01*
X155219896Y-114479792D01*
X155370213Y-114630109D01*
X155542179Y-114755048D01*
X155542181Y-114755049D01*
X155542184Y-114755051D01*
X155731588Y-114851557D01*
X155933757Y-114917246D01*
X156143713Y-114950500D01*
X156143714Y-114950500D01*
X156356286Y-114950500D01*
X156356287Y-114950500D01*
X156566243Y-114917246D01*
X156768412Y-114851557D01*
X156957816Y-114755051D01*
X157007599Y-114718882D01*
X157129786Y-114630109D01*
X157129788Y-114630106D01*
X157129792Y-114630104D01*
X157280104Y-114479792D01*
X157280106Y-114479788D01*
X157280109Y-114479786D01*
X157405048Y-114307820D01*
X157405047Y-114307820D01*
X157405051Y-114307816D01*
X157501557Y-114118412D01*
X157567246Y-113916243D01*
X157600500Y-113706287D01*
X157600500Y-113243713D01*
X157567246Y-113033757D01*
X157501557Y-112831588D01*
X157405051Y-112642184D01*
X157405049Y-112642181D01*
X157405048Y-112642179D01*
X157277241Y-112466266D01*
X157278108Y-112465635D01*
X157251641Y-112406581D01*
X157250500Y-112389800D01*
X157250500Y-100950000D01*
X177744723Y-100950000D01*
X177762996Y-101158872D01*
X177763793Y-101167975D01*
X177763793Y-101167979D01*
X177820422Y-101379322D01*
X177820424Y-101379326D01*
X177820425Y-101379330D01*
X177866661Y-101478484D01*
X177912897Y-101577638D01*
X177912898Y-101577639D01*
X178038402Y-101756877D01*
X178193123Y-101911598D01*
X178372361Y-102037102D01*
X178570670Y-102129575D01*
X178782023Y-102186207D01*
X178964926Y-102202208D01*
X178999998Y-102205277D01*
X179000000Y-102205277D01*
X179000002Y-102205277D01*
X179028254Y-102202805D01*
X179217977Y-102186207D01*
X179429330Y-102129575D01*
X179627639Y-102037102D01*
X179806877Y-101911598D01*
X179961598Y-101756877D01*
X180087102Y-101577639D01*
X180179575Y-101379330D01*
X180236207Y-101167977D01*
X180255277Y-100950000D01*
X180236207Y-100732023D01*
X180179575Y-100520670D01*
X180087102Y-100322362D01*
X180087100Y-100322359D01*
X180087099Y-100322357D01*
X179961599Y-100143124D01*
X179916006Y-100097531D01*
X179806877Y-99988402D01*
X179627639Y-99862898D01*
X179627640Y-99862898D01*
X179627638Y-99862897D01*
X179429330Y-99770425D01*
X179376099Y-99756161D01*
X179320514Y-99724068D01*
X179000001Y-99403553D01*
X179000000Y-99403553D01*
X178679484Y-99724068D01*
X178623899Y-99756161D01*
X178570671Y-99770424D01*
X178570670Y-99770424D01*
X178372361Y-99862898D01*
X178372357Y-99862900D01*
X178193121Y-99988402D01*
X178038402Y-100143121D01*
X177912900Y-100322357D01*
X177912898Y-100322361D01*
X177820426Y-100520668D01*
X177820422Y-100520677D01*
X177763793Y-100732020D01*
X177763793Y-100732024D01*
X177747144Y-100922331D01*
X177744723Y-100950000D01*
X157250500Y-100950000D01*
X157250500Y-98999997D01*
X162732677Y-98999997D01*
X162732677Y-99000002D01*
X162751929Y-99220062D01*
X162751930Y-99220070D01*
X162809104Y-99433445D01*
X162809105Y-99433447D01*
X162809106Y-99433450D01*
X162830501Y-99479331D01*
X162902466Y-99633662D01*
X162902468Y-99633666D01*
X163029170Y-99814615D01*
X163029175Y-99814621D01*
X163185378Y-99970824D01*
X163185384Y-99970829D01*
X163366333Y-100097531D01*
X163366335Y-100097532D01*
X163366338Y-100097534D01*
X163566550Y-100190894D01*
X163779932Y-100248070D01*
X163921188Y-100260428D01*
X163999998Y-100267323D01*
X164000000Y-100267323D01*
X164000002Y-100267323D01*
X164055017Y-100262509D01*
X164220068Y-100248070D01*
X164433450Y-100190894D01*
X164633662Y-100097534D01*
X164814620Y-99970826D01*
X164970826Y-99814620D01*
X165097534Y-99633662D01*
X165190894Y-99433450D01*
X165248070Y-99220068D01*
X165262509Y-99055017D01*
X165267323Y-99000002D01*
X165267323Y-98999997D01*
X167732677Y-98999997D01*
X167732677Y-99000002D01*
X167751929Y-99220062D01*
X167751930Y-99220070D01*
X167809104Y-99433445D01*
X167809105Y-99433447D01*
X167809106Y-99433450D01*
X167830501Y-99479331D01*
X167902466Y-99633662D01*
X167902468Y-99633666D01*
X168029170Y-99814615D01*
X168029175Y-99814621D01*
X168185378Y-99970824D01*
X168185384Y-99970829D01*
X168366333Y-100097531D01*
X168366335Y-100097532D01*
X168366338Y-100097534D01*
X168566550Y-100190894D01*
X168779932Y-100248070D01*
X168921188Y-100260428D01*
X168999998Y-100267323D01*
X169000000Y-100267323D01*
X169000002Y-100267323D01*
X169055017Y-100262509D01*
X169220068Y-100248070D01*
X169433450Y-100190894D01*
X169633662Y-100097534D01*
X169814620Y-99970826D01*
X169970826Y-99814620D01*
X170097534Y-99633662D01*
X170190894Y-99433450D01*
X170248070Y-99220068D01*
X170262509Y-99055017D01*
X170262948Y-99049999D01*
X177745225Y-99049999D01*
X177745225Y-99050000D01*
X177764287Y-99267884D01*
X177764289Y-99267894D01*
X177820894Y-99479150D01*
X177820898Y-99479159D01*
X177913333Y-99677387D01*
X177956874Y-99739571D01*
X178646446Y-99050000D01*
X178606950Y-99010504D01*
X178700000Y-99010504D01*
X178700000Y-99089496D01*
X178720444Y-99165796D01*
X178759940Y-99234205D01*
X178815795Y-99290060D01*
X178884204Y-99329556D01*
X178960504Y-99350000D01*
X179039496Y-99350000D01*
X179115796Y-99329556D01*
X179184205Y-99290060D01*
X179240060Y-99234205D01*
X179279556Y-99165796D01*
X179300000Y-99089496D01*
X179300000Y-99049999D01*
X179353553Y-99049999D01*
X179353553Y-99050000D01*
X180043124Y-99739570D01*
X180086668Y-99677385D01*
X180086669Y-99677383D01*
X180179100Y-99479164D01*
X180179105Y-99479150D01*
X180235710Y-99267894D01*
X180235712Y-99267884D01*
X180254775Y-99050000D01*
X180254775Y-99049999D01*
X180235712Y-98832115D01*
X180235710Y-98832105D01*
X180179105Y-98620849D01*
X180179101Y-98620840D01*
X180086667Y-98422614D01*
X180086666Y-98422612D01*
X180043124Y-98360428D01*
X180043124Y-98360427D01*
X179353553Y-99049999D01*
X179300000Y-99049999D01*
X179300000Y-99010504D01*
X179279556Y-98934204D01*
X179240060Y-98865795D01*
X179184205Y-98809940D01*
X179115796Y-98770444D01*
X179039496Y-98750000D01*
X178960504Y-98750000D01*
X178884204Y-98770444D01*
X178815795Y-98809940D01*
X178759940Y-98865795D01*
X178720444Y-98934204D01*
X178700000Y-99010504D01*
X178606950Y-99010504D01*
X177956874Y-98360428D01*
X177913333Y-98422613D01*
X177820898Y-98620840D01*
X177820894Y-98620849D01*
X177764289Y-98832105D01*
X177764287Y-98832115D01*
X177745225Y-99049999D01*
X170262948Y-99049999D01*
X170267323Y-99000002D01*
X170267323Y-98999997D01*
X170258398Y-98897983D01*
X170248070Y-98779932D01*
X170190894Y-98566550D01*
X170097534Y-98366339D01*
X170011258Y-98243123D01*
X169970827Y-98185381D01*
X169960803Y-98175357D01*
X169814620Y-98029174D01*
X169814616Y-98029171D01*
X169814615Y-98029170D01*
X169782773Y-98006874D01*
X178310428Y-98006874D01*
X179000000Y-98696446D01*
X179000001Y-98696446D01*
X179689571Y-98006874D01*
X179627387Y-97963333D01*
X179429159Y-97870898D01*
X179429150Y-97870894D01*
X179217894Y-97814289D01*
X179217884Y-97814287D01*
X179000001Y-97795225D01*
X178999999Y-97795225D01*
X178782115Y-97814287D01*
X178782105Y-97814289D01*
X178570849Y-97870894D01*
X178570840Y-97870898D01*
X178372613Y-97963333D01*
X178310428Y-98006874D01*
X169782773Y-98006874D01*
X169633666Y-97902468D01*
X169633662Y-97902466D01*
X169633660Y-97902465D01*
X169433450Y-97809106D01*
X169433447Y-97809105D01*
X169433445Y-97809104D01*
X169220070Y-97751930D01*
X169220062Y-97751929D01*
X169000002Y-97732677D01*
X168999998Y-97732677D01*
X168779937Y-97751929D01*
X168779929Y-97751930D01*
X168566554Y-97809104D01*
X168566548Y-97809107D01*
X168366340Y-97902465D01*
X168366338Y-97902466D01*
X168185377Y-98029175D01*
X168029175Y-98185377D01*
X167902466Y-98366338D01*
X167902465Y-98366340D01*
X167809107Y-98566548D01*
X167809104Y-98566554D01*
X167751930Y-98779929D01*
X167751929Y-98779937D01*
X167732677Y-98999997D01*
X165267323Y-98999997D01*
X165258398Y-98897983D01*
X165248070Y-98779932D01*
X165190894Y-98566550D01*
X165097534Y-98366339D01*
X165011258Y-98243123D01*
X164970827Y-98185381D01*
X164960803Y-98175357D01*
X164814620Y-98029174D01*
X164814616Y-98029171D01*
X164814615Y-98029170D01*
X164633666Y-97902468D01*
X164633662Y-97902466D01*
X164633660Y-97902465D01*
X164433450Y-97809106D01*
X164433447Y-97809105D01*
X164433445Y-97809104D01*
X164220070Y-97751930D01*
X164220062Y-97751929D01*
X164000002Y-97732677D01*
X163999998Y-97732677D01*
X163779937Y-97751929D01*
X163779929Y-97751930D01*
X163566554Y-97809104D01*
X163566548Y-97809107D01*
X163366340Y-97902465D01*
X163366338Y-97902466D01*
X163185377Y-98029175D01*
X163029175Y-98185377D01*
X162902466Y-98366338D01*
X162902465Y-98366340D01*
X162809107Y-98566548D01*
X162809104Y-98566554D01*
X162751930Y-98779929D01*
X162751929Y-98779937D01*
X162732677Y-98999997D01*
X157250500Y-98999997D01*
X157250500Y-98926079D01*
X157221659Y-98781092D01*
X157221658Y-98781091D01*
X157221658Y-98781087D01*
X157217250Y-98770444D01*
X157165087Y-98644511D01*
X157165080Y-98644498D01*
X157082952Y-98521585D01*
X157067941Y-98506574D01*
X156978416Y-98417049D01*
X156649769Y-98088402D01*
X155478421Y-96917052D01*
X155478414Y-96917046D01*
X155404729Y-96867812D01*
X155404729Y-96867813D01*
X155355491Y-96834913D01*
X155218917Y-96778343D01*
X155218907Y-96778340D01*
X155073920Y-96749500D01*
X155073918Y-96749500D01*
X149128163Y-96749500D01*
X149061124Y-96729815D01*
X149049504Y-96721358D01*
X149030625Y-96705864D01*
X149030624Y-96705863D01*
X149030621Y-96705861D01*
X149030619Y-96705860D01*
X148865502Y-96617604D01*
X148686333Y-96563253D01*
X148686331Y-96563252D01*
X148500000Y-96544901D01*
X148313668Y-96563252D01*
X148313666Y-96563253D01*
X148134497Y-96617604D01*
X147969376Y-96705862D01*
X147969373Y-96705864D01*
X147824642Y-96824642D01*
X147705864Y-96969373D01*
X147705862Y-96969376D01*
X147617604Y-97134497D01*
X147563253Y-97313666D01*
X147563252Y-97313668D01*
X147544901Y-97500000D01*
X147563252Y-97686331D01*
X147563253Y-97686333D01*
X147617604Y-97865502D01*
X147705862Y-98030623D01*
X147705864Y-98030626D01*
X147824642Y-98175357D01*
X147969373Y-98294135D01*
X147969376Y-98294137D01*
X148134494Y-98382394D01*
X148134496Y-98382394D01*
X148134499Y-98382396D01*
X148260517Y-98420623D01*
X148318954Y-98458920D01*
X148347410Y-98522732D01*
X148336850Y-98591799D01*
X148290626Y-98644193D01*
X148276925Y-98651665D01*
X148067267Y-98749431D01*
X148067265Y-98749432D01*
X147880858Y-98879954D01*
X147719954Y-99040858D01*
X147589433Y-99227264D01*
X147589432Y-99227266D01*
X147570492Y-99267884D01*
X147562106Y-99285867D01*
X147515933Y-99338306D01*
X147448739Y-99357457D01*
X147381858Y-99337241D01*
X147337342Y-99285865D01*
X147310135Y-99227520D01*
X147310134Y-99227518D01*
X147179657Y-99041179D01*
X147018820Y-98880342D01*
X146832482Y-98749865D01*
X146626328Y-98653734D01*
X146430000Y-98601127D01*
X146430000Y-99564314D01*
X146425606Y-99559920D01*
X146334394Y-99507259D01*
X146232661Y-99480000D01*
X146127339Y-99480000D01*
X146025606Y-99507259D01*
X145934394Y-99559920D01*
X145930000Y-99564314D01*
X145930000Y-98601127D01*
X145733671Y-98653734D01*
X145527517Y-98749865D01*
X145341179Y-98880342D01*
X145180342Y-99041179D01*
X145049865Y-99227517D01*
X144953734Y-99433673D01*
X144953730Y-99433682D01*
X144901127Y-99629999D01*
X144901128Y-99630000D01*
X145864314Y-99630000D01*
X145859920Y-99634394D01*
X145807259Y-99725606D01*
X145780000Y-99827339D01*
X145780000Y-99932661D01*
X145807259Y-100034394D01*
X145859920Y-100125606D01*
X145864314Y-100130000D01*
X144901128Y-100130000D01*
X144953730Y-100326317D01*
X144953734Y-100326326D01*
X145049865Y-100532482D01*
X145180342Y-100718820D01*
X145341179Y-100879657D01*
X145527517Y-101010134D01*
X145733673Y-101106265D01*
X145733682Y-101106269D01*
X145929999Y-101158872D01*
X145930000Y-101158871D01*
X145930000Y-100195686D01*
X145934394Y-100200080D01*
X146025606Y-100252741D01*
X146127339Y-100280000D01*
X146232661Y-100280000D01*
X146334394Y-100252741D01*
X146425606Y-100200080D01*
X146430000Y-100195686D01*
X146430000Y-101158872D01*
X146626317Y-101106269D01*
X146626326Y-101106265D01*
X146832482Y-101010134D01*
X147018820Y-100879657D01*
X147179657Y-100718820D01*
X147310132Y-100532484D01*
X147337341Y-100474134D01*
X147383513Y-100421695D01*
X147450707Y-100402542D01*
X147517588Y-100422757D01*
X147562106Y-100474133D01*
X147589431Y-100532732D01*
X147589432Y-100532734D01*
X147719954Y-100719141D01*
X147880858Y-100880045D01*
X147880861Y-100880047D01*
X148067266Y-101010568D01*
X148273504Y-101106739D01*
X148493308Y-101165635D01*
X148655230Y-101179801D01*
X148719998Y-101185468D01*
X148720000Y-101185468D01*
X148720002Y-101185468D01*
X148776807Y-101180498D01*
X148946692Y-101165635D01*
X149166496Y-101106739D01*
X149372734Y-101010568D01*
X149559139Y-100880047D01*
X149720047Y-100719139D01*
X149850568Y-100532734D01*
X149877618Y-100474724D01*
X149923790Y-100422285D01*
X149990983Y-100403133D01*
X150057865Y-100423348D01*
X150102382Y-100474725D01*
X150129429Y-100532728D01*
X150129432Y-100532734D01*
X150259954Y-100719141D01*
X150420858Y-100880045D01*
X150420861Y-100880047D01*
X150607266Y-101010568D01*
X150813504Y-101106739D01*
X151033308Y-101165635D01*
X151195230Y-101179801D01*
X151259998Y-101185468D01*
X151260000Y-101185468D01*
X151260002Y-101185468D01*
X151316807Y-101180498D01*
X151486692Y-101165635D01*
X151706496Y-101106739D01*
X151912734Y-101010568D01*
X152099139Y-100880047D01*
X152260047Y-100719139D01*
X152277272Y-100694539D01*
X152331848Y-100650913D01*
X152401346Y-100643718D01*
X152463701Y-100675239D01*
X152499116Y-100735468D01*
X152502138Y-100752406D01*
X152505908Y-100787483D01*
X152556202Y-100922328D01*
X152556206Y-100922335D01*
X152642452Y-101037544D01*
X152642455Y-101037547D01*
X152757664Y-101123793D01*
X152757671Y-101123797D01*
X152892517Y-101174091D01*
X152892516Y-101174091D01*
X152899444Y-101174835D01*
X152952127Y-101180500D01*
X154647872Y-101180499D01*
X154707483Y-101174091D01*
X154842331Y-101123796D01*
X154957546Y-101037546D01*
X155043796Y-100922331D01*
X155094091Y-100787483D01*
X155100500Y-100727873D01*
X155100499Y-99032128D01*
X155094091Y-98972517D01*
X155094090Y-98972515D01*
X155093470Y-98966743D01*
X155105877Y-98897983D01*
X155153487Y-98846847D01*
X155221187Y-98829568D01*
X155287481Y-98851633D01*
X155304441Y-98865808D01*
X155713181Y-99274548D01*
X155746666Y-99335871D01*
X155749500Y-99362229D01*
X155749500Y-108088770D01*
X155729815Y-108155809D01*
X155677011Y-108201564D01*
X155607853Y-108211508D01*
X155544297Y-108182483D01*
X155537819Y-108176451D01*
X155126716Y-107765348D01*
X155093231Y-107704025D01*
X155090869Y-107666863D01*
X155105468Y-107500000D01*
X155085635Y-107273308D01*
X155026739Y-107053504D01*
X154930568Y-106847266D01*
X154800047Y-106660861D01*
X154800045Y-106660858D01*
X154639141Y-106499954D01*
X154452734Y-106369432D01*
X154452732Y-106369431D01*
X154246497Y-106273261D01*
X154246488Y-106273258D01*
X154026697Y-106214366D01*
X154026693Y-106214365D01*
X154026692Y-106214365D01*
X154026691Y-106214364D01*
X154026686Y-106214364D01*
X153800002Y-106194532D01*
X153799998Y-106194532D01*
X153573313Y-106214364D01*
X153573302Y-106214366D01*
X153353511Y-106273258D01*
X153353502Y-106273261D01*
X153147267Y-106369431D01*
X153147265Y-106369432D01*
X152960858Y-106499954D01*
X152799954Y-106660858D01*
X152669432Y-106847265D01*
X152669431Y-106847267D01*
X152642382Y-106905275D01*
X152596209Y-106957714D01*
X152529016Y-106976866D01*
X152462135Y-106956650D01*
X152417618Y-106905275D01*
X152390568Y-106847267D01*
X152390567Y-106847265D01*
X152260045Y-106660858D01*
X152099141Y-106499954D01*
X151912734Y-106369432D01*
X151912732Y-106369431D01*
X151706497Y-106273261D01*
X151706488Y-106273258D01*
X151486697Y-106214366D01*
X151486693Y-106214365D01*
X151486692Y-106214365D01*
X151486691Y-106214364D01*
X151486686Y-106214364D01*
X151260002Y-106194532D01*
X151259998Y-106194532D01*
X151033313Y-106214364D01*
X151033302Y-106214366D01*
X150813511Y-106273258D01*
X150813502Y-106273261D01*
X150607267Y-106369431D01*
X150607265Y-106369432D01*
X150420858Y-106499954D01*
X150259954Y-106660858D01*
X150129432Y-106847265D01*
X150129431Y-106847267D01*
X150102382Y-106905275D01*
X150056209Y-106957714D01*
X149989016Y-106976866D01*
X149922135Y-106956650D01*
X149877618Y-106905275D01*
X149850568Y-106847267D01*
X149850567Y-106847265D01*
X149720045Y-106660858D01*
X149559141Y-106499954D01*
X149372734Y-106369432D01*
X149372732Y-106369431D01*
X149166497Y-106273261D01*
X149166488Y-106273258D01*
X148946697Y-106214366D01*
X148946693Y-106214365D01*
X148946692Y-106214365D01*
X148946691Y-106214364D01*
X148946686Y-106214364D01*
X148720002Y-106194532D01*
X148719998Y-106194532D01*
X148493313Y-106214364D01*
X148493302Y-106214366D01*
X148273511Y-106273258D01*
X148273502Y-106273261D01*
X148067267Y-106369431D01*
X148067265Y-106369432D01*
X147880858Y-106499954D01*
X147719954Y-106660858D01*
X147589432Y-106847265D01*
X147589431Y-106847267D01*
X147562382Y-106905275D01*
X147516209Y-106957714D01*
X147449016Y-106976866D01*
X147382135Y-106956650D01*
X147337618Y-106905275D01*
X147310568Y-106847267D01*
X147310567Y-106847265D01*
X147180045Y-106660858D01*
X147019141Y-106499954D01*
X146832734Y-106369432D01*
X146832732Y-106369431D01*
X146626497Y-106273261D01*
X146626488Y-106273258D01*
X146406697Y-106214366D01*
X146406693Y-106214365D01*
X146406692Y-106214365D01*
X146406691Y-106214364D01*
X146406686Y-106214364D01*
X146180002Y-106194532D01*
X146179998Y-106194532D01*
X145953313Y-106214364D01*
X145953302Y-106214366D01*
X145733511Y-106273258D01*
X145733502Y-106273261D01*
X145527267Y-106369431D01*
X145527265Y-106369432D01*
X145340858Y-106499954D01*
X145179954Y-106660858D01*
X145049432Y-106847265D01*
X145049431Y-106847267D01*
X144953261Y-107053502D01*
X144953258Y-107053511D01*
X144894366Y-107273302D01*
X144894364Y-107273313D01*
X144874532Y-107499998D01*
X144874532Y-107500001D01*
X144894364Y-107726686D01*
X144894366Y-107726697D01*
X144953258Y-107946488D01*
X144953261Y-107946497D01*
X145049431Y-108152732D01*
X145049432Y-108152734D01*
X145179954Y-108339141D01*
X145340858Y-108500045D01*
X145340861Y-108500047D01*
X145527266Y-108630568D01*
X145733504Y-108726739D01*
X145953308Y-108785635D01*
X146115230Y-108799801D01*
X146179998Y-108805468D01*
X146180000Y-108805468D01*
X146180002Y-108805468D01*
X146236673Y-108800509D01*
X146406692Y-108785635D01*
X146626496Y-108726739D01*
X146832734Y-108630568D01*
X147019139Y-108500047D01*
X147180047Y-108339139D01*
X147310568Y-108152734D01*
X147337618Y-108094724D01*
X147383790Y-108042285D01*
X147450983Y-108023133D01*
X147517865Y-108043348D01*
X147562382Y-108094725D01*
X147589429Y-108152728D01*
X147589432Y-108152734D01*
X147719954Y-108339141D01*
X147880858Y-108500045D01*
X147880861Y-108500047D01*
X148067266Y-108630568D01*
X148273504Y-108726739D01*
X148493308Y-108785635D01*
X148655230Y-108799801D01*
X148719998Y-108805468D01*
X148720000Y-108805468D01*
X148720002Y-108805468D01*
X148776673Y-108800509D01*
X148946692Y-108785635D01*
X149166496Y-108726739D01*
X149372734Y-108630568D01*
X149559139Y-108500047D01*
X149720047Y-108339139D01*
X149850568Y-108152734D01*
X149877618Y-108094724D01*
X149923790Y-108042285D01*
X149990983Y-108023133D01*
X150057865Y-108043348D01*
X150102382Y-108094725D01*
X150129429Y-108152728D01*
X150129432Y-108152734D01*
X150259954Y-108339141D01*
X150420858Y-108500045D01*
X150420861Y-108500047D01*
X150607266Y-108630568D01*
X150813504Y-108726739D01*
X151033308Y-108785635D01*
X151195230Y-108799801D01*
X151259998Y-108805468D01*
X151260000Y-108805468D01*
X151260002Y-108805468D01*
X151316673Y-108800509D01*
X151486692Y-108785635D01*
X151706496Y-108726739D01*
X151912734Y-108630568D01*
X152099139Y-108500047D01*
X152260047Y-108339139D01*
X152390568Y-108152734D01*
X152417618Y-108094724D01*
X152463790Y-108042285D01*
X152530983Y-108023133D01*
X152597865Y-108043348D01*
X152642382Y-108094725D01*
X152669429Y-108152728D01*
X152669432Y-108152734D01*
X152799954Y-108339141D01*
X152960858Y-108500045D01*
X152960861Y-108500047D01*
X153147266Y-108630568D01*
X153353504Y-108726739D01*
X153573308Y-108785635D01*
X153735230Y-108799801D01*
X153799998Y-108805468D01*
X153800000Y-108805468D01*
X153800001Y-108805468D01*
X153820062Y-108803712D01*
X153966861Y-108790869D01*
X154035359Y-108804635D01*
X154065348Y-108826716D01*
X155713181Y-110474548D01*
X155746666Y-110535871D01*
X155749500Y-110562229D01*
X155749500Y-112013328D01*
X155729815Y-112080367D01*
X155681795Y-112123813D01*
X155542180Y-112194951D01*
X155370213Y-112319890D01*
X155219894Y-112470209D01*
X155219890Y-112470214D01*
X155100318Y-112634793D01*
X155044989Y-112677459D01*
X154975375Y-112683438D01*
X154913580Y-112650833D01*
X154899682Y-112634793D01*
X154780109Y-112470214D01*
X154780105Y-112470209D01*
X154629786Y-112319890D01*
X154457820Y-112194951D01*
X154268414Y-112098444D01*
X154268413Y-112098443D01*
X154268412Y-112098443D01*
X154066243Y-112032754D01*
X154066241Y-112032753D01*
X154066240Y-112032753D01*
X153904957Y-112007208D01*
X153856287Y-111999500D01*
X153643713Y-111999500D01*
X153595042Y-112007208D01*
X153433760Y-112032753D01*
X153231585Y-112098444D01*
X153042179Y-112194951D01*
X152870213Y-112319890D01*
X152719894Y-112470209D01*
X152719890Y-112470214D01*
X152600318Y-112634793D01*
X152544989Y-112677459D01*
X152475375Y-112683438D01*
X152413580Y-112650833D01*
X152399682Y-112634793D01*
X152280109Y-112470214D01*
X152280105Y-112470209D01*
X152129786Y-112319890D01*
X151957820Y-112194951D01*
X151768414Y-112098444D01*
X151768413Y-112098443D01*
X151768412Y-112098443D01*
X151566243Y-112032754D01*
X151566241Y-112032753D01*
X151566240Y-112032753D01*
X151404957Y-112007208D01*
X151356287Y-111999500D01*
X151143713Y-111999500D01*
X151095042Y-112007208D01*
X150933760Y-112032753D01*
X150731585Y-112098444D01*
X150542179Y-112194951D01*
X150370213Y-112319890D01*
X150219894Y-112470209D01*
X150219890Y-112470214D01*
X150100318Y-112634793D01*
X150044989Y-112677459D01*
X149975375Y-112683438D01*
X149913580Y-112650833D01*
X149899682Y-112634793D01*
X149780109Y-112470214D01*
X149780105Y-112470209D01*
X149629786Y-112319890D01*
X149457820Y-112194951D01*
X149268414Y-112098444D01*
X149268413Y-112098443D01*
X149268412Y-112098443D01*
X149066243Y-112032754D01*
X149066241Y-112032753D01*
X149066240Y-112032753D01*
X148904957Y-112007208D01*
X148856287Y-111999500D01*
X148643713Y-111999500D01*
X148595042Y-112007208D01*
X148433760Y-112032753D01*
X148231585Y-112098444D01*
X148042179Y-112194951D01*
X147870213Y-112319890D01*
X147719894Y-112470209D01*
X147719890Y-112470214D01*
X147600318Y-112634793D01*
X147544989Y-112677459D01*
X147475375Y-112683438D01*
X147413580Y-112650833D01*
X147399682Y-112634793D01*
X147280109Y-112470214D01*
X147280105Y-112470209D01*
X147129786Y-112319890D01*
X146957820Y-112194951D01*
X146768414Y-112098444D01*
X146768413Y-112098443D01*
X146768412Y-112098443D01*
X146566243Y-112032754D01*
X146566241Y-112032753D01*
X146566240Y-112032753D01*
X146404957Y-112007208D01*
X146356287Y-111999500D01*
X146143713Y-111999500D01*
X146095042Y-112007208D01*
X145933760Y-112032753D01*
X145731585Y-112098444D01*
X145542179Y-112194951D01*
X145370215Y-112319889D01*
X145231035Y-112459069D01*
X145169712Y-112492553D01*
X145100020Y-112487569D01*
X145044087Y-112445697D01*
X145037815Y-112436484D01*
X144942315Y-112281654D01*
X144818345Y-112157684D01*
X144669124Y-112065643D01*
X144669119Y-112065641D01*
X144502697Y-112010494D01*
X144502690Y-112010493D01*
X144399986Y-112000000D01*
X144000000Y-112000000D01*
X144000000Y-113070854D01*
X143933343Y-113032370D01*
X143812535Y-113000000D01*
X143687465Y-113000000D01*
X143566657Y-113032370D01*
X143500000Y-113070854D01*
X143500000Y-112000000D01*
X143100028Y-112000000D01*
X143100012Y-112000001D01*
X142997302Y-112010494D01*
X142830880Y-112065641D01*
X142830875Y-112065643D01*
X142681654Y-112157684D01*
X142557684Y-112281654D01*
X142465643Y-112430875D01*
X142465641Y-112430880D01*
X142410494Y-112597302D01*
X142410493Y-112597309D01*
X142400000Y-112700013D01*
X123069248Y-112700013D01*
X113048676Y-105037222D01*
X113007380Y-104980863D01*
X113000000Y-104938722D01*
X113000000Y-101993124D01*
X120310427Y-101993124D01*
X120372612Y-102036666D01*
X120570840Y-102129101D01*
X120570849Y-102129105D01*
X120782105Y-102185710D01*
X120782115Y-102185712D01*
X120999999Y-102204775D01*
X121000001Y-102204775D01*
X121217884Y-102185712D01*
X121217894Y-102185710D01*
X121429150Y-102129105D01*
X121429164Y-102129100D01*
X121627383Y-102036669D01*
X121627385Y-102036668D01*
X121689571Y-101993124D01*
X121000001Y-101303553D01*
X121000000Y-101303553D01*
X120310427Y-101993124D01*
X113000000Y-101993124D01*
X113000000Y-100949999D01*
X119745225Y-100949999D01*
X119745225Y-100950000D01*
X119764287Y-101167884D01*
X119764289Y-101167894D01*
X119820894Y-101379150D01*
X119820898Y-101379159D01*
X119913333Y-101577387D01*
X119956874Y-101639571D01*
X120646446Y-100950000D01*
X120606950Y-100910504D01*
X120700000Y-100910504D01*
X120700000Y-100989496D01*
X120720444Y-101065796D01*
X120759940Y-101134205D01*
X120815795Y-101190060D01*
X120884204Y-101229556D01*
X120960504Y-101250000D01*
X121039496Y-101250000D01*
X121115796Y-101229556D01*
X121184205Y-101190060D01*
X121240060Y-101134205D01*
X121279556Y-101065796D01*
X121300000Y-100989496D01*
X121300000Y-100949999D01*
X121353553Y-100949999D01*
X121353553Y-100950000D01*
X122043124Y-101639570D01*
X122086668Y-101577385D01*
X122086669Y-101577383D01*
X122179100Y-101379164D01*
X122179105Y-101379150D01*
X122235710Y-101167894D01*
X122235712Y-101167884D01*
X122254775Y-100950000D01*
X122254775Y-100949999D01*
X122235712Y-100732115D01*
X122235710Y-100732105D01*
X122179105Y-100520849D01*
X122179101Y-100520840D01*
X122086667Y-100322614D01*
X122086666Y-100322612D01*
X122043124Y-100260428D01*
X122043124Y-100260427D01*
X121353553Y-100949999D01*
X121300000Y-100949999D01*
X121300000Y-100910504D01*
X121279556Y-100834204D01*
X121240060Y-100765795D01*
X121184205Y-100709940D01*
X121115796Y-100670444D01*
X121039496Y-100650000D01*
X120960504Y-100650000D01*
X120884204Y-100670444D01*
X120815795Y-100709940D01*
X120759940Y-100765795D01*
X120720444Y-100834204D01*
X120700000Y-100910504D01*
X120606950Y-100910504D01*
X119956874Y-100260428D01*
X119913333Y-100322613D01*
X119820898Y-100520840D01*
X119820894Y-100520849D01*
X119764289Y-100732105D01*
X119764287Y-100732115D01*
X119745225Y-100949999D01*
X113000000Y-100949999D01*
X113000000Y-99049997D01*
X119744723Y-99049997D01*
X119744723Y-99050002D01*
X119748178Y-99089496D01*
X119760838Y-99234205D01*
X119763793Y-99267975D01*
X119763793Y-99267979D01*
X119820422Y-99479322D01*
X119820424Y-99479326D01*
X119820425Y-99479330D01*
X119821264Y-99481129D01*
X119912897Y-99677638D01*
X119912898Y-99677639D01*
X120038402Y-99856877D01*
X120193123Y-100011598D01*
X120372361Y-100137102D01*
X120570670Y-100229575D01*
X120570677Y-100229576D01*
X120570682Y-100229579D01*
X120607105Y-100239337D01*
X120623895Y-100243836D01*
X120679484Y-100275930D01*
X120999999Y-100596445D01*
X121320513Y-100275930D01*
X121376097Y-100243838D01*
X121429330Y-100229575D01*
X121627639Y-100137102D01*
X121806877Y-100011598D01*
X121961598Y-99856877D01*
X122087102Y-99677639D01*
X122179575Y-99479330D01*
X122236207Y-99267977D01*
X122255277Y-99050000D01*
X122254477Y-99040861D01*
X122250902Y-98999997D01*
X129732677Y-98999997D01*
X129732677Y-99000002D01*
X129751929Y-99220062D01*
X129751930Y-99220070D01*
X129809104Y-99433445D01*
X129809105Y-99433447D01*
X129809106Y-99433450D01*
X129830501Y-99479331D01*
X129902466Y-99633662D01*
X129902468Y-99633666D01*
X130029170Y-99814615D01*
X130029175Y-99814621D01*
X130185378Y-99970824D01*
X130185384Y-99970829D01*
X130366333Y-100097531D01*
X130366335Y-100097532D01*
X130366338Y-100097534D01*
X130566550Y-100190894D01*
X130779932Y-100248070D01*
X130921188Y-100260428D01*
X130999998Y-100267323D01*
X131000000Y-100267323D01*
X131000002Y-100267323D01*
X131055017Y-100262509D01*
X131220068Y-100248070D01*
X131433450Y-100190894D01*
X131633662Y-100097534D01*
X131814620Y-99970826D01*
X131970826Y-99814620D01*
X132097534Y-99633662D01*
X132190894Y-99433450D01*
X132248070Y-99220068D01*
X132262509Y-99055017D01*
X132267323Y-99000002D01*
X132267323Y-98999997D01*
X134732677Y-98999997D01*
X134732677Y-99000002D01*
X134751929Y-99220062D01*
X134751930Y-99220070D01*
X134809104Y-99433445D01*
X134809105Y-99433447D01*
X134809106Y-99433450D01*
X134830501Y-99479331D01*
X134902466Y-99633662D01*
X134902468Y-99633666D01*
X135029170Y-99814615D01*
X135029175Y-99814621D01*
X135185378Y-99970824D01*
X135185384Y-99970829D01*
X135366333Y-100097531D01*
X135366335Y-100097532D01*
X135366338Y-100097534D01*
X135566550Y-100190894D01*
X135779932Y-100248070D01*
X135921188Y-100260428D01*
X135999998Y-100267323D01*
X136000000Y-100267323D01*
X136000002Y-100267323D01*
X136055017Y-100262509D01*
X136220068Y-100248070D01*
X136433450Y-100190894D01*
X136633662Y-100097534D01*
X136814620Y-99970826D01*
X136970826Y-99814620D01*
X137097534Y-99633662D01*
X137190894Y-99433450D01*
X137248070Y-99220068D01*
X137262509Y-99055017D01*
X137267323Y-99000002D01*
X137267323Y-98999997D01*
X137258398Y-98897983D01*
X137248070Y-98779932D01*
X137190894Y-98566550D01*
X137097534Y-98366339D01*
X137011258Y-98243123D01*
X136970827Y-98185381D01*
X136960803Y-98175357D01*
X136814620Y-98029174D01*
X136814616Y-98029171D01*
X136814615Y-98029170D01*
X136633666Y-97902468D01*
X136633662Y-97902466D01*
X136633660Y-97902465D01*
X136433450Y-97809106D01*
X136433447Y-97809105D01*
X136433445Y-97809104D01*
X136220070Y-97751930D01*
X136220062Y-97751929D01*
X136000002Y-97732677D01*
X135999998Y-97732677D01*
X135779937Y-97751929D01*
X135779929Y-97751930D01*
X135566554Y-97809104D01*
X135566548Y-97809107D01*
X135366340Y-97902465D01*
X135366338Y-97902466D01*
X135185377Y-98029175D01*
X135029175Y-98185377D01*
X134902466Y-98366338D01*
X134902465Y-98366340D01*
X134809107Y-98566548D01*
X134809104Y-98566554D01*
X134751930Y-98779929D01*
X134751929Y-98779937D01*
X134732677Y-98999997D01*
X132267323Y-98999997D01*
X132258398Y-98897983D01*
X132248070Y-98779932D01*
X132190894Y-98566550D01*
X132097534Y-98366339D01*
X132011258Y-98243123D01*
X131970827Y-98185381D01*
X131960803Y-98175357D01*
X131814620Y-98029174D01*
X131814616Y-98029171D01*
X131814615Y-98029170D01*
X131633666Y-97902468D01*
X131633662Y-97902466D01*
X131633660Y-97902465D01*
X131433450Y-97809106D01*
X131433447Y-97809105D01*
X131433445Y-97809104D01*
X131220070Y-97751930D01*
X131220062Y-97751929D01*
X131000002Y-97732677D01*
X130999998Y-97732677D01*
X130779937Y-97751929D01*
X130779929Y-97751930D01*
X130566554Y-97809104D01*
X130566548Y-97809107D01*
X130366340Y-97902465D01*
X130366338Y-97902466D01*
X130185377Y-98029175D01*
X130029175Y-98185377D01*
X129902466Y-98366338D01*
X129902465Y-98366340D01*
X129809107Y-98566548D01*
X129809104Y-98566554D01*
X129751930Y-98779929D01*
X129751929Y-98779937D01*
X129732677Y-98999997D01*
X122250902Y-98999997D01*
X122245146Y-98934204D01*
X122236207Y-98832023D01*
X122199879Y-98696446D01*
X122179577Y-98620677D01*
X122179576Y-98620676D01*
X122179575Y-98620670D01*
X122087102Y-98422362D01*
X122087100Y-98422359D01*
X122087099Y-98422357D01*
X121961599Y-98243124D01*
X121893832Y-98175357D01*
X121806877Y-98088402D01*
X121668978Y-97991844D01*
X121627638Y-97962897D01*
X121498040Y-97902465D01*
X121429330Y-97870425D01*
X121429326Y-97870424D01*
X121429322Y-97870422D01*
X121217977Y-97813793D01*
X121000002Y-97794723D01*
X120999998Y-97794723D01*
X120854682Y-97807436D01*
X120782023Y-97813793D01*
X120782020Y-97813793D01*
X120570677Y-97870422D01*
X120570668Y-97870426D01*
X120372361Y-97962898D01*
X120372357Y-97962900D01*
X120193121Y-98088402D01*
X120038402Y-98243121D01*
X119912900Y-98422357D01*
X119912898Y-98422361D01*
X119820426Y-98620668D01*
X119820422Y-98620677D01*
X119763793Y-98832020D01*
X119763793Y-98832023D01*
X119763299Y-98837669D01*
X119744723Y-99049997D01*
X113000000Y-99049997D01*
X113000000Y-96499997D01*
X132232677Y-96499997D01*
X132232677Y-96500002D01*
X132251929Y-96720062D01*
X132251930Y-96720070D01*
X132309104Y-96933445D01*
X132309105Y-96933447D01*
X132309106Y-96933450D01*
X132340139Y-97000000D01*
X132402466Y-97133662D01*
X132402468Y-97133666D01*
X132529170Y-97314615D01*
X132529175Y-97314621D01*
X132685378Y-97470824D01*
X132685384Y-97470829D01*
X132866333Y-97597531D01*
X132866335Y-97597532D01*
X132866338Y-97597534D01*
X133066550Y-97690894D01*
X133279932Y-97748070D01*
X133437123Y-97761822D01*
X133499998Y-97767323D01*
X133500000Y-97767323D01*
X133500002Y-97767323D01*
X133555017Y-97762509D01*
X133720068Y-97748070D01*
X133933450Y-97690894D01*
X134133662Y-97597534D01*
X134314620Y-97470826D01*
X134470826Y-97314620D01*
X134597534Y-97133662D01*
X134690894Y-96933450D01*
X134748070Y-96720068D01*
X134767323Y-96500000D01*
X134748070Y-96279932D01*
X134690894Y-96066550D01*
X134597534Y-95866339D01*
X134470826Y-95685380D01*
X134314620Y-95529174D01*
X134314616Y-95529171D01*
X134314615Y-95529170D01*
X134133666Y-95402468D01*
X134133662Y-95402466D01*
X134133660Y-95402465D01*
X133933450Y-95309106D01*
X133933447Y-95309105D01*
X133933445Y-95309104D01*
X133720070Y-95251930D01*
X133720062Y-95251929D01*
X133500002Y-95232677D01*
X133499998Y-95232677D01*
X133279937Y-95251929D01*
X133279929Y-95251930D01*
X133066554Y-95309104D01*
X133066548Y-95309107D01*
X132866340Y-95402465D01*
X132866338Y-95402466D01*
X132685377Y-95529175D01*
X132529175Y-95685377D01*
X132402466Y-95866338D01*
X132402465Y-95866340D01*
X132309107Y-96066548D01*
X132309104Y-96066554D01*
X132251930Y-96279929D01*
X132251929Y-96279937D01*
X132232677Y-96499997D01*
X113000000Y-96499997D01*
X113000000Y-95061277D01*
X113019685Y-94994238D01*
X113048676Y-94962777D01*
X113557990Y-94573302D01*
X128038462Y-83500000D01*
X137544901Y-83500000D01*
X137563252Y-83686331D01*
X137563253Y-83686333D01*
X137617604Y-83865502D01*
X137705860Y-84030619D01*
X137705861Y-84030621D01*
X137705863Y-84030624D01*
X137705864Y-84030625D01*
X137721352Y-84049497D01*
X137748666Y-84113806D01*
X137749500Y-84128163D01*
X137749500Y-96371836D01*
X137729815Y-96438875D01*
X137721355Y-96450499D01*
X137705864Y-96469375D01*
X137705860Y-96469381D01*
X137617604Y-96634497D01*
X137563253Y-96813666D01*
X137563252Y-96813668D01*
X137544901Y-97000000D01*
X137563252Y-97186331D01*
X137563253Y-97186333D01*
X137617604Y-97365502D01*
X137705862Y-97530623D01*
X137705864Y-97530626D01*
X137824642Y-97675357D01*
X137969373Y-97794135D01*
X137969376Y-97794137D01*
X138134497Y-97882395D01*
X138134499Y-97882396D01*
X138313666Y-97936746D01*
X138313668Y-97936747D01*
X138330374Y-97938392D01*
X138500000Y-97955099D01*
X138686331Y-97936747D01*
X138865501Y-97882396D01*
X139030625Y-97794136D01*
X139175357Y-97675357D01*
X139294136Y-97530625D01*
X139382396Y-97365501D01*
X139436747Y-97186331D01*
X139455099Y-97000000D01*
X139436747Y-96813669D01*
X139382396Y-96634499D01*
X139373365Y-96617604D01*
X139310503Y-96499997D01*
X165232677Y-96499997D01*
X165232677Y-96500002D01*
X165251929Y-96720062D01*
X165251930Y-96720070D01*
X165309104Y-96933445D01*
X165309105Y-96933447D01*
X165309106Y-96933450D01*
X165340139Y-97000000D01*
X165402466Y-97133662D01*
X165402468Y-97133666D01*
X165529170Y-97314615D01*
X165529175Y-97314621D01*
X165685378Y-97470824D01*
X165685384Y-97470829D01*
X165866333Y-97597531D01*
X165866335Y-97597532D01*
X165866338Y-97597534D01*
X166066550Y-97690894D01*
X166279932Y-97748070D01*
X166437123Y-97761822D01*
X166499998Y-97767323D01*
X166500000Y-97767323D01*
X166500002Y-97767323D01*
X166555017Y-97762509D01*
X166720068Y-97748070D01*
X166933450Y-97690894D01*
X167133662Y-97597534D01*
X167314620Y-97470826D01*
X167470826Y-97314620D01*
X167597534Y-97133662D01*
X167690894Y-96933450D01*
X167748070Y-96720068D01*
X167767323Y-96500000D01*
X167748070Y-96279932D01*
X167690894Y-96066550D01*
X167597534Y-95866339D01*
X167470826Y-95685380D01*
X167314620Y-95529174D01*
X167314616Y-95529171D01*
X167314615Y-95529170D01*
X167133666Y-95402468D01*
X167133662Y-95402466D01*
X167133660Y-95402465D01*
X166933450Y-95309106D01*
X166933447Y-95309105D01*
X166933445Y-95309104D01*
X166720070Y-95251930D01*
X166720062Y-95251929D01*
X166500002Y-95232677D01*
X166499998Y-95232677D01*
X166279937Y-95251929D01*
X166279929Y-95251930D01*
X166066554Y-95309104D01*
X166066548Y-95309107D01*
X165866340Y-95402465D01*
X165866338Y-95402466D01*
X165685377Y-95529175D01*
X165529175Y-95685377D01*
X165402466Y-95866338D01*
X165402465Y-95866340D01*
X165309107Y-96066548D01*
X165309104Y-96066554D01*
X165251930Y-96279929D01*
X165251929Y-96279937D01*
X165232677Y-96499997D01*
X139310503Y-96499997D01*
X139294139Y-96469381D01*
X139294136Y-96469375D01*
X139278645Y-96450499D01*
X139251333Y-96386188D01*
X139250500Y-96371836D01*
X139250500Y-87179998D01*
X144874532Y-87179998D01*
X144874532Y-87180001D01*
X144894364Y-87406686D01*
X144894366Y-87406697D01*
X144953258Y-87626488D01*
X144953261Y-87626497D01*
X145049431Y-87832732D01*
X145049432Y-87832734D01*
X145179954Y-88019141D01*
X145340858Y-88180045D01*
X145340861Y-88180047D01*
X145527266Y-88310568D01*
X145584681Y-88337341D01*
X145585275Y-88337618D01*
X145637714Y-88383791D01*
X145656866Y-88450984D01*
X145636650Y-88517865D01*
X145585275Y-88562382D01*
X145527267Y-88589431D01*
X145527265Y-88589432D01*
X145340858Y-88719954D01*
X145179954Y-88880858D01*
X145049432Y-89067265D01*
X145049431Y-89067267D01*
X144953261Y-89273502D01*
X144953258Y-89273511D01*
X144894366Y-89493302D01*
X144894364Y-89493313D01*
X144874532Y-89719998D01*
X144874532Y-89720001D01*
X144894364Y-89946686D01*
X144894366Y-89946697D01*
X144953258Y-90166488D01*
X144953261Y-90166497D01*
X145049431Y-90372732D01*
X145049432Y-90372734D01*
X145179954Y-90559141D01*
X145340858Y-90720045D01*
X145340861Y-90720047D01*
X145527266Y-90850568D01*
X145585275Y-90877618D01*
X145637714Y-90923791D01*
X145656866Y-90990984D01*
X145636650Y-91057865D01*
X145585275Y-91102382D01*
X145527267Y-91129431D01*
X145527265Y-91129432D01*
X145340858Y-91259954D01*
X145179954Y-91420858D01*
X145049432Y-91607265D01*
X145049431Y-91607267D01*
X144953261Y-91813502D01*
X144953258Y-91813511D01*
X144894366Y-92033302D01*
X144894364Y-92033313D01*
X144874532Y-92259998D01*
X144874532Y-92260001D01*
X144894364Y-92486686D01*
X144894366Y-92486697D01*
X144953258Y-92706488D01*
X144953261Y-92706497D01*
X145049431Y-92912732D01*
X145049432Y-92912734D01*
X145179954Y-93099141D01*
X145340858Y-93260045D01*
X145380914Y-93288092D01*
X145527266Y-93390568D01*
X145550384Y-93401348D01*
X145585275Y-93417618D01*
X145637714Y-93463791D01*
X145656866Y-93530984D01*
X145636650Y-93597865D01*
X145585275Y-93642381D01*
X145585118Y-93642455D01*
X145527267Y-93669431D01*
X145527265Y-93669432D01*
X145340858Y-93799954D01*
X145179954Y-93960858D01*
X145049432Y-94147265D01*
X145049431Y-94147267D01*
X144953261Y-94353502D01*
X144953258Y-94353511D01*
X144894366Y-94573302D01*
X144894364Y-94573313D01*
X144874532Y-94799998D01*
X144874532Y-94800001D01*
X144894364Y-95026686D01*
X144894366Y-95026697D01*
X144953258Y-95246488D01*
X144953261Y-95246497D01*
X145049431Y-95452732D01*
X145049432Y-95452734D01*
X145179954Y-95639141D01*
X145340858Y-95800045D01*
X145340861Y-95800047D01*
X145527266Y-95930568D01*
X145733504Y-96026739D01*
X145953308Y-96085635D01*
X146115230Y-96099801D01*
X146179998Y-96105468D01*
X146180000Y-96105468D01*
X146180002Y-96105468D01*
X146236807Y-96100498D01*
X146406692Y-96085635D01*
X146626496Y-96026739D01*
X146832734Y-95930568D01*
X147019139Y-95800047D01*
X147180047Y-95639139D01*
X147310568Y-95452734D01*
X147406739Y-95246496D01*
X147465635Y-95026692D01*
X147485468Y-94800000D01*
X147465635Y-94573308D01*
X147406739Y-94353504D01*
X147310568Y-94147266D01*
X147180047Y-93960861D01*
X147180045Y-93960858D01*
X147019141Y-93799954D01*
X146832734Y-93669432D01*
X146832728Y-93669429D01*
X146774882Y-93642455D01*
X146774724Y-93642381D01*
X146722285Y-93596210D01*
X146703133Y-93529017D01*
X146723348Y-93462135D01*
X146774725Y-93417618D01*
X146832734Y-93390568D01*
X147019139Y-93260047D01*
X147180047Y-93099139D01*
X147310568Y-92912734D01*
X147406739Y-92706496D01*
X147465635Y-92486692D01*
X147485468Y-92260000D01*
X147465635Y-92033308D01*
X147406739Y-91813504D01*
X147310568Y-91607266D01*
X147180047Y-91420861D01*
X147180045Y-91420858D01*
X147019141Y-91259954D01*
X146832734Y-91129432D01*
X146832728Y-91129429D01*
X146774725Y-91102382D01*
X146722285Y-91056210D01*
X146703133Y-90989017D01*
X146723348Y-90922135D01*
X146774725Y-90877618D01*
X146832734Y-90850568D01*
X147019139Y-90720047D01*
X147180047Y-90559139D01*
X147310568Y-90372734D01*
X147406739Y-90166496D01*
X147465635Y-89946692D01*
X147485468Y-89720000D01*
X147485468Y-89719998D01*
X152494532Y-89719998D01*
X152494532Y-89720001D01*
X152514364Y-89946686D01*
X152514366Y-89946697D01*
X152573258Y-90166488D01*
X152573261Y-90166497D01*
X152669431Y-90372732D01*
X152669432Y-90372734D01*
X152799954Y-90559141D01*
X152960858Y-90720045D01*
X152960861Y-90720047D01*
X153147266Y-90850568D01*
X153205275Y-90877618D01*
X153257714Y-90923791D01*
X153276866Y-90990984D01*
X153256650Y-91057865D01*
X153205275Y-91102382D01*
X153147267Y-91129431D01*
X153147265Y-91129432D01*
X152960858Y-91259954D01*
X152799954Y-91420858D01*
X152669432Y-91607265D01*
X152669431Y-91607267D01*
X152573261Y-91813502D01*
X152573258Y-91813511D01*
X152514366Y-92033302D01*
X152514364Y-92033313D01*
X152494532Y-92259998D01*
X152494532Y-92260001D01*
X152514364Y-92486686D01*
X152514366Y-92486697D01*
X152573258Y-92706488D01*
X152573261Y-92706497D01*
X152669431Y-92912732D01*
X152669432Y-92912734D01*
X152799954Y-93099141D01*
X152960858Y-93260045D01*
X152985462Y-93277273D01*
X153029087Y-93331849D01*
X153036281Y-93401348D01*
X153004758Y-93463703D01*
X152944529Y-93499117D01*
X152927593Y-93502138D01*
X152892516Y-93505908D01*
X152757671Y-93556202D01*
X152757664Y-93556206D01*
X152642455Y-93642452D01*
X152642452Y-93642455D01*
X152556206Y-93757664D01*
X152556202Y-93757671D01*
X152505908Y-93892517D01*
X152499501Y-93952116D01*
X152499501Y-93952123D01*
X152499500Y-93952135D01*
X152499500Y-95647870D01*
X152499501Y-95647876D01*
X152505908Y-95707483D01*
X152556202Y-95842328D01*
X152556206Y-95842335D01*
X152642452Y-95957544D01*
X152642455Y-95957547D01*
X152757664Y-96043793D01*
X152757671Y-96043797D01*
X152892517Y-96094091D01*
X152892516Y-96094091D01*
X152899444Y-96094835D01*
X152952127Y-96100500D01*
X154647872Y-96100499D01*
X154707483Y-96094091D01*
X154842331Y-96043796D01*
X154957546Y-95957546D01*
X155043796Y-95842331D01*
X155094091Y-95707483D01*
X155100500Y-95647873D01*
X155100499Y-93952128D01*
X155094091Y-93892517D01*
X155059567Y-93799954D01*
X155043797Y-93757671D01*
X155043793Y-93757664D01*
X154957547Y-93642455D01*
X154957544Y-93642452D01*
X154842335Y-93556206D01*
X154842328Y-93556202D01*
X154707482Y-93505908D01*
X154707483Y-93505908D01*
X154672404Y-93502137D01*
X154607853Y-93475399D01*
X154568005Y-93418006D01*
X154565512Y-93348181D01*
X154601165Y-93288092D01*
X154614539Y-93277272D01*
X154639140Y-93260046D01*
X154800045Y-93099141D01*
X154800047Y-93099139D01*
X154930568Y-92912734D01*
X155026739Y-92706496D01*
X155085635Y-92486692D01*
X155105468Y-92260000D01*
X155085635Y-92033308D01*
X155026739Y-91813504D01*
X154930568Y-91607266D01*
X154800047Y-91420861D01*
X154800045Y-91420858D01*
X154639141Y-91259954D01*
X154452734Y-91129432D01*
X154452728Y-91129429D01*
X154394725Y-91102382D01*
X154342285Y-91056210D01*
X154323133Y-90989017D01*
X154343348Y-90922135D01*
X154394725Y-90877618D01*
X154452734Y-90850568D01*
X154639139Y-90720047D01*
X154800047Y-90559139D01*
X154930568Y-90372734D01*
X155026739Y-90166496D01*
X155085635Y-89946692D01*
X155105468Y-89720000D01*
X155085635Y-89493308D01*
X155026739Y-89273504D01*
X154930568Y-89067266D01*
X154800047Y-88880861D01*
X154800045Y-88880858D01*
X154639141Y-88719954D01*
X154452734Y-88589432D01*
X154452732Y-88589431D01*
X154394725Y-88562382D01*
X154394132Y-88562105D01*
X154341694Y-88515934D01*
X154322542Y-88448740D01*
X154342758Y-88381859D01*
X154394134Y-88337341D01*
X154452484Y-88310132D01*
X154638820Y-88179657D01*
X154799657Y-88018820D01*
X154930134Y-87832482D01*
X155026265Y-87626326D01*
X155026269Y-87626317D01*
X155078872Y-87430000D01*
X154115686Y-87430000D01*
X154120080Y-87425606D01*
X154172741Y-87334394D01*
X154200000Y-87232661D01*
X154200000Y-87127339D01*
X154172741Y-87025606D01*
X154120080Y-86934394D01*
X154115686Y-86930000D01*
X155078872Y-86930000D01*
X155078872Y-86929999D01*
X155026269Y-86733682D01*
X155026265Y-86733673D01*
X154930134Y-86527517D01*
X154799657Y-86341179D01*
X154638820Y-86180342D01*
X154452482Y-86049865D01*
X154246328Y-85953734D01*
X154050000Y-85901127D01*
X154050000Y-86864314D01*
X154045606Y-86859920D01*
X153954394Y-86807259D01*
X153852661Y-86780000D01*
X153747339Y-86780000D01*
X153645606Y-86807259D01*
X153554394Y-86859920D01*
X153550000Y-86864314D01*
X153550000Y-85901127D01*
X153353671Y-85953734D01*
X153147517Y-86049865D01*
X152961179Y-86180342D01*
X152800342Y-86341179D01*
X152669865Y-86527517D01*
X152573734Y-86733673D01*
X152573730Y-86733682D01*
X152521127Y-86929999D01*
X152521128Y-86930000D01*
X153484314Y-86930000D01*
X153479920Y-86934394D01*
X153427259Y-87025606D01*
X153400000Y-87127339D01*
X153400000Y-87232661D01*
X153427259Y-87334394D01*
X153479920Y-87425606D01*
X153484314Y-87430000D01*
X152521128Y-87430000D01*
X152573730Y-87626317D01*
X152573734Y-87626326D01*
X152669865Y-87832482D01*
X152800342Y-88018820D01*
X152961179Y-88179657D01*
X153147518Y-88310134D01*
X153147520Y-88310135D01*
X153205865Y-88337342D01*
X153258305Y-88383514D01*
X153277457Y-88450707D01*
X153257242Y-88517589D01*
X153205867Y-88562105D01*
X153147268Y-88589431D01*
X153147264Y-88589433D01*
X152960858Y-88719954D01*
X152799954Y-88880858D01*
X152669432Y-89067265D01*
X152669431Y-89067267D01*
X152573261Y-89273502D01*
X152573258Y-89273511D01*
X152514366Y-89493302D01*
X152514364Y-89493313D01*
X152494532Y-89719998D01*
X147485468Y-89719998D01*
X147465635Y-89493308D01*
X147406739Y-89273504D01*
X147310568Y-89067266D01*
X147180047Y-88880861D01*
X147180045Y-88880858D01*
X147019141Y-88719954D01*
X146832734Y-88589432D01*
X146832728Y-88589429D01*
X146774725Y-88562382D01*
X146722285Y-88516210D01*
X146703133Y-88449017D01*
X146723348Y-88382135D01*
X146774725Y-88337618D01*
X146775319Y-88337341D01*
X146832734Y-88310568D01*
X147019139Y-88180047D01*
X147180047Y-88019139D01*
X147310568Y-87832734D01*
X147406739Y-87626496D01*
X147465635Y-87406692D01*
X147485468Y-87180000D01*
X147465635Y-86953308D01*
X147406739Y-86733504D01*
X147310568Y-86527266D01*
X147180047Y-86340861D01*
X147180045Y-86340858D01*
X147019141Y-86179954D01*
X146832734Y-86049432D01*
X146832732Y-86049431D01*
X146626497Y-85953261D01*
X146626488Y-85953258D01*
X146406697Y-85894366D01*
X146406693Y-85894365D01*
X146406692Y-85894365D01*
X146406691Y-85894364D01*
X146406686Y-85894364D01*
X146180002Y-85874532D01*
X146179998Y-85874532D01*
X145953313Y-85894364D01*
X145953302Y-85894366D01*
X145733511Y-85953258D01*
X145733502Y-85953261D01*
X145527267Y-86049431D01*
X145527265Y-86049432D01*
X145340858Y-86179954D01*
X145179954Y-86340858D01*
X145049432Y-86527265D01*
X145049431Y-86527267D01*
X144953261Y-86733502D01*
X144953258Y-86733511D01*
X144894366Y-86953302D01*
X144894364Y-86953313D01*
X144874532Y-87179998D01*
X139250500Y-87179998D01*
X139250500Y-84128163D01*
X139270185Y-84061124D01*
X139278641Y-84049504D01*
X139294136Y-84030625D01*
X139382396Y-83865501D01*
X139436747Y-83686331D01*
X139455099Y-83500000D01*
X139436747Y-83313669D01*
X139382396Y-83134499D01*
X139382395Y-83134497D01*
X139294137Y-82969376D01*
X139294135Y-82969373D01*
X139175357Y-82824642D01*
X139030626Y-82705864D01*
X139030623Y-82705862D01*
X138865502Y-82617604D01*
X138686333Y-82563253D01*
X138686331Y-82563252D01*
X138500000Y-82544901D01*
X138313668Y-82563252D01*
X138313666Y-82563253D01*
X138134497Y-82617604D01*
X137969376Y-82705862D01*
X137969373Y-82705864D01*
X137824642Y-82824642D01*
X137705864Y-82969373D01*
X137705862Y-82969376D01*
X137617604Y-83134497D01*
X137563253Y-83313666D01*
X137563252Y-83313668D01*
X137544901Y-83500000D01*
X128038462Y-83500000D01*
X129966654Y-82025500D01*
X130031865Y-82000413D01*
X130041978Y-82000000D01*
X169958022Y-82000000D01*
X170025061Y-82019685D01*
G37*
G04 #@! TD.AperFunction*
G04 #@! TA.AperFunction,Conductor*
G36*
X156419334Y-108683180D02*
G01*
X156475267Y-108725052D01*
X156499684Y-108790516D01*
X156500000Y-108799362D01*
X156500000Y-110200638D01*
X156480315Y-110267677D01*
X156427511Y-110313432D01*
X156358353Y-110323376D01*
X156294797Y-110294351D01*
X156288319Y-110288319D01*
X155211681Y-109211681D01*
X155178196Y-109150358D01*
X155183180Y-109080666D01*
X155225052Y-109024733D01*
X155290516Y-109000316D01*
X155299362Y-109000000D01*
X156000000Y-109000000D01*
X156288319Y-108711681D01*
X156349642Y-108678196D01*
X156419334Y-108683180D01*
G37*
G04 #@! TD.AperFunction*
M02*
