%TF.GenerationSoftware,KiCad,Pcbnew,8.0.6-8.0.6-0~ubuntu24.04.1*%
%TF.CreationDate,2024-10-31T11:29:06+09:00*%
%TF.ProjectId,zatopos-ear-mic,7a61746f-706f-4732-9d65-61722d6d6963,rev?*%
%TF.SameCoordinates,Original*%
%TF.FileFunction,Drillmap*%
%TF.FilePolarity,Positive*%
%FSLAX45Y45*%
G04 Gerber Fmt 4.5, Leading zero omitted, Abs format (unit mm)*
G04 Created by KiCad (PCBNEW 8.0.6-8.0.6-0~ubuntu24.04.1) date 2024-10-31 11:29:06*
%MOMM*%
%LPD*%
G01*
G04 APERTURE LIST*
%ADD10C,0.050000*%
%ADD11C,0.200000*%
%ADD12C,0.100000*%
G04 APERTURE END LIST*
D10*
X18600000Y-8000000D02*
G75*
G02*
X19000000Y-8400000I0J-400000D01*
G01*
X11000000Y-8400000D02*
G75*
G02*
X11400000Y-8000000I400000J0D01*
G01*
X11400000Y-12000000D02*
G75*
G02*
X11000000Y-11600000I0J400000D01*
G01*
X19000000Y-11600000D02*
G75*
G02*
X18600000Y-12000000I-400000J0D01*
G01*
X11400000Y-8000000D02*
X18600000Y-8000000D01*
X18600000Y-12000000D02*
X11400000Y-12000000D01*
X11000000Y-8400000D02*
X11000000Y-11600000D01*
X19000000Y-8400000D02*
X19000000Y-11600000D01*
D11*
D12*
X13920000Y-8370000D02*
X13980000Y-8430000D01*
X13980000Y-8370000D02*
X13920000Y-8430000D01*
X13920000Y-9670000D02*
X13980000Y-9730000D01*
X13980000Y-9670000D02*
X13920000Y-9730000D01*
X14820000Y-9720000D02*
X14880000Y-9780000D01*
X14880000Y-9720000D02*
X14820000Y-9780000D01*
X14970000Y-9070000D02*
X15030000Y-9130000D01*
X15030000Y-9070000D02*
X14970000Y-9130000D01*
X14970000Y-10370000D02*
X15030000Y-10430000D01*
X15030000Y-10370000D02*
X14970000Y-10430000D01*
X15970000Y-8820000D02*
X16030000Y-8880000D01*
X16030000Y-8820000D02*
X15970000Y-8880000D01*
X12130000Y-9905000D02*
G75*
G02*
X12070000Y-9905000I-30000J0D01*
G01*
X12070000Y-9905000D02*
G75*
G02*
X12130000Y-9905000I30000J0D01*
G01*
X12130000Y-10095000D02*
G75*
G02*
X12070000Y-10095000I-30000J0D01*
G01*
X12070000Y-10095000D02*
G75*
G02*
X12130000Y-10095000I30000J0D01*
G01*
X17930000Y-9905000D02*
G75*
G02*
X17870000Y-9905000I-30000J0D01*
G01*
X17870000Y-9905000D02*
G75*
G02*
X17930000Y-9905000I30000J0D01*
G01*
X17930000Y-10095000D02*
G75*
G02*
X17870000Y-10095000I-30000J0D01*
G01*
X17870000Y-10095000D02*
G75*
G02*
X17930000Y-10095000I30000J0D01*
G01*
X13100000Y-9861900D02*
X13100000Y-9938100D01*
X13061900Y-9900000D02*
X13138100Y-9900000D01*
X13350000Y-9611900D02*
X13350000Y-9688100D01*
X13311900Y-9650000D02*
X13388100Y-9650000D01*
X13600000Y-9861900D02*
X13600000Y-9938100D01*
X13561900Y-9900000D02*
X13638100Y-9900000D01*
X16400000Y-9861900D02*
X16400000Y-9938100D01*
X16361900Y-9900000D02*
X16438100Y-9900000D01*
X16650000Y-9611900D02*
X16650000Y-9688100D01*
X16611900Y-9650000D02*
X16688100Y-9650000D01*
X16900000Y-9861900D02*
X16900000Y-9938100D01*
X16861900Y-9900000D02*
X16938100Y-9900000D01*
X14646284Y-8746285D02*
X14646284Y-8689716D01*
X14589715Y-8689716D01*
X14589715Y-8746285D01*
X14646284Y-8746285D01*
X14646284Y-9000285D02*
X14646284Y-8943716D01*
X14589715Y-8943716D01*
X14589715Y-9000285D01*
X14646284Y-9000285D01*
X14646284Y-9254285D02*
X14646284Y-9197716D01*
X14589715Y-9197716D01*
X14589715Y-9254285D01*
X14646284Y-9254285D01*
X14646284Y-9508285D02*
X14646284Y-9451716D01*
X14589715Y-9451716D01*
X14589715Y-9508285D01*
X14646284Y-9508285D01*
X14646284Y-10016285D02*
X14646284Y-9959716D01*
X14589715Y-9959716D01*
X14589715Y-10016285D01*
X14646284Y-10016285D01*
X14646284Y-10778285D02*
X14646284Y-10721716D01*
X14589715Y-10721716D01*
X14589715Y-10778285D01*
X14646284Y-10778285D01*
X14900284Y-10016285D02*
X14900284Y-9959716D01*
X14843715Y-9959716D01*
X14843715Y-10016285D01*
X14900284Y-10016285D01*
X14900284Y-10778285D02*
X14900284Y-10721716D01*
X14843715Y-10721716D01*
X14843715Y-10778285D01*
X14900284Y-10778285D01*
X15154284Y-10016285D02*
X15154284Y-9959716D01*
X15097715Y-9959716D01*
X15097715Y-10016285D01*
X15154284Y-10016285D01*
X15154284Y-10778285D02*
X15154284Y-10721716D01*
X15097715Y-10721716D01*
X15097715Y-10778285D01*
X15154284Y-10778285D01*
X15408284Y-8746285D02*
X15408284Y-8689716D01*
X15351715Y-8689716D01*
X15351715Y-8746285D01*
X15408284Y-8746285D01*
X15408284Y-9000285D02*
X15408284Y-8943716D01*
X15351715Y-8943716D01*
X15351715Y-9000285D01*
X15408284Y-9000285D01*
X15408284Y-9254285D02*
X15408284Y-9197716D01*
X15351715Y-9197716D01*
X15351715Y-9254285D01*
X15408284Y-9254285D01*
X15408284Y-9508285D02*
X15408284Y-9451716D01*
X15351715Y-9451716D01*
X15351715Y-9508285D01*
X15408284Y-9508285D01*
X15408284Y-10016285D02*
X15408284Y-9959716D01*
X15351715Y-9959716D01*
X15351715Y-10016285D01*
X15408284Y-10016285D01*
X15408284Y-10778285D02*
X15408284Y-10721716D01*
X15351715Y-10721716D01*
X15351715Y-10778285D01*
X15408284Y-10778285D01*
X14375000Y-11395000D02*
X14422500Y-11347500D01*
X14375000Y-11300000D01*
X14327500Y-11347500D01*
X14375000Y-11395000D01*
X14625000Y-11395000D02*
X14672500Y-11347500D01*
X14625000Y-11300000D01*
X14577500Y-11347500D01*
X14625000Y-11395000D01*
X14875000Y-11395000D02*
X14922500Y-11347500D01*
X14875000Y-11300000D01*
X14827500Y-11347500D01*
X14875000Y-11395000D01*
X15125000Y-11395000D02*
X15172500Y-11347500D01*
X15125000Y-11300000D01*
X15077500Y-11347500D01*
X15125000Y-11395000D01*
X15375000Y-11395000D02*
X15422500Y-11347500D01*
X15375000Y-11300000D01*
X15327500Y-11347500D01*
X15375000Y-11395000D01*
X15625000Y-11395000D02*
X15672500Y-11347500D01*
X15625000Y-11300000D01*
X15577500Y-11347500D01*
X15625000Y-11395000D01*
D11*
X11258277Y-12313984D02*
X11258277Y-12113984D01*
X11258277Y-12113984D02*
X11305896Y-12113984D01*
X11305896Y-12113984D02*
X11334467Y-12123508D01*
X11334467Y-12123508D02*
X11353515Y-12142555D01*
X11353515Y-12142555D02*
X11363039Y-12161603D01*
X11363039Y-12161603D02*
X11372562Y-12199698D01*
X11372562Y-12199698D02*
X11372562Y-12228269D01*
X11372562Y-12228269D02*
X11363039Y-12266365D01*
X11363039Y-12266365D02*
X11353515Y-12285412D01*
X11353515Y-12285412D02*
X11334467Y-12304460D01*
X11334467Y-12304460D02*
X11305896Y-12313984D01*
X11305896Y-12313984D02*
X11258277Y-12313984D01*
X11458277Y-12313984D02*
X11458277Y-12180650D01*
X11458277Y-12218746D02*
X11467801Y-12199698D01*
X11467801Y-12199698D02*
X11477324Y-12190174D01*
X11477324Y-12190174D02*
X11496372Y-12180650D01*
X11496372Y-12180650D02*
X11515420Y-12180650D01*
X11582086Y-12313984D02*
X11582086Y-12180650D01*
X11582086Y-12113984D02*
X11572562Y-12123508D01*
X11572562Y-12123508D02*
X11582086Y-12133031D01*
X11582086Y-12133031D02*
X11591610Y-12123508D01*
X11591610Y-12123508D02*
X11582086Y-12113984D01*
X11582086Y-12113984D02*
X11582086Y-12133031D01*
X11705896Y-12313984D02*
X11686848Y-12304460D01*
X11686848Y-12304460D02*
X11677324Y-12285412D01*
X11677324Y-12285412D02*
X11677324Y-12113984D01*
X11810658Y-12313984D02*
X11791610Y-12304460D01*
X11791610Y-12304460D02*
X11782086Y-12285412D01*
X11782086Y-12285412D02*
X11782086Y-12113984D01*
X12039229Y-12313984D02*
X12039229Y-12113984D01*
X12039229Y-12113984D02*
X12105896Y-12256841D01*
X12105896Y-12256841D02*
X12172562Y-12113984D01*
X12172562Y-12113984D02*
X12172562Y-12313984D01*
X12353515Y-12313984D02*
X12353515Y-12209222D01*
X12353515Y-12209222D02*
X12343991Y-12190174D01*
X12343991Y-12190174D02*
X12324943Y-12180650D01*
X12324943Y-12180650D02*
X12286848Y-12180650D01*
X12286848Y-12180650D02*
X12267801Y-12190174D01*
X12353515Y-12304460D02*
X12334467Y-12313984D01*
X12334467Y-12313984D02*
X12286848Y-12313984D01*
X12286848Y-12313984D02*
X12267801Y-12304460D01*
X12267801Y-12304460D02*
X12258277Y-12285412D01*
X12258277Y-12285412D02*
X12258277Y-12266365D01*
X12258277Y-12266365D02*
X12267801Y-12247317D01*
X12267801Y-12247317D02*
X12286848Y-12237793D01*
X12286848Y-12237793D02*
X12334467Y-12237793D01*
X12334467Y-12237793D02*
X12353515Y-12228269D01*
X12448753Y-12180650D02*
X12448753Y-12380650D01*
X12448753Y-12190174D02*
X12467801Y-12180650D01*
X12467801Y-12180650D02*
X12505896Y-12180650D01*
X12505896Y-12180650D02*
X12524943Y-12190174D01*
X12524943Y-12190174D02*
X12534467Y-12199698D01*
X12534467Y-12199698D02*
X12543991Y-12218746D01*
X12543991Y-12218746D02*
X12543991Y-12275888D01*
X12543991Y-12275888D02*
X12534467Y-12294936D01*
X12534467Y-12294936D02*
X12524943Y-12304460D01*
X12524943Y-12304460D02*
X12505896Y-12313984D01*
X12505896Y-12313984D02*
X12467801Y-12313984D01*
X12467801Y-12313984D02*
X12448753Y-12304460D01*
X12629705Y-12294936D02*
X12639229Y-12304460D01*
X12639229Y-12304460D02*
X12629705Y-12313984D01*
X12629705Y-12313984D02*
X12620182Y-12304460D01*
X12620182Y-12304460D02*
X12629705Y-12294936D01*
X12629705Y-12294936D02*
X12629705Y-12313984D01*
X12629705Y-12190174D02*
X12639229Y-12199698D01*
X12639229Y-12199698D02*
X12629705Y-12209222D01*
X12629705Y-12209222D02*
X12620182Y-12199698D01*
X12620182Y-12199698D02*
X12629705Y-12190174D01*
X12629705Y-12190174D02*
X12629705Y-12209222D01*
D12*
X10937500Y-12612500D02*
X10997500Y-12672500D01*
X10997500Y-12612500D02*
X10937500Y-12672500D01*
D11*
X11296372Y-12533984D02*
X11315420Y-12533984D01*
X11315420Y-12533984D02*
X11334467Y-12543508D01*
X11334467Y-12543508D02*
X11343991Y-12553031D01*
X11343991Y-12553031D02*
X11353515Y-12572079D01*
X11353515Y-12572079D02*
X11363039Y-12610174D01*
X11363039Y-12610174D02*
X11363039Y-12657793D01*
X11363039Y-12657793D02*
X11353515Y-12695888D01*
X11353515Y-12695888D02*
X11343991Y-12714936D01*
X11343991Y-12714936D02*
X11334467Y-12724460D01*
X11334467Y-12724460D02*
X11315420Y-12733984D01*
X11315420Y-12733984D02*
X11296372Y-12733984D01*
X11296372Y-12733984D02*
X11277324Y-12724460D01*
X11277324Y-12724460D02*
X11267801Y-12714936D01*
X11267801Y-12714936D02*
X11258277Y-12695888D01*
X11258277Y-12695888D02*
X11248753Y-12657793D01*
X11248753Y-12657793D02*
X11248753Y-12610174D01*
X11248753Y-12610174D02*
X11258277Y-12572079D01*
X11258277Y-12572079D02*
X11267801Y-12553031D01*
X11267801Y-12553031D02*
X11277324Y-12543508D01*
X11277324Y-12543508D02*
X11296372Y-12533984D01*
X11448753Y-12714936D02*
X11458277Y-12724460D01*
X11458277Y-12724460D02*
X11448753Y-12733984D01*
X11448753Y-12733984D02*
X11439229Y-12724460D01*
X11439229Y-12724460D02*
X11448753Y-12714936D01*
X11448753Y-12714936D02*
X11448753Y-12733984D01*
X11629705Y-12533984D02*
X11591610Y-12533984D01*
X11591610Y-12533984D02*
X11572562Y-12543508D01*
X11572562Y-12543508D02*
X11563039Y-12553031D01*
X11563039Y-12553031D02*
X11543991Y-12581603D01*
X11543991Y-12581603D02*
X11534467Y-12619698D01*
X11534467Y-12619698D02*
X11534467Y-12695888D01*
X11534467Y-12695888D02*
X11543991Y-12714936D01*
X11543991Y-12714936D02*
X11553515Y-12724460D01*
X11553515Y-12724460D02*
X11572562Y-12733984D01*
X11572562Y-12733984D02*
X11610658Y-12733984D01*
X11610658Y-12733984D02*
X11629705Y-12724460D01*
X11629705Y-12724460D02*
X11639229Y-12714936D01*
X11639229Y-12714936D02*
X11648753Y-12695888D01*
X11648753Y-12695888D02*
X11648753Y-12648269D01*
X11648753Y-12648269D02*
X11639229Y-12629222D01*
X11639229Y-12629222D02*
X11629705Y-12619698D01*
X11629705Y-12619698D02*
X11610658Y-12610174D01*
X11610658Y-12610174D02*
X11572562Y-12610174D01*
X11572562Y-12610174D02*
X11553515Y-12619698D01*
X11553515Y-12619698D02*
X11543991Y-12629222D01*
X11543991Y-12629222D02*
X11534467Y-12648269D01*
X11772562Y-12533984D02*
X11791610Y-12533984D01*
X11791610Y-12533984D02*
X11810658Y-12543508D01*
X11810658Y-12543508D02*
X11820182Y-12553031D01*
X11820182Y-12553031D02*
X11829705Y-12572079D01*
X11829705Y-12572079D02*
X11839229Y-12610174D01*
X11839229Y-12610174D02*
X11839229Y-12657793D01*
X11839229Y-12657793D02*
X11829705Y-12695888D01*
X11829705Y-12695888D02*
X11820182Y-12714936D01*
X11820182Y-12714936D02*
X11810658Y-12724460D01*
X11810658Y-12724460D02*
X11791610Y-12733984D01*
X11791610Y-12733984D02*
X11772562Y-12733984D01*
X11772562Y-12733984D02*
X11753515Y-12724460D01*
X11753515Y-12724460D02*
X11743991Y-12714936D01*
X11743991Y-12714936D02*
X11734467Y-12695888D01*
X11734467Y-12695888D02*
X11724943Y-12657793D01*
X11724943Y-12657793D02*
X11724943Y-12610174D01*
X11724943Y-12610174D02*
X11734467Y-12572079D01*
X11734467Y-12572079D02*
X11743991Y-12553031D01*
X11743991Y-12553031D02*
X11753515Y-12543508D01*
X11753515Y-12543508D02*
X11772562Y-12533984D01*
X11963039Y-12533984D02*
X11982086Y-12533984D01*
X11982086Y-12533984D02*
X12001134Y-12543508D01*
X12001134Y-12543508D02*
X12010658Y-12553031D01*
X12010658Y-12553031D02*
X12020182Y-12572079D01*
X12020182Y-12572079D02*
X12029705Y-12610174D01*
X12029705Y-12610174D02*
X12029705Y-12657793D01*
X12029705Y-12657793D02*
X12020182Y-12695888D01*
X12020182Y-12695888D02*
X12010658Y-12714936D01*
X12010658Y-12714936D02*
X12001134Y-12724460D01*
X12001134Y-12724460D02*
X11982086Y-12733984D01*
X11982086Y-12733984D02*
X11963039Y-12733984D01*
X11963039Y-12733984D02*
X11943991Y-12724460D01*
X11943991Y-12724460D02*
X11934467Y-12714936D01*
X11934467Y-12714936D02*
X11924943Y-12695888D01*
X11924943Y-12695888D02*
X11915420Y-12657793D01*
X11915420Y-12657793D02*
X11915420Y-12610174D01*
X11915420Y-12610174D02*
X11924943Y-12572079D01*
X11924943Y-12572079D02*
X11934467Y-12553031D01*
X11934467Y-12553031D02*
X11943991Y-12543508D01*
X11943991Y-12543508D02*
X11963039Y-12533984D01*
X12115420Y-12733984D02*
X12115420Y-12600650D01*
X12115420Y-12619698D02*
X12124943Y-12610174D01*
X12124943Y-12610174D02*
X12143991Y-12600650D01*
X12143991Y-12600650D02*
X12172563Y-12600650D01*
X12172563Y-12600650D02*
X12191610Y-12610174D01*
X12191610Y-12610174D02*
X12201134Y-12629222D01*
X12201134Y-12629222D02*
X12201134Y-12733984D01*
X12201134Y-12629222D02*
X12210658Y-12610174D01*
X12210658Y-12610174D02*
X12229705Y-12600650D01*
X12229705Y-12600650D02*
X12258277Y-12600650D01*
X12258277Y-12600650D02*
X12277324Y-12610174D01*
X12277324Y-12610174D02*
X12286848Y-12629222D01*
X12286848Y-12629222D02*
X12286848Y-12733984D01*
X12382086Y-12733984D02*
X12382086Y-12600650D01*
X12382086Y-12619698D02*
X12391610Y-12610174D01*
X12391610Y-12610174D02*
X12410658Y-12600650D01*
X12410658Y-12600650D02*
X12439229Y-12600650D01*
X12439229Y-12600650D02*
X12458277Y-12610174D01*
X12458277Y-12610174D02*
X12467801Y-12629222D01*
X12467801Y-12629222D02*
X12467801Y-12733984D01*
X12467801Y-12629222D02*
X12477324Y-12610174D01*
X12477324Y-12610174D02*
X12496372Y-12600650D01*
X12496372Y-12600650D02*
X12524943Y-12600650D01*
X12524943Y-12600650D02*
X12543991Y-12610174D01*
X12543991Y-12610174D02*
X12553515Y-12629222D01*
X12553515Y-12629222D02*
X12553515Y-12733984D01*
X12943991Y-12524460D02*
X12772563Y-12781603D01*
X13201134Y-12533984D02*
X13220182Y-12533984D01*
X13220182Y-12533984D02*
X13239229Y-12543508D01*
X13239229Y-12543508D02*
X13248753Y-12553031D01*
X13248753Y-12553031D02*
X13258277Y-12572079D01*
X13258277Y-12572079D02*
X13267801Y-12610174D01*
X13267801Y-12610174D02*
X13267801Y-12657793D01*
X13267801Y-12657793D02*
X13258277Y-12695888D01*
X13258277Y-12695888D02*
X13248753Y-12714936D01*
X13248753Y-12714936D02*
X13239229Y-12724460D01*
X13239229Y-12724460D02*
X13220182Y-12733984D01*
X13220182Y-12733984D02*
X13201134Y-12733984D01*
X13201134Y-12733984D02*
X13182086Y-12724460D01*
X13182086Y-12724460D02*
X13172563Y-12714936D01*
X13172563Y-12714936D02*
X13163039Y-12695888D01*
X13163039Y-12695888D02*
X13153515Y-12657793D01*
X13153515Y-12657793D02*
X13153515Y-12610174D01*
X13153515Y-12610174D02*
X13163039Y-12572079D01*
X13163039Y-12572079D02*
X13172563Y-12553031D01*
X13172563Y-12553031D02*
X13182086Y-12543508D01*
X13182086Y-12543508D02*
X13201134Y-12533984D01*
X13353515Y-12714936D02*
X13363039Y-12724460D01*
X13363039Y-12724460D02*
X13353515Y-12733984D01*
X13353515Y-12733984D02*
X13343991Y-12724460D01*
X13343991Y-12724460D02*
X13353515Y-12714936D01*
X13353515Y-12714936D02*
X13353515Y-12733984D01*
X13486848Y-12533984D02*
X13505896Y-12533984D01*
X13505896Y-12533984D02*
X13524944Y-12543508D01*
X13524944Y-12543508D02*
X13534467Y-12553031D01*
X13534467Y-12553031D02*
X13543991Y-12572079D01*
X13543991Y-12572079D02*
X13553515Y-12610174D01*
X13553515Y-12610174D02*
X13553515Y-12657793D01*
X13553515Y-12657793D02*
X13543991Y-12695888D01*
X13543991Y-12695888D02*
X13534467Y-12714936D01*
X13534467Y-12714936D02*
X13524944Y-12724460D01*
X13524944Y-12724460D02*
X13505896Y-12733984D01*
X13505896Y-12733984D02*
X13486848Y-12733984D01*
X13486848Y-12733984D02*
X13467801Y-12724460D01*
X13467801Y-12724460D02*
X13458277Y-12714936D01*
X13458277Y-12714936D02*
X13448753Y-12695888D01*
X13448753Y-12695888D02*
X13439229Y-12657793D01*
X13439229Y-12657793D02*
X13439229Y-12610174D01*
X13439229Y-12610174D02*
X13448753Y-12572079D01*
X13448753Y-12572079D02*
X13458277Y-12553031D01*
X13458277Y-12553031D02*
X13467801Y-12543508D01*
X13467801Y-12543508D02*
X13486848Y-12533984D01*
X13629706Y-12553031D02*
X13639229Y-12543508D01*
X13639229Y-12543508D02*
X13658277Y-12533984D01*
X13658277Y-12533984D02*
X13705896Y-12533984D01*
X13705896Y-12533984D02*
X13724944Y-12543508D01*
X13724944Y-12543508D02*
X13734467Y-12553031D01*
X13734467Y-12553031D02*
X13743991Y-12572079D01*
X13743991Y-12572079D02*
X13743991Y-12591127D01*
X13743991Y-12591127D02*
X13734467Y-12619698D01*
X13734467Y-12619698D02*
X13620182Y-12733984D01*
X13620182Y-12733984D02*
X13743991Y-12733984D01*
X13810658Y-12533984D02*
X13934467Y-12533984D01*
X13934467Y-12533984D02*
X13867801Y-12610174D01*
X13867801Y-12610174D02*
X13896372Y-12610174D01*
X13896372Y-12610174D02*
X13915420Y-12619698D01*
X13915420Y-12619698D02*
X13924944Y-12629222D01*
X13924944Y-12629222D02*
X13934467Y-12648269D01*
X13934467Y-12648269D02*
X13934467Y-12695888D01*
X13934467Y-12695888D02*
X13924944Y-12714936D01*
X13924944Y-12714936D02*
X13915420Y-12724460D01*
X13915420Y-12724460D02*
X13896372Y-12733984D01*
X13896372Y-12733984D02*
X13839229Y-12733984D01*
X13839229Y-12733984D02*
X13820182Y-12724460D01*
X13820182Y-12724460D02*
X13810658Y-12714936D01*
X14105896Y-12533984D02*
X14067801Y-12533984D01*
X14067801Y-12533984D02*
X14048753Y-12543508D01*
X14048753Y-12543508D02*
X14039229Y-12553031D01*
X14039229Y-12553031D02*
X14020182Y-12581603D01*
X14020182Y-12581603D02*
X14010658Y-12619698D01*
X14010658Y-12619698D02*
X14010658Y-12695888D01*
X14010658Y-12695888D02*
X14020182Y-12714936D01*
X14020182Y-12714936D02*
X14029706Y-12724460D01*
X14029706Y-12724460D02*
X14048753Y-12733984D01*
X14048753Y-12733984D02*
X14086848Y-12733984D01*
X14086848Y-12733984D02*
X14105896Y-12724460D01*
X14105896Y-12724460D02*
X14115420Y-12714936D01*
X14115420Y-12714936D02*
X14124944Y-12695888D01*
X14124944Y-12695888D02*
X14124944Y-12648269D01*
X14124944Y-12648269D02*
X14115420Y-12629222D01*
X14115420Y-12629222D02*
X14105896Y-12619698D01*
X14105896Y-12619698D02*
X14086848Y-12610174D01*
X14086848Y-12610174D02*
X14048753Y-12610174D01*
X14048753Y-12610174D02*
X14029706Y-12619698D01*
X14029706Y-12619698D02*
X14020182Y-12629222D01*
X14020182Y-12629222D02*
X14010658Y-12648269D01*
X14201134Y-12533984D02*
X14201134Y-12572079D01*
X14277325Y-12533984D02*
X14277325Y-12572079D01*
X14572563Y-12810174D02*
X14563039Y-12800650D01*
X14563039Y-12800650D02*
X14543991Y-12772079D01*
X14543991Y-12772079D02*
X14534468Y-12753031D01*
X14534468Y-12753031D02*
X14524944Y-12724460D01*
X14524944Y-12724460D02*
X14515420Y-12676841D01*
X14515420Y-12676841D02*
X14515420Y-12638746D01*
X14515420Y-12638746D02*
X14524944Y-12591127D01*
X14524944Y-12591127D02*
X14534468Y-12562555D01*
X14534468Y-12562555D02*
X14543991Y-12543508D01*
X14543991Y-12543508D02*
X14563039Y-12514936D01*
X14563039Y-12514936D02*
X14572563Y-12505412D01*
X14734468Y-12533984D02*
X14696372Y-12533984D01*
X14696372Y-12533984D02*
X14677325Y-12543508D01*
X14677325Y-12543508D02*
X14667801Y-12553031D01*
X14667801Y-12553031D02*
X14648753Y-12581603D01*
X14648753Y-12581603D02*
X14639229Y-12619698D01*
X14639229Y-12619698D02*
X14639229Y-12695888D01*
X14639229Y-12695888D02*
X14648753Y-12714936D01*
X14648753Y-12714936D02*
X14658277Y-12724460D01*
X14658277Y-12724460D02*
X14677325Y-12733984D01*
X14677325Y-12733984D02*
X14715420Y-12733984D01*
X14715420Y-12733984D02*
X14734468Y-12724460D01*
X14734468Y-12724460D02*
X14743991Y-12714936D01*
X14743991Y-12714936D02*
X14753515Y-12695888D01*
X14753515Y-12695888D02*
X14753515Y-12648269D01*
X14753515Y-12648269D02*
X14743991Y-12629222D01*
X14743991Y-12629222D02*
X14734468Y-12619698D01*
X14734468Y-12619698D02*
X14715420Y-12610174D01*
X14715420Y-12610174D02*
X14677325Y-12610174D01*
X14677325Y-12610174D02*
X14658277Y-12619698D01*
X14658277Y-12619698D02*
X14648753Y-12629222D01*
X14648753Y-12629222D02*
X14639229Y-12648269D01*
X14991610Y-12733984D02*
X14991610Y-12533984D01*
X15077325Y-12733984D02*
X15077325Y-12629222D01*
X15077325Y-12629222D02*
X15067801Y-12610174D01*
X15067801Y-12610174D02*
X15048753Y-12600650D01*
X15048753Y-12600650D02*
X15020182Y-12600650D01*
X15020182Y-12600650D02*
X15001134Y-12610174D01*
X15001134Y-12610174D02*
X14991610Y-12619698D01*
X15201134Y-12733984D02*
X15182087Y-12724460D01*
X15182087Y-12724460D02*
X15172563Y-12714936D01*
X15172563Y-12714936D02*
X15163039Y-12695888D01*
X15163039Y-12695888D02*
X15163039Y-12638746D01*
X15163039Y-12638746D02*
X15172563Y-12619698D01*
X15172563Y-12619698D02*
X15182087Y-12610174D01*
X15182087Y-12610174D02*
X15201134Y-12600650D01*
X15201134Y-12600650D02*
X15229706Y-12600650D01*
X15229706Y-12600650D02*
X15248753Y-12610174D01*
X15248753Y-12610174D02*
X15258277Y-12619698D01*
X15258277Y-12619698D02*
X15267801Y-12638746D01*
X15267801Y-12638746D02*
X15267801Y-12695888D01*
X15267801Y-12695888D02*
X15258277Y-12714936D01*
X15258277Y-12714936D02*
X15248753Y-12724460D01*
X15248753Y-12724460D02*
X15229706Y-12733984D01*
X15229706Y-12733984D02*
X15201134Y-12733984D01*
X15382087Y-12733984D02*
X15363039Y-12724460D01*
X15363039Y-12724460D02*
X15353515Y-12705412D01*
X15353515Y-12705412D02*
X15353515Y-12533984D01*
X15534468Y-12724460D02*
X15515420Y-12733984D01*
X15515420Y-12733984D02*
X15477325Y-12733984D01*
X15477325Y-12733984D02*
X15458277Y-12724460D01*
X15458277Y-12724460D02*
X15448753Y-12705412D01*
X15448753Y-12705412D02*
X15448753Y-12629222D01*
X15448753Y-12629222D02*
X15458277Y-12610174D01*
X15458277Y-12610174D02*
X15477325Y-12600650D01*
X15477325Y-12600650D02*
X15515420Y-12600650D01*
X15515420Y-12600650D02*
X15534468Y-12610174D01*
X15534468Y-12610174D02*
X15543991Y-12629222D01*
X15543991Y-12629222D02*
X15543991Y-12648269D01*
X15543991Y-12648269D02*
X15448753Y-12667317D01*
X15620182Y-12724460D02*
X15639230Y-12733984D01*
X15639230Y-12733984D02*
X15677325Y-12733984D01*
X15677325Y-12733984D02*
X15696372Y-12724460D01*
X15696372Y-12724460D02*
X15705896Y-12705412D01*
X15705896Y-12705412D02*
X15705896Y-12695888D01*
X15705896Y-12695888D02*
X15696372Y-12676841D01*
X15696372Y-12676841D02*
X15677325Y-12667317D01*
X15677325Y-12667317D02*
X15648753Y-12667317D01*
X15648753Y-12667317D02*
X15629706Y-12657793D01*
X15629706Y-12657793D02*
X15620182Y-12638746D01*
X15620182Y-12638746D02*
X15620182Y-12629222D01*
X15620182Y-12629222D02*
X15629706Y-12610174D01*
X15629706Y-12610174D02*
X15648753Y-12600650D01*
X15648753Y-12600650D02*
X15677325Y-12600650D01*
X15677325Y-12600650D02*
X15696372Y-12610174D01*
X15772563Y-12810174D02*
X15782087Y-12800650D01*
X15782087Y-12800650D02*
X15801134Y-12772079D01*
X15801134Y-12772079D02*
X15810658Y-12753031D01*
X15810658Y-12753031D02*
X15820182Y-12724460D01*
X15820182Y-12724460D02*
X15829706Y-12676841D01*
X15829706Y-12676841D02*
X15829706Y-12638746D01*
X15829706Y-12638746D02*
X15820182Y-12591127D01*
X15820182Y-12591127D02*
X15810658Y-12562555D01*
X15810658Y-12562555D02*
X15801134Y-12543508D01*
X15801134Y-12543508D02*
X15782087Y-12514936D01*
X15782087Y-12514936D02*
X15772563Y-12505412D01*
D12*
X10997500Y-12906500D02*
G75*
G02*
X10937500Y-12906500I-30000J0D01*
G01*
X10937500Y-12906500D02*
G75*
G02*
X10997500Y-12906500I30000J0D01*
G01*
D11*
X11296372Y-12797984D02*
X11315420Y-12797984D01*
X11315420Y-12797984D02*
X11334467Y-12807508D01*
X11334467Y-12807508D02*
X11343991Y-12817031D01*
X11343991Y-12817031D02*
X11353515Y-12836079D01*
X11353515Y-12836079D02*
X11363039Y-12874174D01*
X11363039Y-12874174D02*
X11363039Y-12921793D01*
X11363039Y-12921793D02*
X11353515Y-12959888D01*
X11353515Y-12959888D02*
X11343991Y-12978936D01*
X11343991Y-12978936D02*
X11334467Y-12988460D01*
X11334467Y-12988460D02*
X11315420Y-12997984D01*
X11315420Y-12997984D02*
X11296372Y-12997984D01*
X11296372Y-12997984D02*
X11277324Y-12988460D01*
X11277324Y-12988460D02*
X11267801Y-12978936D01*
X11267801Y-12978936D02*
X11258277Y-12959888D01*
X11258277Y-12959888D02*
X11248753Y-12921793D01*
X11248753Y-12921793D02*
X11248753Y-12874174D01*
X11248753Y-12874174D02*
X11258277Y-12836079D01*
X11258277Y-12836079D02*
X11267801Y-12817031D01*
X11267801Y-12817031D02*
X11277324Y-12807508D01*
X11277324Y-12807508D02*
X11296372Y-12797984D01*
X11448753Y-12978936D02*
X11458277Y-12988460D01*
X11458277Y-12988460D02*
X11448753Y-12997984D01*
X11448753Y-12997984D02*
X11439229Y-12988460D01*
X11439229Y-12988460D02*
X11448753Y-12978936D01*
X11448753Y-12978936D02*
X11448753Y-12997984D01*
X11629705Y-12797984D02*
X11591610Y-12797984D01*
X11591610Y-12797984D02*
X11572562Y-12807508D01*
X11572562Y-12807508D02*
X11563039Y-12817031D01*
X11563039Y-12817031D02*
X11543991Y-12845603D01*
X11543991Y-12845603D02*
X11534467Y-12883698D01*
X11534467Y-12883698D02*
X11534467Y-12959888D01*
X11534467Y-12959888D02*
X11543991Y-12978936D01*
X11543991Y-12978936D02*
X11553515Y-12988460D01*
X11553515Y-12988460D02*
X11572562Y-12997984D01*
X11572562Y-12997984D02*
X11610658Y-12997984D01*
X11610658Y-12997984D02*
X11629705Y-12988460D01*
X11629705Y-12988460D02*
X11639229Y-12978936D01*
X11639229Y-12978936D02*
X11648753Y-12959888D01*
X11648753Y-12959888D02*
X11648753Y-12912269D01*
X11648753Y-12912269D02*
X11639229Y-12893222D01*
X11639229Y-12893222D02*
X11629705Y-12883698D01*
X11629705Y-12883698D02*
X11610658Y-12874174D01*
X11610658Y-12874174D02*
X11572562Y-12874174D01*
X11572562Y-12874174D02*
X11553515Y-12883698D01*
X11553515Y-12883698D02*
X11543991Y-12893222D01*
X11543991Y-12893222D02*
X11534467Y-12912269D01*
X11772562Y-12797984D02*
X11791610Y-12797984D01*
X11791610Y-12797984D02*
X11810658Y-12807508D01*
X11810658Y-12807508D02*
X11820182Y-12817031D01*
X11820182Y-12817031D02*
X11829705Y-12836079D01*
X11829705Y-12836079D02*
X11839229Y-12874174D01*
X11839229Y-12874174D02*
X11839229Y-12921793D01*
X11839229Y-12921793D02*
X11829705Y-12959888D01*
X11829705Y-12959888D02*
X11820182Y-12978936D01*
X11820182Y-12978936D02*
X11810658Y-12988460D01*
X11810658Y-12988460D02*
X11791610Y-12997984D01*
X11791610Y-12997984D02*
X11772562Y-12997984D01*
X11772562Y-12997984D02*
X11753515Y-12988460D01*
X11753515Y-12988460D02*
X11743991Y-12978936D01*
X11743991Y-12978936D02*
X11734467Y-12959888D01*
X11734467Y-12959888D02*
X11724943Y-12921793D01*
X11724943Y-12921793D02*
X11724943Y-12874174D01*
X11724943Y-12874174D02*
X11734467Y-12836079D01*
X11734467Y-12836079D02*
X11743991Y-12817031D01*
X11743991Y-12817031D02*
X11753515Y-12807508D01*
X11753515Y-12807508D02*
X11772562Y-12797984D01*
X11963039Y-12797984D02*
X11982086Y-12797984D01*
X11982086Y-12797984D02*
X12001134Y-12807508D01*
X12001134Y-12807508D02*
X12010658Y-12817031D01*
X12010658Y-12817031D02*
X12020182Y-12836079D01*
X12020182Y-12836079D02*
X12029705Y-12874174D01*
X12029705Y-12874174D02*
X12029705Y-12921793D01*
X12029705Y-12921793D02*
X12020182Y-12959888D01*
X12020182Y-12959888D02*
X12010658Y-12978936D01*
X12010658Y-12978936D02*
X12001134Y-12988460D01*
X12001134Y-12988460D02*
X11982086Y-12997984D01*
X11982086Y-12997984D02*
X11963039Y-12997984D01*
X11963039Y-12997984D02*
X11943991Y-12988460D01*
X11943991Y-12988460D02*
X11934467Y-12978936D01*
X11934467Y-12978936D02*
X11924943Y-12959888D01*
X11924943Y-12959888D02*
X11915420Y-12921793D01*
X11915420Y-12921793D02*
X11915420Y-12874174D01*
X11915420Y-12874174D02*
X11924943Y-12836079D01*
X11924943Y-12836079D02*
X11934467Y-12817031D01*
X11934467Y-12817031D02*
X11943991Y-12807508D01*
X11943991Y-12807508D02*
X11963039Y-12797984D01*
X12115420Y-12997984D02*
X12115420Y-12864650D01*
X12115420Y-12883698D02*
X12124943Y-12874174D01*
X12124943Y-12874174D02*
X12143991Y-12864650D01*
X12143991Y-12864650D02*
X12172563Y-12864650D01*
X12172563Y-12864650D02*
X12191610Y-12874174D01*
X12191610Y-12874174D02*
X12201134Y-12893222D01*
X12201134Y-12893222D02*
X12201134Y-12997984D01*
X12201134Y-12893222D02*
X12210658Y-12874174D01*
X12210658Y-12874174D02*
X12229705Y-12864650D01*
X12229705Y-12864650D02*
X12258277Y-12864650D01*
X12258277Y-12864650D02*
X12277324Y-12874174D01*
X12277324Y-12874174D02*
X12286848Y-12893222D01*
X12286848Y-12893222D02*
X12286848Y-12997984D01*
X12382086Y-12997984D02*
X12382086Y-12864650D01*
X12382086Y-12883698D02*
X12391610Y-12874174D01*
X12391610Y-12874174D02*
X12410658Y-12864650D01*
X12410658Y-12864650D02*
X12439229Y-12864650D01*
X12439229Y-12864650D02*
X12458277Y-12874174D01*
X12458277Y-12874174D02*
X12467801Y-12893222D01*
X12467801Y-12893222D02*
X12467801Y-12997984D01*
X12467801Y-12893222D02*
X12477324Y-12874174D01*
X12477324Y-12874174D02*
X12496372Y-12864650D01*
X12496372Y-12864650D02*
X12524943Y-12864650D01*
X12524943Y-12864650D02*
X12543991Y-12874174D01*
X12543991Y-12874174D02*
X12553515Y-12893222D01*
X12553515Y-12893222D02*
X12553515Y-12997984D01*
X12943991Y-12788460D02*
X12772563Y-13045603D01*
X13201134Y-12797984D02*
X13220182Y-12797984D01*
X13220182Y-12797984D02*
X13239229Y-12807508D01*
X13239229Y-12807508D02*
X13248753Y-12817031D01*
X13248753Y-12817031D02*
X13258277Y-12836079D01*
X13258277Y-12836079D02*
X13267801Y-12874174D01*
X13267801Y-12874174D02*
X13267801Y-12921793D01*
X13267801Y-12921793D02*
X13258277Y-12959888D01*
X13258277Y-12959888D02*
X13248753Y-12978936D01*
X13248753Y-12978936D02*
X13239229Y-12988460D01*
X13239229Y-12988460D02*
X13220182Y-12997984D01*
X13220182Y-12997984D02*
X13201134Y-12997984D01*
X13201134Y-12997984D02*
X13182086Y-12988460D01*
X13182086Y-12988460D02*
X13172563Y-12978936D01*
X13172563Y-12978936D02*
X13163039Y-12959888D01*
X13163039Y-12959888D02*
X13153515Y-12921793D01*
X13153515Y-12921793D02*
X13153515Y-12874174D01*
X13153515Y-12874174D02*
X13163039Y-12836079D01*
X13163039Y-12836079D02*
X13172563Y-12817031D01*
X13172563Y-12817031D02*
X13182086Y-12807508D01*
X13182086Y-12807508D02*
X13201134Y-12797984D01*
X13353515Y-12978936D02*
X13363039Y-12988460D01*
X13363039Y-12988460D02*
X13353515Y-12997984D01*
X13353515Y-12997984D02*
X13343991Y-12988460D01*
X13343991Y-12988460D02*
X13353515Y-12978936D01*
X13353515Y-12978936D02*
X13353515Y-12997984D01*
X13486848Y-12797984D02*
X13505896Y-12797984D01*
X13505896Y-12797984D02*
X13524944Y-12807508D01*
X13524944Y-12807508D02*
X13534467Y-12817031D01*
X13534467Y-12817031D02*
X13543991Y-12836079D01*
X13543991Y-12836079D02*
X13553515Y-12874174D01*
X13553515Y-12874174D02*
X13553515Y-12921793D01*
X13553515Y-12921793D02*
X13543991Y-12959888D01*
X13543991Y-12959888D02*
X13534467Y-12978936D01*
X13534467Y-12978936D02*
X13524944Y-12988460D01*
X13524944Y-12988460D02*
X13505896Y-12997984D01*
X13505896Y-12997984D02*
X13486848Y-12997984D01*
X13486848Y-12997984D02*
X13467801Y-12988460D01*
X13467801Y-12988460D02*
X13458277Y-12978936D01*
X13458277Y-12978936D02*
X13448753Y-12959888D01*
X13448753Y-12959888D02*
X13439229Y-12921793D01*
X13439229Y-12921793D02*
X13439229Y-12874174D01*
X13439229Y-12874174D02*
X13448753Y-12836079D01*
X13448753Y-12836079D02*
X13458277Y-12817031D01*
X13458277Y-12817031D02*
X13467801Y-12807508D01*
X13467801Y-12807508D02*
X13486848Y-12797984D01*
X13629706Y-12817031D02*
X13639229Y-12807508D01*
X13639229Y-12807508D02*
X13658277Y-12797984D01*
X13658277Y-12797984D02*
X13705896Y-12797984D01*
X13705896Y-12797984D02*
X13724944Y-12807508D01*
X13724944Y-12807508D02*
X13734467Y-12817031D01*
X13734467Y-12817031D02*
X13743991Y-12836079D01*
X13743991Y-12836079D02*
X13743991Y-12855127D01*
X13743991Y-12855127D02*
X13734467Y-12883698D01*
X13734467Y-12883698D02*
X13620182Y-12997984D01*
X13620182Y-12997984D02*
X13743991Y-12997984D01*
X13810658Y-12797984D02*
X13934467Y-12797984D01*
X13934467Y-12797984D02*
X13867801Y-12874174D01*
X13867801Y-12874174D02*
X13896372Y-12874174D01*
X13896372Y-12874174D02*
X13915420Y-12883698D01*
X13915420Y-12883698D02*
X13924944Y-12893222D01*
X13924944Y-12893222D02*
X13934467Y-12912269D01*
X13934467Y-12912269D02*
X13934467Y-12959888D01*
X13934467Y-12959888D02*
X13924944Y-12978936D01*
X13924944Y-12978936D02*
X13915420Y-12988460D01*
X13915420Y-12988460D02*
X13896372Y-12997984D01*
X13896372Y-12997984D02*
X13839229Y-12997984D01*
X13839229Y-12997984D02*
X13820182Y-12988460D01*
X13820182Y-12988460D02*
X13810658Y-12978936D01*
X14105896Y-12797984D02*
X14067801Y-12797984D01*
X14067801Y-12797984D02*
X14048753Y-12807508D01*
X14048753Y-12807508D02*
X14039229Y-12817031D01*
X14039229Y-12817031D02*
X14020182Y-12845603D01*
X14020182Y-12845603D02*
X14010658Y-12883698D01*
X14010658Y-12883698D02*
X14010658Y-12959888D01*
X14010658Y-12959888D02*
X14020182Y-12978936D01*
X14020182Y-12978936D02*
X14029706Y-12988460D01*
X14029706Y-12988460D02*
X14048753Y-12997984D01*
X14048753Y-12997984D02*
X14086848Y-12997984D01*
X14086848Y-12997984D02*
X14105896Y-12988460D01*
X14105896Y-12988460D02*
X14115420Y-12978936D01*
X14115420Y-12978936D02*
X14124944Y-12959888D01*
X14124944Y-12959888D02*
X14124944Y-12912269D01*
X14124944Y-12912269D02*
X14115420Y-12893222D01*
X14115420Y-12893222D02*
X14105896Y-12883698D01*
X14105896Y-12883698D02*
X14086848Y-12874174D01*
X14086848Y-12874174D02*
X14048753Y-12874174D01*
X14048753Y-12874174D02*
X14029706Y-12883698D01*
X14029706Y-12883698D02*
X14020182Y-12893222D01*
X14020182Y-12893222D02*
X14010658Y-12912269D01*
X14201134Y-12797984D02*
X14201134Y-12836079D01*
X14277325Y-12797984D02*
X14277325Y-12836079D01*
X14572563Y-13074174D02*
X14563039Y-13064650D01*
X14563039Y-13064650D02*
X14543991Y-13036079D01*
X14543991Y-13036079D02*
X14534468Y-13017031D01*
X14534468Y-13017031D02*
X14524944Y-12988460D01*
X14524944Y-12988460D02*
X14515420Y-12940841D01*
X14515420Y-12940841D02*
X14515420Y-12902746D01*
X14515420Y-12902746D02*
X14524944Y-12855127D01*
X14524944Y-12855127D02*
X14534468Y-12826555D01*
X14534468Y-12826555D02*
X14543991Y-12807508D01*
X14543991Y-12807508D02*
X14563039Y-12778936D01*
X14563039Y-12778936D02*
X14572563Y-12769412D01*
X14734468Y-12864650D02*
X14734468Y-12997984D01*
X14686848Y-12788460D02*
X14639229Y-12931317D01*
X14639229Y-12931317D02*
X14763039Y-12931317D01*
X14991610Y-12997984D02*
X14991610Y-12797984D01*
X15077325Y-12997984D02*
X15077325Y-12893222D01*
X15077325Y-12893222D02*
X15067801Y-12874174D01*
X15067801Y-12874174D02*
X15048753Y-12864650D01*
X15048753Y-12864650D02*
X15020182Y-12864650D01*
X15020182Y-12864650D02*
X15001134Y-12874174D01*
X15001134Y-12874174D02*
X14991610Y-12883698D01*
X15201134Y-12997984D02*
X15182087Y-12988460D01*
X15182087Y-12988460D02*
X15172563Y-12978936D01*
X15172563Y-12978936D02*
X15163039Y-12959888D01*
X15163039Y-12959888D02*
X15163039Y-12902746D01*
X15163039Y-12902746D02*
X15172563Y-12883698D01*
X15172563Y-12883698D02*
X15182087Y-12874174D01*
X15182087Y-12874174D02*
X15201134Y-12864650D01*
X15201134Y-12864650D02*
X15229706Y-12864650D01*
X15229706Y-12864650D02*
X15248753Y-12874174D01*
X15248753Y-12874174D02*
X15258277Y-12883698D01*
X15258277Y-12883698D02*
X15267801Y-12902746D01*
X15267801Y-12902746D02*
X15267801Y-12959888D01*
X15267801Y-12959888D02*
X15258277Y-12978936D01*
X15258277Y-12978936D02*
X15248753Y-12988460D01*
X15248753Y-12988460D02*
X15229706Y-12997984D01*
X15229706Y-12997984D02*
X15201134Y-12997984D01*
X15382087Y-12997984D02*
X15363039Y-12988460D01*
X15363039Y-12988460D02*
X15353515Y-12969412D01*
X15353515Y-12969412D02*
X15353515Y-12797984D01*
X15534468Y-12988460D02*
X15515420Y-12997984D01*
X15515420Y-12997984D02*
X15477325Y-12997984D01*
X15477325Y-12997984D02*
X15458277Y-12988460D01*
X15458277Y-12988460D02*
X15448753Y-12969412D01*
X15448753Y-12969412D02*
X15448753Y-12893222D01*
X15448753Y-12893222D02*
X15458277Y-12874174D01*
X15458277Y-12874174D02*
X15477325Y-12864650D01*
X15477325Y-12864650D02*
X15515420Y-12864650D01*
X15515420Y-12864650D02*
X15534468Y-12874174D01*
X15534468Y-12874174D02*
X15543991Y-12893222D01*
X15543991Y-12893222D02*
X15543991Y-12912269D01*
X15543991Y-12912269D02*
X15448753Y-12931317D01*
X15620182Y-12988460D02*
X15639230Y-12997984D01*
X15639230Y-12997984D02*
X15677325Y-12997984D01*
X15677325Y-12997984D02*
X15696372Y-12988460D01*
X15696372Y-12988460D02*
X15705896Y-12969412D01*
X15705896Y-12969412D02*
X15705896Y-12959888D01*
X15705896Y-12959888D02*
X15696372Y-12940841D01*
X15696372Y-12940841D02*
X15677325Y-12931317D01*
X15677325Y-12931317D02*
X15648753Y-12931317D01*
X15648753Y-12931317D02*
X15629706Y-12921793D01*
X15629706Y-12921793D02*
X15620182Y-12902746D01*
X15620182Y-12902746D02*
X15620182Y-12893222D01*
X15620182Y-12893222D02*
X15629706Y-12874174D01*
X15629706Y-12874174D02*
X15648753Y-12864650D01*
X15648753Y-12864650D02*
X15677325Y-12864650D01*
X15677325Y-12864650D02*
X15696372Y-12874174D01*
X15772563Y-13074174D02*
X15782087Y-13064650D01*
X15782087Y-13064650D02*
X15801134Y-13036079D01*
X15801134Y-13036079D02*
X15810658Y-13017031D01*
X15810658Y-13017031D02*
X15820182Y-12988460D01*
X15820182Y-12988460D02*
X15829706Y-12940841D01*
X15829706Y-12940841D02*
X15829706Y-12902746D01*
X15829706Y-12902746D02*
X15820182Y-12855127D01*
X15820182Y-12855127D02*
X15810658Y-12826555D01*
X15810658Y-12826555D02*
X15801134Y-12807508D01*
X15801134Y-12807508D02*
X15782087Y-12778936D01*
X15782087Y-12778936D02*
X15772563Y-12769412D01*
D12*
X10959400Y-13132400D02*
X10959400Y-13208600D01*
X10921300Y-13170500D02*
X10997500Y-13170500D01*
D11*
X11296372Y-13061984D02*
X11315420Y-13061984D01*
X11315420Y-13061984D02*
X11334467Y-13071508D01*
X11334467Y-13071508D02*
X11343991Y-13081031D01*
X11343991Y-13081031D02*
X11353515Y-13100079D01*
X11353515Y-13100079D02*
X11363039Y-13138174D01*
X11363039Y-13138174D02*
X11363039Y-13185793D01*
X11363039Y-13185793D02*
X11353515Y-13223888D01*
X11353515Y-13223888D02*
X11343991Y-13242936D01*
X11343991Y-13242936D02*
X11334467Y-13252460D01*
X11334467Y-13252460D02*
X11315420Y-13261984D01*
X11315420Y-13261984D02*
X11296372Y-13261984D01*
X11296372Y-13261984D02*
X11277324Y-13252460D01*
X11277324Y-13252460D02*
X11267801Y-13242936D01*
X11267801Y-13242936D02*
X11258277Y-13223888D01*
X11258277Y-13223888D02*
X11248753Y-13185793D01*
X11248753Y-13185793D02*
X11248753Y-13138174D01*
X11248753Y-13138174D02*
X11258277Y-13100079D01*
X11258277Y-13100079D02*
X11267801Y-13081031D01*
X11267801Y-13081031D02*
X11277324Y-13071508D01*
X11277324Y-13071508D02*
X11296372Y-13061984D01*
X11448753Y-13242936D02*
X11458277Y-13252460D01*
X11458277Y-13252460D02*
X11448753Y-13261984D01*
X11448753Y-13261984D02*
X11439229Y-13252460D01*
X11439229Y-13252460D02*
X11448753Y-13242936D01*
X11448753Y-13242936D02*
X11448753Y-13261984D01*
X11524943Y-13061984D02*
X11658277Y-13061984D01*
X11658277Y-13061984D02*
X11572562Y-13261984D01*
X11820182Y-13061984D02*
X11782086Y-13061984D01*
X11782086Y-13061984D02*
X11763039Y-13071508D01*
X11763039Y-13071508D02*
X11753515Y-13081031D01*
X11753515Y-13081031D02*
X11734467Y-13109603D01*
X11734467Y-13109603D02*
X11724943Y-13147698D01*
X11724943Y-13147698D02*
X11724943Y-13223888D01*
X11724943Y-13223888D02*
X11734467Y-13242936D01*
X11734467Y-13242936D02*
X11743991Y-13252460D01*
X11743991Y-13252460D02*
X11763039Y-13261984D01*
X11763039Y-13261984D02*
X11801134Y-13261984D01*
X11801134Y-13261984D02*
X11820182Y-13252460D01*
X11820182Y-13252460D02*
X11829705Y-13242936D01*
X11829705Y-13242936D02*
X11839229Y-13223888D01*
X11839229Y-13223888D02*
X11839229Y-13176269D01*
X11839229Y-13176269D02*
X11829705Y-13157222D01*
X11829705Y-13157222D02*
X11820182Y-13147698D01*
X11820182Y-13147698D02*
X11801134Y-13138174D01*
X11801134Y-13138174D02*
X11763039Y-13138174D01*
X11763039Y-13138174D02*
X11743991Y-13147698D01*
X11743991Y-13147698D02*
X11734467Y-13157222D01*
X11734467Y-13157222D02*
X11724943Y-13176269D01*
X11915420Y-13081031D02*
X11924943Y-13071508D01*
X11924943Y-13071508D02*
X11943991Y-13061984D01*
X11943991Y-13061984D02*
X11991610Y-13061984D01*
X11991610Y-13061984D02*
X12010658Y-13071508D01*
X12010658Y-13071508D02*
X12020182Y-13081031D01*
X12020182Y-13081031D02*
X12029705Y-13100079D01*
X12029705Y-13100079D02*
X12029705Y-13119127D01*
X12029705Y-13119127D02*
X12020182Y-13147698D01*
X12020182Y-13147698D02*
X11905896Y-13261984D01*
X11905896Y-13261984D02*
X12029705Y-13261984D01*
X12115420Y-13261984D02*
X12115420Y-13128650D01*
X12115420Y-13147698D02*
X12124943Y-13138174D01*
X12124943Y-13138174D02*
X12143991Y-13128650D01*
X12143991Y-13128650D02*
X12172563Y-13128650D01*
X12172563Y-13128650D02*
X12191610Y-13138174D01*
X12191610Y-13138174D02*
X12201134Y-13157222D01*
X12201134Y-13157222D02*
X12201134Y-13261984D01*
X12201134Y-13157222D02*
X12210658Y-13138174D01*
X12210658Y-13138174D02*
X12229705Y-13128650D01*
X12229705Y-13128650D02*
X12258277Y-13128650D01*
X12258277Y-13128650D02*
X12277324Y-13138174D01*
X12277324Y-13138174D02*
X12286848Y-13157222D01*
X12286848Y-13157222D02*
X12286848Y-13261984D01*
X12382086Y-13261984D02*
X12382086Y-13128650D01*
X12382086Y-13147698D02*
X12391610Y-13138174D01*
X12391610Y-13138174D02*
X12410658Y-13128650D01*
X12410658Y-13128650D02*
X12439229Y-13128650D01*
X12439229Y-13128650D02*
X12458277Y-13138174D01*
X12458277Y-13138174D02*
X12467801Y-13157222D01*
X12467801Y-13157222D02*
X12467801Y-13261984D01*
X12467801Y-13157222D02*
X12477324Y-13138174D01*
X12477324Y-13138174D02*
X12496372Y-13128650D01*
X12496372Y-13128650D02*
X12524943Y-13128650D01*
X12524943Y-13128650D02*
X12543991Y-13138174D01*
X12543991Y-13138174D02*
X12553515Y-13157222D01*
X12553515Y-13157222D02*
X12553515Y-13261984D01*
X12943991Y-13052460D02*
X12772563Y-13309603D01*
X13201134Y-13061984D02*
X13220182Y-13061984D01*
X13220182Y-13061984D02*
X13239229Y-13071508D01*
X13239229Y-13071508D02*
X13248753Y-13081031D01*
X13248753Y-13081031D02*
X13258277Y-13100079D01*
X13258277Y-13100079D02*
X13267801Y-13138174D01*
X13267801Y-13138174D02*
X13267801Y-13185793D01*
X13267801Y-13185793D02*
X13258277Y-13223888D01*
X13258277Y-13223888D02*
X13248753Y-13242936D01*
X13248753Y-13242936D02*
X13239229Y-13252460D01*
X13239229Y-13252460D02*
X13220182Y-13261984D01*
X13220182Y-13261984D02*
X13201134Y-13261984D01*
X13201134Y-13261984D02*
X13182086Y-13252460D01*
X13182086Y-13252460D02*
X13172563Y-13242936D01*
X13172563Y-13242936D02*
X13163039Y-13223888D01*
X13163039Y-13223888D02*
X13153515Y-13185793D01*
X13153515Y-13185793D02*
X13153515Y-13138174D01*
X13153515Y-13138174D02*
X13163039Y-13100079D01*
X13163039Y-13100079D02*
X13172563Y-13081031D01*
X13172563Y-13081031D02*
X13182086Y-13071508D01*
X13182086Y-13071508D02*
X13201134Y-13061984D01*
X13353515Y-13242936D02*
X13363039Y-13252460D01*
X13363039Y-13252460D02*
X13353515Y-13261984D01*
X13353515Y-13261984D02*
X13343991Y-13252460D01*
X13343991Y-13252460D02*
X13353515Y-13242936D01*
X13353515Y-13242936D02*
X13353515Y-13261984D01*
X13486848Y-13061984D02*
X13505896Y-13061984D01*
X13505896Y-13061984D02*
X13524944Y-13071508D01*
X13524944Y-13071508D02*
X13534467Y-13081031D01*
X13534467Y-13081031D02*
X13543991Y-13100079D01*
X13543991Y-13100079D02*
X13553515Y-13138174D01*
X13553515Y-13138174D02*
X13553515Y-13185793D01*
X13553515Y-13185793D02*
X13543991Y-13223888D01*
X13543991Y-13223888D02*
X13534467Y-13242936D01*
X13534467Y-13242936D02*
X13524944Y-13252460D01*
X13524944Y-13252460D02*
X13505896Y-13261984D01*
X13505896Y-13261984D02*
X13486848Y-13261984D01*
X13486848Y-13261984D02*
X13467801Y-13252460D01*
X13467801Y-13252460D02*
X13458277Y-13242936D01*
X13458277Y-13242936D02*
X13448753Y-13223888D01*
X13448753Y-13223888D02*
X13439229Y-13185793D01*
X13439229Y-13185793D02*
X13439229Y-13138174D01*
X13439229Y-13138174D02*
X13448753Y-13100079D01*
X13448753Y-13100079D02*
X13458277Y-13081031D01*
X13458277Y-13081031D02*
X13467801Y-13071508D01*
X13467801Y-13071508D02*
X13486848Y-13061984D01*
X13620182Y-13061984D02*
X13743991Y-13061984D01*
X13743991Y-13061984D02*
X13677325Y-13138174D01*
X13677325Y-13138174D02*
X13705896Y-13138174D01*
X13705896Y-13138174D02*
X13724944Y-13147698D01*
X13724944Y-13147698D02*
X13734467Y-13157222D01*
X13734467Y-13157222D02*
X13743991Y-13176269D01*
X13743991Y-13176269D02*
X13743991Y-13223888D01*
X13743991Y-13223888D02*
X13734467Y-13242936D01*
X13734467Y-13242936D02*
X13724944Y-13252460D01*
X13724944Y-13252460D02*
X13705896Y-13261984D01*
X13705896Y-13261984D02*
X13648753Y-13261984D01*
X13648753Y-13261984D02*
X13629706Y-13252460D01*
X13629706Y-13252460D02*
X13620182Y-13242936D01*
X13867801Y-13061984D02*
X13886848Y-13061984D01*
X13886848Y-13061984D02*
X13905896Y-13071508D01*
X13905896Y-13071508D02*
X13915420Y-13081031D01*
X13915420Y-13081031D02*
X13924944Y-13100079D01*
X13924944Y-13100079D02*
X13934467Y-13138174D01*
X13934467Y-13138174D02*
X13934467Y-13185793D01*
X13934467Y-13185793D02*
X13924944Y-13223888D01*
X13924944Y-13223888D02*
X13915420Y-13242936D01*
X13915420Y-13242936D02*
X13905896Y-13252460D01*
X13905896Y-13252460D02*
X13886848Y-13261984D01*
X13886848Y-13261984D02*
X13867801Y-13261984D01*
X13867801Y-13261984D02*
X13848753Y-13252460D01*
X13848753Y-13252460D02*
X13839229Y-13242936D01*
X13839229Y-13242936D02*
X13829706Y-13223888D01*
X13829706Y-13223888D02*
X13820182Y-13185793D01*
X13820182Y-13185793D02*
X13820182Y-13138174D01*
X13820182Y-13138174D02*
X13829706Y-13100079D01*
X13829706Y-13100079D02*
X13839229Y-13081031D01*
X13839229Y-13081031D02*
X13848753Y-13071508D01*
X13848753Y-13071508D02*
X13867801Y-13061984D01*
X14058277Y-13061984D02*
X14077325Y-13061984D01*
X14077325Y-13061984D02*
X14096372Y-13071508D01*
X14096372Y-13071508D02*
X14105896Y-13081031D01*
X14105896Y-13081031D02*
X14115420Y-13100079D01*
X14115420Y-13100079D02*
X14124944Y-13138174D01*
X14124944Y-13138174D02*
X14124944Y-13185793D01*
X14124944Y-13185793D02*
X14115420Y-13223888D01*
X14115420Y-13223888D02*
X14105896Y-13242936D01*
X14105896Y-13242936D02*
X14096372Y-13252460D01*
X14096372Y-13252460D02*
X14077325Y-13261984D01*
X14077325Y-13261984D02*
X14058277Y-13261984D01*
X14058277Y-13261984D02*
X14039229Y-13252460D01*
X14039229Y-13252460D02*
X14029706Y-13242936D01*
X14029706Y-13242936D02*
X14020182Y-13223888D01*
X14020182Y-13223888D02*
X14010658Y-13185793D01*
X14010658Y-13185793D02*
X14010658Y-13138174D01*
X14010658Y-13138174D02*
X14020182Y-13100079D01*
X14020182Y-13100079D02*
X14029706Y-13081031D01*
X14029706Y-13081031D02*
X14039229Y-13071508D01*
X14039229Y-13071508D02*
X14058277Y-13061984D01*
X14201134Y-13061984D02*
X14201134Y-13100079D01*
X14277325Y-13061984D02*
X14277325Y-13100079D01*
X14572563Y-13338174D02*
X14563039Y-13328650D01*
X14563039Y-13328650D02*
X14543991Y-13300079D01*
X14543991Y-13300079D02*
X14534468Y-13281031D01*
X14534468Y-13281031D02*
X14524944Y-13252460D01*
X14524944Y-13252460D02*
X14515420Y-13204841D01*
X14515420Y-13204841D02*
X14515420Y-13166746D01*
X14515420Y-13166746D02*
X14524944Y-13119127D01*
X14524944Y-13119127D02*
X14534468Y-13090555D01*
X14534468Y-13090555D02*
X14543991Y-13071508D01*
X14543991Y-13071508D02*
X14563039Y-13042936D01*
X14563039Y-13042936D02*
X14572563Y-13033412D01*
X14734468Y-13061984D02*
X14696372Y-13061984D01*
X14696372Y-13061984D02*
X14677325Y-13071508D01*
X14677325Y-13071508D02*
X14667801Y-13081031D01*
X14667801Y-13081031D02*
X14648753Y-13109603D01*
X14648753Y-13109603D02*
X14639229Y-13147698D01*
X14639229Y-13147698D02*
X14639229Y-13223888D01*
X14639229Y-13223888D02*
X14648753Y-13242936D01*
X14648753Y-13242936D02*
X14658277Y-13252460D01*
X14658277Y-13252460D02*
X14677325Y-13261984D01*
X14677325Y-13261984D02*
X14715420Y-13261984D01*
X14715420Y-13261984D02*
X14734468Y-13252460D01*
X14734468Y-13252460D02*
X14743991Y-13242936D01*
X14743991Y-13242936D02*
X14753515Y-13223888D01*
X14753515Y-13223888D02*
X14753515Y-13176269D01*
X14753515Y-13176269D02*
X14743991Y-13157222D01*
X14743991Y-13157222D02*
X14734468Y-13147698D01*
X14734468Y-13147698D02*
X14715420Y-13138174D01*
X14715420Y-13138174D02*
X14677325Y-13138174D01*
X14677325Y-13138174D02*
X14658277Y-13147698D01*
X14658277Y-13147698D02*
X14648753Y-13157222D01*
X14648753Y-13157222D02*
X14639229Y-13176269D01*
X14991610Y-13261984D02*
X14991610Y-13061984D01*
X15077325Y-13261984D02*
X15077325Y-13157222D01*
X15077325Y-13157222D02*
X15067801Y-13138174D01*
X15067801Y-13138174D02*
X15048753Y-13128650D01*
X15048753Y-13128650D02*
X15020182Y-13128650D01*
X15020182Y-13128650D02*
X15001134Y-13138174D01*
X15001134Y-13138174D02*
X14991610Y-13147698D01*
X15201134Y-13261984D02*
X15182087Y-13252460D01*
X15182087Y-13252460D02*
X15172563Y-13242936D01*
X15172563Y-13242936D02*
X15163039Y-13223888D01*
X15163039Y-13223888D02*
X15163039Y-13166746D01*
X15163039Y-13166746D02*
X15172563Y-13147698D01*
X15172563Y-13147698D02*
X15182087Y-13138174D01*
X15182087Y-13138174D02*
X15201134Y-13128650D01*
X15201134Y-13128650D02*
X15229706Y-13128650D01*
X15229706Y-13128650D02*
X15248753Y-13138174D01*
X15248753Y-13138174D02*
X15258277Y-13147698D01*
X15258277Y-13147698D02*
X15267801Y-13166746D01*
X15267801Y-13166746D02*
X15267801Y-13223888D01*
X15267801Y-13223888D02*
X15258277Y-13242936D01*
X15258277Y-13242936D02*
X15248753Y-13252460D01*
X15248753Y-13252460D02*
X15229706Y-13261984D01*
X15229706Y-13261984D02*
X15201134Y-13261984D01*
X15382087Y-13261984D02*
X15363039Y-13252460D01*
X15363039Y-13252460D02*
X15353515Y-13233412D01*
X15353515Y-13233412D02*
X15353515Y-13061984D01*
X15534468Y-13252460D02*
X15515420Y-13261984D01*
X15515420Y-13261984D02*
X15477325Y-13261984D01*
X15477325Y-13261984D02*
X15458277Y-13252460D01*
X15458277Y-13252460D02*
X15448753Y-13233412D01*
X15448753Y-13233412D02*
X15448753Y-13157222D01*
X15448753Y-13157222D02*
X15458277Y-13138174D01*
X15458277Y-13138174D02*
X15477325Y-13128650D01*
X15477325Y-13128650D02*
X15515420Y-13128650D01*
X15515420Y-13128650D02*
X15534468Y-13138174D01*
X15534468Y-13138174D02*
X15543991Y-13157222D01*
X15543991Y-13157222D02*
X15543991Y-13176269D01*
X15543991Y-13176269D02*
X15448753Y-13195317D01*
X15620182Y-13252460D02*
X15639230Y-13261984D01*
X15639230Y-13261984D02*
X15677325Y-13261984D01*
X15677325Y-13261984D02*
X15696372Y-13252460D01*
X15696372Y-13252460D02*
X15705896Y-13233412D01*
X15705896Y-13233412D02*
X15705896Y-13223888D01*
X15705896Y-13223888D02*
X15696372Y-13204841D01*
X15696372Y-13204841D02*
X15677325Y-13195317D01*
X15677325Y-13195317D02*
X15648753Y-13195317D01*
X15648753Y-13195317D02*
X15629706Y-13185793D01*
X15629706Y-13185793D02*
X15620182Y-13166746D01*
X15620182Y-13166746D02*
X15620182Y-13157222D01*
X15620182Y-13157222D02*
X15629706Y-13138174D01*
X15629706Y-13138174D02*
X15648753Y-13128650D01*
X15648753Y-13128650D02*
X15677325Y-13128650D01*
X15677325Y-13128650D02*
X15696372Y-13138174D01*
X15772563Y-13338174D02*
X15782087Y-13328650D01*
X15782087Y-13328650D02*
X15801134Y-13300079D01*
X15801134Y-13300079D02*
X15810658Y-13281031D01*
X15810658Y-13281031D02*
X15820182Y-13252460D01*
X15820182Y-13252460D02*
X15829706Y-13204841D01*
X15829706Y-13204841D02*
X15829706Y-13166746D01*
X15829706Y-13166746D02*
X15820182Y-13119127D01*
X15820182Y-13119127D02*
X15810658Y-13090555D01*
X15810658Y-13090555D02*
X15801134Y-13071508D01*
X15801134Y-13071508D02*
X15782087Y-13042936D01*
X15782087Y-13042936D02*
X15772563Y-13033412D01*
D12*
X10985785Y-13462784D02*
X10985785Y-13406215D01*
X10929216Y-13406215D01*
X10929216Y-13462784D01*
X10985785Y-13462784D01*
D11*
X11296372Y-13325984D02*
X11315420Y-13325984D01*
X11315420Y-13325984D02*
X11334467Y-13335508D01*
X11334467Y-13335508D02*
X11343991Y-13345031D01*
X11343991Y-13345031D02*
X11353515Y-13364079D01*
X11353515Y-13364079D02*
X11363039Y-13402174D01*
X11363039Y-13402174D02*
X11363039Y-13449793D01*
X11363039Y-13449793D02*
X11353515Y-13487888D01*
X11353515Y-13487888D02*
X11343991Y-13506936D01*
X11343991Y-13506936D02*
X11334467Y-13516460D01*
X11334467Y-13516460D02*
X11315420Y-13525984D01*
X11315420Y-13525984D02*
X11296372Y-13525984D01*
X11296372Y-13525984D02*
X11277324Y-13516460D01*
X11277324Y-13516460D02*
X11267801Y-13506936D01*
X11267801Y-13506936D02*
X11258277Y-13487888D01*
X11258277Y-13487888D02*
X11248753Y-13449793D01*
X11248753Y-13449793D02*
X11248753Y-13402174D01*
X11248753Y-13402174D02*
X11258277Y-13364079D01*
X11258277Y-13364079D02*
X11267801Y-13345031D01*
X11267801Y-13345031D02*
X11277324Y-13335508D01*
X11277324Y-13335508D02*
X11296372Y-13325984D01*
X11448753Y-13506936D02*
X11458277Y-13516460D01*
X11458277Y-13516460D02*
X11448753Y-13525984D01*
X11448753Y-13525984D02*
X11439229Y-13516460D01*
X11439229Y-13516460D02*
X11448753Y-13506936D01*
X11448753Y-13506936D02*
X11448753Y-13525984D01*
X11572562Y-13411698D02*
X11553515Y-13402174D01*
X11553515Y-13402174D02*
X11543991Y-13392650D01*
X11543991Y-13392650D02*
X11534467Y-13373603D01*
X11534467Y-13373603D02*
X11534467Y-13364079D01*
X11534467Y-13364079D02*
X11543991Y-13345031D01*
X11543991Y-13345031D02*
X11553515Y-13335508D01*
X11553515Y-13335508D02*
X11572562Y-13325984D01*
X11572562Y-13325984D02*
X11610658Y-13325984D01*
X11610658Y-13325984D02*
X11629705Y-13335508D01*
X11629705Y-13335508D02*
X11639229Y-13345031D01*
X11639229Y-13345031D02*
X11648753Y-13364079D01*
X11648753Y-13364079D02*
X11648753Y-13373603D01*
X11648753Y-13373603D02*
X11639229Y-13392650D01*
X11639229Y-13392650D02*
X11629705Y-13402174D01*
X11629705Y-13402174D02*
X11610658Y-13411698D01*
X11610658Y-13411698D02*
X11572562Y-13411698D01*
X11572562Y-13411698D02*
X11553515Y-13421222D01*
X11553515Y-13421222D02*
X11543991Y-13430746D01*
X11543991Y-13430746D02*
X11534467Y-13449793D01*
X11534467Y-13449793D02*
X11534467Y-13487888D01*
X11534467Y-13487888D02*
X11543991Y-13506936D01*
X11543991Y-13506936D02*
X11553515Y-13516460D01*
X11553515Y-13516460D02*
X11572562Y-13525984D01*
X11572562Y-13525984D02*
X11610658Y-13525984D01*
X11610658Y-13525984D02*
X11629705Y-13516460D01*
X11629705Y-13516460D02*
X11639229Y-13506936D01*
X11639229Y-13506936D02*
X11648753Y-13487888D01*
X11648753Y-13487888D02*
X11648753Y-13449793D01*
X11648753Y-13449793D02*
X11639229Y-13430746D01*
X11639229Y-13430746D02*
X11629705Y-13421222D01*
X11629705Y-13421222D02*
X11610658Y-13411698D01*
X11772562Y-13325984D02*
X11791610Y-13325984D01*
X11791610Y-13325984D02*
X11810658Y-13335508D01*
X11810658Y-13335508D02*
X11820182Y-13345031D01*
X11820182Y-13345031D02*
X11829705Y-13364079D01*
X11829705Y-13364079D02*
X11839229Y-13402174D01*
X11839229Y-13402174D02*
X11839229Y-13449793D01*
X11839229Y-13449793D02*
X11829705Y-13487888D01*
X11829705Y-13487888D02*
X11820182Y-13506936D01*
X11820182Y-13506936D02*
X11810658Y-13516460D01*
X11810658Y-13516460D02*
X11791610Y-13525984D01*
X11791610Y-13525984D02*
X11772562Y-13525984D01*
X11772562Y-13525984D02*
X11753515Y-13516460D01*
X11753515Y-13516460D02*
X11743991Y-13506936D01*
X11743991Y-13506936D02*
X11734467Y-13487888D01*
X11734467Y-13487888D02*
X11724943Y-13449793D01*
X11724943Y-13449793D02*
X11724943Y-13402174D01*
X11724943Y-13402174D02*
X11734467Y-13364079D01*
X11734467Y-13364079D02*
X11743991Y-13345031D01*
X11743991Y-13345031D02*
X11753515Y-13335508D01*
X11753515Y-13335508D02*
X11772562Y-13325984D01*
X11963039Y-13325984D02*
X11982086Y-13325984D01*
X11982086Y-13325984D02*
X12001134Y-13335508D01*
X12001134Y-13335508D02*
X12010658Y-13345031D01*
X12010658Y-13345031D02*
X12020182Y-13364079D01*
X12020182Y-13364079D02*
X12029705Y-13402174D01*
X12029705Y-13402174D02*
X12029705Y-13449793D01*
X12029705Y-13449793D02*
X12020182Y-13487888D01*
X12020182Y-13487888D02*
X12010658Y-13506936D01*
X12010658Y-13506936D02*
X12001134Y-13516460D01*
X12001134Y-13516460D02*
X11982086Y-13525984D01*
X11982086Y-13525984D02*
X11963039Y-13525984D01*
X11963039Y-13525984D02*
X11943991Y-13516460D01*
X11943991Y-13516460D02*
X11934467Y-13506936D01*
X11934467Y-13506936D02*
X11924943Y-13487888D01*
X11924943Y-13487888D02*
X11915420Y-13449793D01*
X11915420Y-13449793D02*
X11915420Y-13402174D01*
X11915420Y-13402174D02*
X11924943Y-13364079D01*
X11924943Y-13364079D02*
X11934467Y-13345031D01*
X11934467Y-13345031D02*
X11943991Y-13335508D01*
X11943991Y-13335508D02*
X11963039Y-13325984D01*
X12115420Y-13525984D02*
X12115420Y-13392650D01*
X12115420Y-13411698D02*
X12124943Y-13402174D01*
X12124943Y-13402174D02*
X12143991Y-13392650D01*
X12143991Y-13392650D02*
X12172563Y-13392650D01*
X12172563Y-13392650D02*
X12191610Y-13402174D01*
X12191610Y-13402174D02*
X12201134Y-13421222D01*
X12201134Y-13421222D02*
X12201134Y-13525984D01*
X12201134Y-13421222D02*
X12210658Y-13402174D01*
X12210658Y-13402174D02*
X12229705Y-13392650D01*
X12229705Y-13392650D02*
X12258277Y-13392650D01*
X12258277Y-13392650D02*
X12277324Y-13402174D01*
X12277324Y-13402174D02*
X12286848Y-13421222D01*
X12286848Y-13421222D02*
X12286848Y-13525984D01*
X12382086Y-13525984D02*
X12382086Y-13392650D01*
X12382086Y-13411698D02*
X12391610Y-13402174D01*
X12391610Y-13402174D02*
X12410658Y-13392650D01*
X12410658Y-13392650D02*
X12439229Y-13392650D01*
X12439229Y-13392650D02*
X12458277Y-13402174D01*
X12458277Y-13402174D02*
X12467801Y-13421222D01*
X12467801Y-13421222D02*
X12467801Y-13525984D01*
X12467801Y-13421222D02*
X12477324Y-13402174D01*
X12477324Y-13402174D02*
X12496372Y-13392650D01*
X12496372Y-13392650D02*
X12524943Y-13392650D01*
X12524943Y-13392650D02*
X12543991Y-13402174D01*
X12543991Y-13402174D02*
X12553515Y-13421222D01*
X12553515Y-13421222D02*
X12553515Y-13525984D01*
X12943991Y-13316460D02*
X12772563Y-13573603D01*
X13201134Y-13325984D02*
X13220182Y-13325984D01*
X13220182Y-13325984D02*
X13239229Y-13335508D01*
X13239229Y-13335508D02*
X13248753Y-13345031D01*
X13248753Y-13345031D02*
X13258277Y-13364079D01*
X13258277Y-13364079D02*
X13267801Y-13402174D01*
X13267801Y-13402174D02*
X13267801Y-13449793D01*
X13267801Y-13449793D02*
X13258277Y-13487888D01*
X13258277Y-13487888D02*
X13248753Y-13506936D01*
X13248753Y-13506936D02*
X13239229Y-13516460D01*
X13239229Y-13516460D02*
X13220182Y-13525984D01*
X13220182Y-13525984D02*
X13201134Y-13525984D01*
X13201134Y-13525984D02*
X13182086Y-13516460D01*
X13182086Y-13516460D02*
X13172563Y-13506936D01*
X13172563Y-13506936D02*
X13163039Y-13487888D01*
X13163039Y-13487888D02*
X13153515Y-13449793D01*
X13153515Y-13449793D02*
X13153515Y-13402174D01*
X13153515Y-13402174D02*
X13163039Y-13364079D01*
X13163039Y-13364079D02*
X13172563Y-13345031D01*
X13172563Y-13345031D02*
X13182086Y-13335508D01*
X13182086Y-13335508D02*
X13201134Y-13325984D01*
X13353515Y-13506936D02*
X13363039Y-13516460D01*
X13363039Y-13516460D02*
X13353515Y-13525984D01*
X13353515Y-13525984D02*
X13343991Y-13516460D01*
X13343991Y-13516460D02*
X13353515Y-13506936D01*
X13353515Y-13506936D02*
X13353515Y-13525984D01*
X13486848Y-13325984D02*
X13505896Y-13325984D01*
X13505896Y-13325984D02*
X13524944Y-13335508D01*
X13524944Y-13335508D02*
X13534467Y-13345031D01*
X13534467Y-13345031D02*
X13543991Y-13364079D01*
X13543991Y-13364079D02*
X13553515Y-13402174D01*
X13553515Y-13402174D02*
X13553515Y-13449793D01*
X13553515Y-13449793D02*
X13543991Y-13487888D01*
X13543991Y-13487888D02*
X13534467Y-13506936D01*
X13534467Y-13506936D02*
X13524944Y-13516460D01*
X13524944Y-13516460D02*
X13505896Y-13525984D01*
X13505896Y-13525984D02*
X13486848Y-13525984D01*
X13486848Y-13525984D02*
X13467801Y-13516460D01*
X13467801Y-13516460D02*
X13458277Y-13506936D01*
X13458277Y-13506936D02*
X13448753Y-13487888D01*
X13448753Y-13487888D02*
X13439229Y-13449793D01*
X13439229Y-13449793D02*
X13439229Y-13402174D01*
X13439229Y-13402174D02*
X13448753Y-13364079D01*
X13448753Y-13364079D02*
X13458277Y-13345031D01*
X13458277Y-13345031D02*
X13467801Y-13335508D01*
X13467801Y-13335508D02*
X13486848Y-13325984D01*
X13620182Y-13325984D02*
X13743991Y-13325984D01*
X13743991Y-13325984D02*
X13677325Y-13402174D01*
X13677325Y-13402174D02*
X13705896Y-13402174D01*
X13705896Y-13402174D02*
X13724944Y-13411698D01*
X13724944Y-13411698D02*
X13734467Y-13421222D01*
X13734467Y-13421222D02*
X13743991Y-13440269D01*
X13743991Y-13440269D02*
X13743991Y-13487888D01*
X13743991Y-13487888D02*
X13734467Y-13506936D01*
X13734467Y-13506936D02*
X13724944Y-13516460D01*
X13724944Y-13516460D02*
X13705896Y-13525984D01*
X13705896Y-13525984D02*
X13648753Y-13525984D01*
X13648753Y-13525984D02*
X13629706Y-13516460D01*
X13629706Y-13516460D02*
X13620182Y-13506936D01*
X13934467Y-13525984D02*
X13820182Y-13525984D01*
X13877325Y-13525984D02*
X13877325Y-13325984D01*
X13877325Y-13325984D02*
X13858277Y-13354555D01*
X13858277Y-13354555D02*
X13839229Y-13373603D01*
X13839229Y-13373603D02*
X13820182Y-13383127D01*
X14115420Y-13325984D02*
X14020182Y-13325984D01*
X14020182Y-13325984D02*
X14010658Y-13421222D01*
X14010658Y-13421222D02*
X14020182Y-13411698D01*
X14020182Y-13411698D02*
X14039229Y-13402174D01*
X14039229Y-13402174D02*
X14086848Y-13402174D01*
X14086848Y-13402174D02*
X14105896Y-13411698D01*
X14105896Y-13411698D02*
X14115420Y-13421222D01*
X14115420Y-13421222D02*
X14124944Y-13440269D01*
X14124944Y-13440269D02*
X14124944Y-13487888D01*
X14124944Y-13487888D02*
X14115420Y-13506936D01*
X14115420Y-13506936D02*
X14105896Y-13516460D01*
X14105896Y-13516460D02*
X14086848Y-13525984D01*
X14086848Y-13525984D02*
X14039229Y-13525984D01*
X14039229Y-13525984D02*
X14020182Y-13516460D01*
X14020182Y-13516460D02*
X14010658Y-13506936D01*
X14201134Y-13325984D02*
X14201134Y-13364079D01*
X14277325Y-13325984D02*
X14277325Y-13364079D01*
X14572563Y-13602174D02*
X14563039Y-13592650D01*
X14563039Y-13592650D02*
X14543991Y-13564079D01*
X14543991Y-13564079D02*
X14534468Y-13545031D01*
X14534468Y-13545031D02*
X14524944Y-13516460D01*
X14524944Y-13516460D02*
X14515420Y-13468841D01*
X14515420Y-13468841D02*
X14515420Y-13430746D01*
X14515420Y-13430746D02*
X14524944Y-13383127D01*
X14524944Y-13383127D02*
X14534468Y-13354555D01*
X14534468Y-13354555D02*
X14543991Y-13335508D01*
X14543991Y-13335508D02*
X14563039Y-13306936D01*
X14563039Y-13306936D02*
X14572563Y-13297412D01*
X14753515Y-13525984D02*
X14639229Y-13525984D01*
X14696372Y-13525984D02*
X14696372Y-13325984D01*
X14696372Y-13325984D02*
X14677325Y-13354555D01*
X14677325Y-13354555D02*
X14658277Y-13373603D01*
X14658277Y-13373603D02*
X14639229Y-13383127D01*
X14924944Y-13325984D02*
X14886848Y-13325984D01*
X14886848Y-13325984D02*
X14867801Y-13335508D01*
X14867801Y-13335508D02*
X14858277Y-13345031D01*
X14858277Y-13345031D02*
X14839229Y-13373603D01*
X14839229Y-13373603D02*
X14829706Y-13411698D01*
X14829706Y-13411698D02*
X14829706Y-13487888D01*
X14829706Y-13487888D02*
X14839229Y-13506936D01*
X14839229Y-13506936D02*
X14848753Y-13516460D01*
X14848753Y-13516460D02*
X14867801Y-13525984D01*
X14867801Y-13525984D02*
X14905896Y-13525984D01*
X14905896Y-13525984D02*
X14924944Y-13516460D01*
X14924944Y-13516460D02*
X14934468Y-13506936D01*
X14934468Y-13506936D02*
X14943991Y-13487888D01*
X14943991Y-13487888D02*
X14943991Y-13440269D01*
X14943991Y-13440269D02*
X14934468Y-13421222D01*
X14934468Y-13421222D02*
X14924944Y-13411698D01*
X14924944Y-13411698D02*
X14905896Y-13402174D01*
X14905896Y-13402174D02*
X14867801Y-13402174D01*
X14867801Y-13402174D02*
X14848753Y-13411698D01*
X14848753Y-13411698D02*
X14839229Y-13421222D01*
X14839229Y-13421222D02*
X14829706Y-13440269D01*
X15182087Y-13525984D02*
X15182087Y-13325984D01*
X15267801Y-13525984D02*
X15267801Y-13421222D01*
X15267801Y-13421222D02*
X15258277Y-13402174D01*
X15258277Y-13402174D02*
X15239230Y-13392650D01*
X15239230Y-13392650D02*
X15210658Y-13392650D01*
X15210658Y-13392650D02*
X15191610Y-13402174D01*
X15191610Y-13402174D02*
X15182087Y-13411698D01*
X15391610Y-13525984D02*
X15372563Y-13516460D01*
X15372563Y-13516460D02*
X15363039Y-13506936D01*
X15363039Y-13506936D02*
X15353515Y-13487888D01*
X15353515Y-13487888D02*
X15353515Y-13430746D01*
X15353515Y-13430746D02*
X15363039Y-13411698D01*
X15363039Y-13411698D02*
X15372563Y-13402174D01*
X15372563Y-13402174D02*
X15391610Y-13392650D01*
X15391610Y-13392650D02*
X15420182Y-13392650D01*
X15420182Y-13392650D02*
X15439230Y-13402174D01*
X15439230Y-13402174D02*
X15448753Y-13411698D01*
X15448753Y-13411698D02*
X15458277Y-13430746D01*
X15458277Y-13430746D02*
X15458277Y-13487888D01*
X15458277Y-13487888D02*
X15448753Y-13506936D01*
X15448753Y-13506936D02*
X15439230Y-13516460D01*
X15439230Y-13516460D02*
X15420182Y-13525984D01*
X15420182Y-13525984D02*
X15391610Y-13525984D01*
X15572563Y-13525984D02*
X15553515Y-13516460D01*
X15553515Y-13516460D02*
X15543991Y-13497412D01*
X15543991Y-13497412D02*
X15543991Y-13325984D01*
X15724944Y-13516460D02*
X15705896Y-13525984D01*
X15705896Y-13525984D02*
X15667801Y-13525984D01*
X15667801Y-13525984D02*
X15648753Y-13516460D01*
X15648753Y-13516460D02*
X15639230Y-13497412D01*
X15639230Y-13497412D02*
X15639230Y-13421222D01*
X15639230Y-13421222D02*
X15648753Y-13402174D01*
X15648753Y-13402174D02*
X15667801Y-13392650D01*
X15667801Y-13392650D02*
X15705896Y-13392650D01*
X15705896Y-13392650D02*
X15724944Y-13402174D01*
X15724944Y-13402174D02*
X15734468Y-13421222D01*
X15734468Y-13421222D02*
X15734468Y-13440269D01*
X15734468Y-13440269D02*
X15639230Y-13459317D01*
X15810658Y-13516460D02*
X15829706Y-13525984D01*
X15829706Y-13525984D02*
X15867801Y-13525984D01*
X15867801Y-13525984D02*
X15886849Y-13516460D01*
X15886849Y-13516460D02*
X15896372Y-13497412D01*
X15896372Y-13497412D02*
X15896372Y-13487888D01*
X15896372Y-13487888D02*
X15886849Y-13468841D01*
X15886849Y-13468841D02*
X15867801Y-13459317D01*
X15867801Y-13459317D02*
X15839230Y-13459317D01*
X15839230Y-13459317D02*
X15820182Y-13449793D01*
X15820182Y-13449793D02*
X15810658Y-13430746D01*
X15810658Y-13430746D02*
X15810658Y-13421222D01*
X15810658Y-13421222D02*
X15820182Y-13402174D01*
X15820182Y-13402174D02*
X15839230Y-13392650D01*
X15839230Y-13392650D02*
X15867801Y-13392650D01*
X15867801Y-13392650D02*
X15886849Y-13402174D01*
X15963039Y-13602174D02*
X15972563Y-13592650D01*
X15972563Y-13592650D02*
X15991611Y-13564079D01*
X15991611Y-13564079D02*
X16001134Y-13545031D01*
X16001134Y-13545031D02*
X16010658Y-13516460D01*
X16010658Y-13516460D02*
X16020182Y-13468841D01*
X16020182Y-13468841D02*
X16020182Y-13430746D01*
X16020182Y-13430746D02*
X16010658Y-13383127D01*
X16010658Y-13383127D02*
X16001134Y-13354555D01*
X16001134Y-13354555D02*
X15991611Y-13335508D01*
X15991611Y-13335508D02*
X15972563Y-13306936D01*
X15972563Y-13306936D02*
X15963039Y-13297412D01*
D12*
X10950000Y-13746000D02*
X10997500Y-13698500D01*
X10950000Y-13651000D01*
X10902500Y-13698500D01*
X10950000Y-13746000D01*
D11*
X11296372Y-13589984D02*
X11315420Y-13589984D01*
X11315420Y-13589984D02*
X11334467Y-13599508D01*
X11334467Y-13599508D02*
X11343991Y-13609031D01*
X11343991Y-13609031D02*
X11353515Y-13628079D01*
X11353515Y-13628079D02*
X11363039Y-13666174D01*
X11363039Y-13666174D02*
X11363039Y-13713793D01*
X11363039Y-13713793D02*
X11353515Y-13751888D01*
X11353515Y-13751888D02*
X11343991Y-13770936D01*
X11343991Y-13770936D02*
X11334467Y-13780460D01*
X11334467Y-13780460D02*
X11315420Y-13789984D01*
X11315420Y-13789984D02*
X11296372Y-13789984D01*
X11296372Y-13789984D02*
X11277324Y-13780460D01*
X11277324Y-13780460D02*
X11267801Y-13770936D01*
X11267801Y-13770936D02*
X11258277Y-13751888D01*
X11258277Y-13751888D02*
X11248753Y-13713793D01*
X11248753Y-13713793D02*
X11248753Y-13666174D01*
X11248753Y-13666174D02*
X11258277Y-13628079D01*
X11258277Y-13628079D02*
X11267801Y-13609031D01*
X11267801Y-13609031D02*
X11277324Y-13599508D01*
X11277324Y-13599508D02*
X11296372Y-13589984D01*
X11448753Y-13770936D02*
X11458277Y-13780460D01*
X11458277Y-13780460D02*
X11448753Y-13789984D01*
X11448753Y-13789984D02*
X11439229Y-13780460D01*
X11439229Y-13780460D02*
X11448753Y-13770936D01*
X11448753Y-13770936D02*
X11448753Y-13789984D01*
X11553515Y-13789984D02*
X11591610Y-13789984D01*
X11591610Y-13789984D02*
X11610658Y-13780460D01*
X11610658Y-13780460D02*
X11620182Y-13770936D01*
X11620182Y-13770936D02*
X11639229Y-13742365D01*
X11639229Y-13742365D02*
X11648753Y-13704269D01*
X11648753Y-13704269D02*
X11648753Y-13628079D01*
X11648753Y-13628079D02*
X11639229Y-13609031D01*
X11639229Y-13609031D02*
X11629705Y-13599508D01*
X11629705Y-13599508D02*
X11610658Y-13589984D01*
X11610658Y-13589984D02*
X11572562Y-13589984D01*
X11572562Y-13589984D02*
X11553515Y-13599508D01*
X11553515Y-13599508D02*
X11543991Y-13609031D01*
X11543991Y-13609031D02*
X11534467Y-13628079D01*
X11534467Y-13628079D02*
X11534467Y-13675698D01*
X11534467Y-13675698D02*
X11543991Y-13694746D01*
X11543991Y-13694746D02*
X11553515Y-13704269D01*
X11553515Y-13704269D02*
X11572562Y-13713793D01*
X11572562Y-13713793D02*
X11610658Y-13713793D01*
X11610658Y-13713793D02*
X11629705Y-13704269D01*
X11629705Y-13704269D02*
X11639229Y-13694746D01*
X11639229Y-13694746D02*
X11648753Y-13675698D01*
X11829705Y-13589984D02*
X11734467Y-13589984D01*
X11734467Y-13589984D02*
X11724943Y-13685222D01*
X11724943Y-13685222D02*
X11734467Y-13675698D01*
X11734467Y-13675698D02*
X11753515Y-13666174D01*
X11753515Y-13666174D02*
X11801134Y-13666174D01*
X11801134Y-13666174D02*
X11820182Y-13675698D01*
X11820182Y-13675698D02*
X11829705Y-13685222D01*
X11829705Y-13685222D02*
X11839229Y-13704269D01*
X11839229Y-13704269D02*
X11839229Y-13751888D01*
X11839229Y-13751888D02*
X11829705Y-13770936D01*
X11829705Y-13770936D02*
X11820182Y-13780460D01*
X11820182Y-13780460D02*
X11801134Y-13789984D01*
X11801134Y-13789984D02*
X11753515Y-13789984D01*
X11753515Y-13789984D02*
X11734467Y-13780460D01*
X11734467Y-13780460D02*
X11724943Y-13770936D01*
X11963039Y-13589984D02*
X11982086Y-13589984D01*
X11982086Y-13589984D02*
X12001134Y-13599508D01*
X12001134Y-13599508D02*
X12010658Y-13609031D01*
X12010658Y-13609031D02*
X12020182Y-13628079D01*
X12020182Y-13628079D02*
X12029705Y-13666174D01*
X12029705Y-13666174D02*
X12029705Y-13713793D01*
X12029705Y-13713793D02*
X12020182Y-13751888D01*
X12020182Y-13751888D02*
X12010658Y-13770936D01*
X12010658Y-13770936D02*
X12001134Y-13780460D01*
X12001134Y-13780460D02*
X11982086Y-13789984D01*
X11982086Y-13789984D02*
X11963039Y-13789984D01*
X11963039Y-13789984D02*
X11943991Y-13780460D01*
X11943991Y-13780460D02*
X11934467Y-13770936D01*
X11934467Y-13770936D02*
X11924943Y-13751888D01*
X11924943Y-13751888D02*
X11915420Y-13713793D01*
X11915420Y-13713793D02*
X11915420Y-13666174D01*
X11915420Y-13666174D02*
X11924943Y-13628079D01*
X11924943Y-13628079D02*
X11934467Y-13609031D01*
X11934467Y-13609031D02*
X11943991Y-13599508D01*
X11943991Y-13599508D02*
X11963039Y-13589984D01*
X12115420Y-13789984D02*
X12115420Y-13656650D01*
X12115420Y-13675698D02*
X12124943Y-13666174D01*
X12124943Y-13666174D02*
X12143991Y-13656650D01*
X12143991Y-13656650D02*
X12172563Y-13656650D01*
X12172563Y-13656650D02*
X12191610Y-13666174D01*
X12191610Y-13666174D02*
X12201134Y-13685222D01*
X12201134Y-13685222D02*
X12201134Y-13789984D01*
X12201134Y-13685222D02*
X12210658Y-13666174D01*
X12210658Y-13666174D02*
X12229705Y-13656650D01*
X12229705Y-13656650D02*
X12258277Y-13656650D01*
X12258277Y-13656650D02*
X12277324Y-13666174D01*
X12277324Y-13666174D02*
X12286848Y-13685222D01*
X12286848Y-13685222D02*
X12286848Y-13789984D01*
X12382086Y-13789984D02*
X12382086Y-13656650D01*
X12382086Y-13675698D02*
X12391610Y-13666174D01*
X12391610Y-13666174D02*
X12410658Y-13656650D01*
X12410658Y-13656650D02*
X12439229Y-13656650D01*
X12439229Y-13656650D02*
X12458277Y-13666174D01*
X12458277Y-13666174D02*
X12467801Y-13685222D01*
X12467801Y-13685222D02*
X12467801Y-13789984D01*
X12467801Y-13685222D02*
X12477324Y-13666174D01*
X12477324Y-13666174D02*
X12496372Y-13656650D01*
X12496372Y-13656650D02*
X12524943Y-13656650D01*
X12524943Y-13656650D02*
X12543991Y-13666174D01*
X12543991Y-13666174D02*
X12553515Y-13685222D01*
X12553515Y-13685222D02*
X12553515Y-13789984D01*
X12943991Y-13580460D02*
X12772563Y-13837603D01*
X13201134Y-13589984D02*
X13220182Y-13589984D01*
X13220182Y-13589984D02*
X13239229Y-13599508D01*
X13239229Y-13599508D02*
X13248753Y-13609031D01*
X13248753Y-13609031D02*
X13258277Y-13628079D01*
X13258277Y-13628079D02*
X13267801Y-13666174D01*
X13267801Y-13666174D02*
X13267801Y-13713793D01*
X13267801Y-13713793D02*
X13258277Y-13751888D01*
X13258277Y-13751888D02*
X13248753Y-13770936D01*
X13248753Y-13770936D02*
X13239229Y-13780460D01*
X13239229Y-13780460D02*
X13220182Y-13789984D01*
X13220182Y-13789984D02*
X13201134Y-13789984D01*
X13201134Y-13789984D02*
X13182086Y-13780460D01*
X13182086Y-13780460D02*
X13172563Y-13770936D01*
X13172563Y-13770936D02*
X13163039Y-13751888D01*
X13163039Y-13751888D02*
X13153515Y-13713793D01*
X13153515Y-13713793D02*
X13153515Y-13666174D01*
X13153515Y-13666174D02*
X13163039Y-13628079D01*
X13163039Y-13628079D02*
X13172563Y-13609031D01*
X13172563Y-13609031D02*
X13182086Y-13599508D01*
X13182086Y-13599508D02*
X13201134Y-13589984D01*
X13353515Y-13770936D02*
X13363039Y-13780460D01*
X13363039Y-13780460D02*
X13353515Y-13789984D01*
X13353515Y-13789984D02*
X13343991Y-13780460D01*
X13343991Y-13780460D02*
X13353515Y-13770936D01*
X13353515Y-13770936D02*
X13353515Y-13789984D01*
X13486848Y-13589984D02*
X13505896Y-13589984D01*
X13505896Y-13589984D02*
X13524944Y-13599508D01*
X13524944Y-13599508D02*
X13534467Y-13609031D01*
X13534467Y-13609031D02*
X13543991Y-13628079D01*
X13543991Y-13628079D02*
X13553515Y-13666174D01*
X13553515Y-13666174D02*
X13553515Y-13713793D01*
X13553515Y-13713793D02*
X13543991Y-13751888D01*
X13543991Y-13751888D02*
X13534467Y-13770936D01*
X13534467Y-13770936D02*
X13524944Y-13780460D01*
X13524944Y-13780460D02*
X13505896Y-13789984D01*
X13505896Y-13789984D02*
X13486848Y-13789984D01*
X13486848Y-13789984D02*
X13467801Y-13780460D01*
X13467801Y-13780460D02*
X13458277Y-13770936D01*
X13458277Y-13770936D02*
X13448753Y-13751888D01*
X13448753Y-13751888D02*
X13439229Y-13713793D01*
X13439229Y-13713793D02*
X13439229Y-13666174D01*
X13439229Y-13666174D02*
X13448753Y-13628079D01*
X13448753Y-13628079D02*
X13458277Y-13609031D01*
X13458277Y-13609031D02*
X13467801Y-13599508D01*
X13467801Y-13599508D02*
X13486848Y-13589984D01*
X13620182Y-13589984D02*
X13743991Y-13589984D01*
X13743991Y-13589984D02*
X13677325Y-13666174D01*
X13677325Y-13666174D02*
X13705896Y-13666174D01*
X13705896Y-13666174D02*
X13724944Y-13675698D01*
X13724944Y-13675698D02*
X13734467Y-13685222D01*
X13734467Y-13685222D02*
X13743991Y-13704269D01*
X13743991Y-13704269D02*
X13743991Y-13751888D01*
X13743991Y-13751888D02*
X13734467Y-13770936D01*
X13734467Y-13770936D02*
X13724944Y-13780460D01*
X13724944Y-13780460D02*
X13705896Y-13789984D01*
X13705896Y-13789984D02*
X13648753Y-13789984D01*
X13648753Y-13789984D02*
X13629706Y-13780460D01*
X13629706Y-13780460D02*
X13620182Y-13770936D01*
X13810658Y-13589984D02*
X13943991Y-13589984D01*
X13943991Y-13589984D02*
X13858277Y-13789984D01*
X14105896Y-13656650D02*
X14105896Y-13789984D01*
X14058277Y-13580460D02*
X14010658Y-13723317D01*
X14010658Y-13723317D02*
X14134467Y-13723317D01*
X14201134Y-13589984D02*
X14201134Y-13628079D01*
X14277325Y-13589984D02*
X14277325Y-13628079D01*
X14572563Y-13866174D02*
X14563039Y-13856650D01*
X14563039Y-13856650D02*
X14543991Y-13828079D01*
X14543991Y-13828079D02*
X14534468Y-13809031D01*
X14534468Y-13809031D02*
X14524944Y-13780460D01*
X14524944Y-13780460D02*
X14515420Y-13732841D01*
X14515420Y-13732841D02*
X14515420Y-13694746D01*
X14515420Y-13694746D02*
X14524944Y-13647127D01*
X14524944Y-13647127D02*
X14534468Y-13618555D01*
X14534468Y-13618555D02*
X14543991Y-13599508D01*
X14543991Y-13599508D02*
X14563039Y-13570936D01*
X14563039Y-13570936D02*
X14572563Y-13561412D01*
X14734468Y-13589984D02*
X14696372Y-13589984D01*
X14696372Y-13589984D02*
X14677325Y-13599508D01*
X14677325Y-13599508D02*
X14667801Y-13609031D01*
X14667801Y-13609031D02*
X14648753Y-13637603D01*
X14648753Y-13637603D02*
X14639229Y-13675698D01*
X14639229Y-13675698D02*
X14639229Y-13751888D01*
X14639229Y-13751888D02*
X14648753Y-13770936D01*
X14648753Y-13770936D02*
X14658277Y-13780460D01*
X14658277Y-13780460D02*
X14677325Y-13789984D01*
X14677325Y-13789984D02*
X14715420Y-13789984D01*
X14715420Y-13789984D02*
X14734468Y-13780460D01*
X14734468Y-13780460D02*
X14743991Y-13770936D01*
X14743991Y-13770936D02*
X14753515Y-13751888D01*
X14753515Y-13751888D02*
X14753515Y-13704269D01*
X14753515Y-13704269D02*
X14743991Y-13685222D01*
X14743991Y-13685222D02*
X14734468Y-13675698D01*
X14734468Y-13675698D02*
X14715420Y-13666174D01*
X14715420Y-13666174D02*
X14677325Y-13666174D01*
X14677325Y-13666174D02*
X14658277Y-13675698D01*
X14658277Y-13675698D02*
X14648753Y-13685222D01*
X14648753Y-13685222D02*
X14639229Y-13704269D01*
X14991610Y-13789984D02*
X14991610Y-13589984D01*
X15077325Y-13789984D02*
X15077325Y-13685222D01*
X15077325Y-13685222D02*
X15067801Y-13666174D01*
X15067801Y-13666174D02*
X15048753Y-13656650D01*
X15048753Y-13656650D02*
X15020182Y-13656650D01*
X15020182Y-13656650D02*
X15001134Y-13666174D01*
X15001134Y-13666174D02*
X14991610Y-13675698D01*
X15201134Y-13789984D02*
X15182087Y-13780460D01*
X15182087Y-13780460D02*
X15172563Y-13770936D01*
X15172563Y-13770936D02*
X15163039Y-13751888D01*
X15163039Y-13751888D02*
X15163039Y-13694746D01*
X15163039Y-13694746D02*
X15172563Y-13675698D01*
X15172563Y-13675698D02*
X15182087Y-13666174D01*
X15182087Y-13666174D02*
X15201134Y-13656650D01*
X15201134Y-13656650D02*
X15229706Y-13656650D01*
X15229706Y-13656650D02*
X15248753Y-13666174D01*
X15248753Y-13666174D02*
X15258277Y-13675698D01*
X15258277Y-13675698D02*
X15267801Y-13694746D01*
X15267801Y-13694746D02*
X15267801Y-13751888D01*
X15267801Y-13751888D02*
X15258277Y-13770936D01*
X15258277Y-13770936D02*
X15248753Y-13780460D01*
X15248753Y-13780460D02*
X15229706Y-13789984D01*
X15229706Y-13789984D02*
X15201134Y-13789984D01*
X15382087Y-13789984D02*
X15363039Y-13780460D01*
X15363039Y-13780460D02*
X15353515Y-13761412D01*
X15353515Y-13761412D02*
X15353515Y-13589984D01*
X15534468Y-13780460D02*
X15515420Y-13789984D01*
X15515420Y-13789984D02*
X15477325Y-13789984D01*
X15477325Y-13789984D02*
X15458277Y-13780460D01*
X15458277Y-13780460D02*
X15448753Y-13761412D01*
X15448753Y-13761412D02*
X15448753Y-13685222D01*
X15448753Y-13685222D02*
X15458277Y-13666174D01*
X15458277Y-13666174D02*
X15477325Y-13656650D01*
X15477325Y-13656650D02*
X15515420Y-13656650D01*
X15515420Y-13656650D02*
X15534468Y-13666174D01*
X15534468Y-13666174D02*
X15543991Y-13685222D01*
X15543991Y-13685222D02*
X15543991Y-13704269D01*
X15543991Y-13704269D02*
X15448753Y-13723317D01*
X15620182Y-13780460D02*
X15639230Y-13789984D01*
X15639230Y-13789984D02*
X15677325Y-13789984D01*
X15677325Y-13789984D02*
X15696372Y-13780460D01*
X15696372Y-13780460D02*
X15705896Y-13761412D01*
X15705896Y-13761412D02*
X15705896Y-13751888D01*
X15705896Y-13751888D02*
X15696372Y-13732841D01*
X15696372Y-13732841D02*
X15677325Y-13723317D01*
X15677325Y-13723317D02*
X15648753Y-13723317D01*
X15648753Y-13723317D02*
X15629706Y-13713793D01*
X15629706Y-13713793D02*
X15620182Y-13694746D01*
X15620182Y-13694746D02*
X15620182Y-13685222D01*
X15620182Y-13685222D02*
X15629706Y-13666174D01*
X15629706Y-13666174D02*
X15648753Y-13656650D01*
X15648753Y-13656650D02*
X15677325Y-13656650D01*
X15677325Y-13656650D02*
X15696372Y-13666174D01*
X15772563Y-13866174D02*
X15782087Y-13856650D01*
X15782087Y-13856650D02*
X15801134Y-13828079D01*
X15801134Y-13828079D02*
X15810658Y-13809031D01*
X15810658Y-13809031D02*
X15820182Y-13780460D01*
X15820182Y-13780460D02*
X15829706Y-13732841D01*
X15829706Y-13732841D02*
X15829706Y-13694746D01*
X15829706Y-13694746D02*
X15820182Y-13647127D01*
X15820182Y-13647127D02*
X15810658Y-13618555D01*
X15810658Y-13618555D02*
X15801134Y-13599508D01*
X15801134Y-13599508D02*
X15782087Y-13570936D01*
X15782087Y-13570936D02*
X15772563Y-13561412D01*
M02*
